<svg width="722" height="722" viewBox="0 0 722 722" fill="none" xmlns="http://www.w3.org/2000/svg">
<g filter="url(#filter0_d_4_1855)">
<path d="M271.413 368.774C272.383 372.921 274.658 381.906 276 384.668L267.924 389.867C250.895 400.623 213.415 424.13 199.987 431.933C198.855 432.567 197.862 433.129 196.98 433.632C193.966 435.352 192.25 436.387 190.744 437.248C188.797 438.362 188.085 437.859 183.996 430.796C179.621 423.237 181.181 418.702 184.274 416.526C199.571 405.767 222.83 389.952 268.426 359.13C268.578 360.216 269 362.317 269.73 364.6C270.174 365.987 270.732 367.441 271.413 368.774Z" fill="#FF0000" fill-opacity="0.4" shape-rendering="crispEdges"/>
<path d="M271.413 368.774C272.383 372.921 274.658 381.906 276 384.668L267.924 389.867M271.413 368.774C270.732 367.441 270.174 365.987 269.73 364.6M271.413 368.774C268.732 370.53 265.409 372.719 261.702 375.176M267.924 389.867C250.895 400.623 213.415 424.13 199.987 431.933M267.924 389.867C266.916 387.885 265.134 384.167 261.702 375.176M199.987 431.933C199.848 431.623 199.549 430.928 198.118 426.767C196.265 420.897 198.487 419.659 214.312 407.738C224.506 400.059 246.382 385.33 261.702 375.176M199.987 431.933C198.855 432.567 197.862 433.129 196.98 433.632M269.73 364.6C269 362.317 268.578 360.216 268.426 359.13C222.83 389.952 199.571 405.767 184.274 416.526C181.181 418.702 179.621 423.237 183.996 430.796C188.085 437.859 188.797 438.362 190.744 437.248C192.25 436.387 193.966 435.352 196.98 433.632M269.73 364.6C226.83 392.773 215.969 399.6 201.354 413.564C191.908 422.589 193.338 422.15 196.98 433.632" stroke="#FF0000" stroke-width="2" shape-rendering="crispEdges"/>
</g>
<defs>
<filter id="filter0_d_4_1855" x="150.293" y="327.405" width="156.994" height="141.299" filterUnits="userSpaceOnUse" color-interpolation-filters="sRGB">
<feFlood flood-opacity="0" result="BackgroundImageFix"/>
<feColorMatrix in="SourceAlpha" type="matrix" values="0 0 0 0 0 0 0 0 0 0 0 0 0 0 0 0 0 0 127 0" result="hardAlpha"/>
<feOffset/>
<feGaussianBlur stdDeviation="15"/>
<feComposite in2="hardAlpha" operator="out"/>
<feColorMatrix type="matrix" values="0 0 0 0 1 0 0 0 0 0 0 0 0 0 0 0 0 0 1 0"/>
<feBlend mode="normal" in2="BackgroundImageFix" result="effect1_dropShadow_4_1855"/>
<feBlend mode="normal" in="SourceGraphic" in2="effect1_dropShadow_4_1855" result="shape"/>
</filter>
</defs>
</svg>
