<svg width="722" height="722" viewBox="0 0 722 722" fill="none" xmlns="http://www.w3.org/2000/svg">
<g filter="url(#filter0_d_2_628)">
<path fill-rule="evenodd" clip-rule="evenodd" d="M432.97 87.7184C420.347 83.721 392.303 78.8196 364.66 78.8196C337.016 78.8196 308.984 83.7223 296.353 87.7328C289.299 90.0611 284.721 93.785 279.339 98.1631C278.86 98.5529 278.375 98.9479 277.881 99.3475C277.574 99.5957 277.274 99.8375 276.982 100.073L276.982 100.073C274.219 102.304 272.114 104.004 270.484 105.631L268.002 205.285C267.938 213.469 269.623 215.929 272.926 220.749L272.926 220.75C273.593 221.724 274.326 222.793 275.124 224.026C275.561 223.48 276.042 222.931 276.572 222.376C280.936 217.801 290.99 207.923 305.095 204.285C319.199 200.647 332.736 199.249 364.66 199.249C396.585 199.249 410.12 200.64 424.225 204.278C438.33 207.916 448.383 217.794 452.749 222.37C453.306 222.953 453.81 223.53 454.265 224.104C454.272 224.104 454.278 224.104 454.285 224.105C455.103 222.838 455.853 221.744 456.534 220.749C459.837 215.929 461.522 213.469 461.458 205.285L458.979 105.764C457.323 104.082 455.162 102.337 452.291 100.018L452.282 100.01L451.878 99.6839L451.444 99.3331C450.961 98.9429 450.487 98.5572 450.019 98.1764L450.017 98.175C444.62 93.7846 440.031 90.0515 432.97 87.7184Z" fill="#FF0000" fill-opacity="0.4" shape-rendering="crispEdges"/>
<path d="M432.97 87.7184L433.284 86.7689L433.272 86.7651L432.97 87.7184ZM296.353 87.7328L296.05 86.7796L296.039 86.7832L296.353 87.7328ZM279.339 98.1631L279.97 98.9389H279.97L279.339 98.1631ZM277.881 99.3475L277.252 98.5699L277.252 98.5699L277.881 99.3475ZM276.982 100.073L277.607 100.854L277.61 100.851L276.982 100.073ZM276.982 100.073L276.357 99.2925L276.354 99.2953L276.982 100.073ZM270.484 105.631L269.777 104.923L269.494 105.206L269.484 105.606L270.484 105.631ZM268.002 205.285L267.002 205.26L267.002 205.269L267.002 205.277L268.002 205.285ZM272.926 220.749L273.753 220.187L273.751 220.184L272.926 220.749ZM272.926 220.75L272.099 221.312L272.101 221.316L272.926 220.75ZM275.124 224.026L274.284 224.569L275.038 225.733L275.904 224.651L275.124 224.026ZM276.572 222.376L277.295 223.067H277.295L276.572 222.376ZM305.095 204.285L304.845 203.316L305.095 204.285ZM364.66 199.249V198.249V199.249ZM424.225 204.278L423.975 205.246L424.225 204.278ZM452.749 222.37L453.473 221.679L452.749 222.37ZM454.265 224.104L453.481 224.726L453.779 225.101L454.258 225.104L454.265 224.104ZM454.285 224.105L454.276 225.104L454.826 225.109L455.125 224.647L454.285 224.105ZM456.534 220.749L455.709 220.184L456.534 220.749ZM461.458 205.285L462.458 205.277L462.458 205.269L462.458 205.26L461.458 205.285ZM458.979 105.764L459.979 105.739L459.969 105.344L459.692 105.062L458.979 105.764ZM452.291 100.018L452.92 99.2401L452.919 99.2397L452.291 100.018ZM452.282 100.01L451.653 100.788L451.654 100.789L452.282 100.01ZM451.878 99.6839L451.249 100.462L451.249 100.462L451.878 99.6839ZM451.444 99.3331L450.815 100.111L450.815 100.111L451.444 99.3331ZM450.019 98.1764L450.65 97.4006L450.647 97.3983L450.019 98.1764ZM450.017 98.175L449.386 98.9508L449.389 98.953L450.017 98.175ZM364.66 79.8196C392.216 79.8196 420.156 84.7097 432.668 88.6718L433.272 86.7651C420.537 82.7324 392.39 77.8196 364.66 77.8196V79.8196ZM296.656 88.6859C309.175 84.7109 337.103 79.8196 364.66 79.8196V77.8196C336.929 77.8196 308.793 82.7337 296.05 86.7797L296.656 88.6859ZM279.97 98.9389C285.359 94.555 289.808 90.9461 296.666 88.6824L296.039 86.7832C288.79 89.1761 284.083 93.015 278.708 97.3874L279.97 98.9389ZM278.509 100.125C279.005 99.7244 279.492 99.3285 279.97 98.9389L278.708 97.3874C278.229 97.7773 277.745 98.1713 277.252 98.5699L278.509 100.125ZM277.61 100.851C277.902 100.616 278.202 100.374 278.509 100.125L277.252 98.5699C276.945 98.8179 276.646 99.0594 276.354 99.2953L277.61 100.851ZM277.607 100.854L277.607 100.854L276.357 99.2925L276.357 99.2925L277.607 100.854ZM271.19 106.339C272.775 104.757 274.833 103.094 277.61 100.851L276.354 99.2953C273.606 101.514 271.453 103.251 269.777 104.923L271.19 106.339ZM269.001 205.31L271.483 105.656L269.484 105.606L267.002 205.26L269.001 205.31ZM273.751 220.184C272.086 217.754 270.915 216.036 270.139 213.933C269.37 211.847 268.97 209.318 269.002 205.293L267.002 205.277C266.969 209.437 267.38 212.23 268.263 214.625C269.14 217.002 270.463 218.924 272.101 221.314L273.751 220.184ZM273.753 220.188L273.753 220.187L272.099 221.311L272.099 221.312L273.753 220.188ZM275.963 223.483C275.158 222.238 274.418 221.158 273.751 220.185L272.101 221.316C272.769 222.289 273.495 223.349 274.284 224.569L275.963 223.483ZM275.848 221.686C275.3 222.26 274.8 222.831 274.343 223.401L275.904 224.651C276.322 224.129 276.784 223.602 277.295 223.067L275.848 221.686ZM304.845 203.316C290.451 207.029 280.234 217.089 275.848 221.686L277.295 223.067C281.639 218.514 291.528 208.817 305.344 205.253L304.845 203.316ZM364.66 198.249C332.711 198.249 319.074 199.646 304.845 203.316L305.344 205.253C319.325 201.647 332.761 200.249 364.66 200.249V198.249ZM424.475 203.31C410.246 199.64 396.609 198.249 364.66 198.249V200.249C396.56 200.249 409.995 201.64 423.975 205.246L424.475 203.31ZM453.473 221.679C449.086 217.081 438.868 207.022 424.475 203.31L423.975 205.246C437.792 208.81 447.681 218.506 452.026 223.06L453.473 221.679ZM455.048 223.483C454.573 222.883 454.049 222.283 453.473 221.679L452.026 223.06C452.563 223.623 453.047 224.177 453.481 224.726L455.048 223.483ZM454.258 225.104C454.265 225.104 454.271 225.104 454.276 225.104L454.294 223.105C454.286 223.104 454.278 223.104 454.272 223.104L454.258 225.104ZM455.125 224.647C455.935 223.394 456.677 222.309 457.359 221.314L455.709 220.184C455.028 221.178 454.271 222.283 453.445 223.562L455.125 224.647ZM457.359 221.314C458.997 218.924 460.32 217.002 461.197 214.625C462.08 212.23 462.49 209.437 462.458 205.277L460.458 205.293C460.489 209.318 460.089 211.847 459.32 213.933C458.545 216.036 457.374 217.754 455.709 220.184L457.359 221.314ZM462.458 205.26L459.979 105.739L457.98 105.789L460.458 205.31L462.458 205.26ZM451.663 100.796C454.549 103.128 456.659 104.834 458.267 106.466L459.692 105.062C457.986 103.331 455.774 101.546 452.92 99.2401L451.663 100.796ZM451.654 100.789L451.663 100.796L452.919 99.2397L452.91 99.2319L451.654 100.789ZM451.249 100.462L451.653 100.788L452.91 99.2324L452.506 98.906L451.249 100.462ZM450.815 100.111L451.249 100.462L452.506 98.9063L452.072 98.5554L450.815 100.111ZM449.388 98.9521C449.856 99.3328 450.331 99.7194 450.815 100.111L452.073 98.5556C451.591 98.1664 451.118 97.7815 450.65 97.4006L449.388 98.9521ZM449.389 98.953L449.391 98.9544L450.647 97.3983L450.646 97.397L449.389 98.953ZM432.656 88.668C439.522 90.9364 443.982 94.5545 449.386 98.9507L450.648 97.3993C445.258 93.0147 440.54 89.1666 433.284 86.7689L432.656 88.668Z" fill="#FF0000"/>
</g>
<defs>
<filter id="filter0_d_2_628" x="245" y="55.8196" width="239.46" height="191.914" filterUnits="userSpaceOnUse" color-interpolation-filters="sRGB">
<feFlood flood-opacity="0" result="BackgroundImageFix"/>
<feColorMatrix in="SourceAlpha" type="matrix" values="0 0 0 0 0 0 0 0 0 0 0 0 0 0 0 0 0 0 127 0" result="hardAlpha"/>
<feOffset/>
<feGaussianBlur stdDeviation="11"/>
<feComposite in2="hardAlpha" operator="out"/>
<feColorMatrix type="matrix" values="0 0 0 0 1 0 0 0 0 0 0 0 0 0 0 0 0 0 1 0"/>
<feBlend mode="normal" in2="BackgroundImageFix" result="effect1_dropShadow_2_628"/>
<feBlend mode="normal" in="SourceGraphic" in2="effect1_dropShadow_2_628" result="shape"/>
</filter>
</defs>
</svg>
