<svg width="722" height="722" viewBox="0 0 722 722" fill="none" xmlns="http://www.w3.org/2000/svg">
<g filter="url(#filter0_d_4_3082)">
<path d="M364.685 77.8196C392.327 77.8196 420.371 82.7211 432.995 86.7185C440.669 89.2541 445.423 93.4435 451.468 98.3331C457.513 103.223 460.614 105.6 462.437 109.596C464.261 113.593 471.766 127.393 471.947 140.649C472.129 153.906 473.237 193.12 473.237 198.577C473.237 210.334 470.063 231.392 469.947 253.965C471.735 255.184 473.875 256.658 476 258.178C476.049 258.215 476.109 258.252 476.17 258.3C479.241 260.364 482.115 262.704 484.756 265.29C488.368 269.323 488.514 271.242 488.368 275.201C488.222 279.161 487.431 280.019 485.9 279.754C484.622 279.536 472.98 275.958 468.468 274.206C468.468 274.206 467.542 338.202 467.468 346.956C467.395 355.71 467.26 410.748 466.968 419.706C466.676 428.664 466.968 440.82 466.968 444.073C466.968 447.327 466.897 450.108 467.468 456.206C468.039 462.304 468.468 465.206 468.968 470.206C469.929 479.815 469.797 509 469.726 517.87L468.968 538.206C469.091 546.593 467.869 555.533 465.968 563.706C464.023 571.88 458.5 593.32 457 604.32C457 609.82 452.415 613.035 451 616.32C449.708 619.32 444.722 623.028 440.173 624.38C435.624 625.732 412.092 633.206 364.694 633.206C317.296 633.206 289.767 625.744 285.207 624.38C280.648 623.017 275.952 618.46 273.726 615.64C271.5 612.82 268 608.32 268 604.32C266.5 591.82 260.961 571.993 259 563.82C257.106 555.647 255.382 545.205 255.5 536.82C255.5 512.718 254.602 489.203 256.85 465.206C257.421 459.109 259.85 446.82 259.85 443.82C259.85 439.315 260.142 429.29 259.85 420.32C259.558 411.349 259.695 355.709 259.622 346.956C259.56 339.699 259.451 294.521 259.403 274.02C254.89 275.772 244.761 279.55 243.48 279.768C241.937 280.03 241.134 279.177 241 275.216C240.866 271.255 241 269.337 244.624 265.305C247.265 262.719 250.139 260.379 253.21 258.314C253.288 258.253 253.369 258.197 253.453 258.144C255.544 256.647 257.664 255.199 259.425 253.992L259.425 253.98C259.303 231.402 256.135 210.348 256.135 198.591C256.135 193.134 257.23 153.921 257.413 140.664C257.596 127.407 265.099 113.607 266.923 109.611C268.747 105.615 271.86 103.236 277.905 98.3475C283.95 93.4592 288.695 89.2684 296.377 86.7328C309.009 82.7223 337.041 77.8196 364.685 77.8196Z" fill="#FF0000" fill-opacity="0.4" shape-rendering="crispEdges"/>
<path d="M364.685 77.8196C392.327 77.8196 420.371 82.7211 432.995 86.7185C440.669 89.2541 445.423 93.4435 451.468 98.3331C457.513 103.223 460.614 105.6 462.437 109.596C464.261 113.593 471.766 127.393 471.947 140.649C472.129 153.906 473.237 193.12 473.237 198.577C473.237 210.334 470.063 231.392 469.947 253.965C471.735 255.184 473.875 256.658 476 258.178C476.049 258.215 476.109 258.252 476.17 258.3C479.241 260.364 482.115 262.704 484.756 265.29C488.368 269.323 488.514 271.242 488.368 275.201C488.222 279.161 487.431 280.019 485.9 279.754C484.622 279.536 472.98 275.958 468.468 274.206C468.468 274.206 467.542 338.202 467.468 346.956C467.395 355.71 467.26 410.748 466.968 419.706C466.676 428.664 466.968 440.82 466.968 444.073C466.968 447.327 466.897 450.108 467.468 456.206C468.039 462.304 468.468 465.206 468.968 470.206C469.929 479.815 469.797 509 469.726 517.87L468.968 538.206C469.091 546.593 467.869 555.533 465.968 563.706C464.023 571.88 458.5 593.32 457 604.32C457 609.82 452.415 613.035 451 616.32C449.708 619.32 444.722 623.028 440.173 624.38C435.624 625.732 412.092 633.206 364.694 633.206C317.296 633.206 289.767 625.744 285.207 624.38C280.648 623.017 275.952 618.46 273.726 615.64C271.5 612.82 268 608.32 268 604.32C266.5 591.82 260.961 571.993 259 563.82C257.106 555.647 255.382 545.205 255.5 536.82C255.5 512.718 254.602 489.203 256.85 465.206C257.421 459.109 259.85 446.82 259.85 443.82C259.85 439.315 260.142 429.29 259.85 420.32C259.558 411.349 259.695 355.709 259.622 346.956C259.56 339.699 259.451 294.521 259.403 274.02C254.89 275.772 244.761 279.55 243.48 279.768C241.937 280.03 241.134 279.177 241 275.216C240.866 271.255 241 269.337 244.624 265.305C247.265 262.719 250.139 260.379 253.21 258.314C253.288 258.253 253.369 258.197 253.453 258.144C255.544 256.647 257.664 255.199 259.425 253.992L259.425 253.98C259.303 231.402 256.135 210.348 256.135 198.591C256.135 193.134 257.23 153.921 257.413 140.664C257.596 127.407 265.099 113.607 266.923 109.611C268.747 105.615 271.86 103.236 277.905 98.3475C283.95 93.4592 288.695 89.2684 296.377 86.7328C309.009 82.7223 337.041 77.8196 364.685 77.8196Z" stroke="#FF0000" stroke-width="2" stroke-miterlimit="3" shape-rendering="crispEdges"/>
</g>
<defs>
<filter id="filter0_d_4_3082" x="217.968" y="54.8196" width="293.436" height="601.386" filterUnits="userSpaceOnUse" color-interpolation-filters="sRGB">
<feFlood flood-opacity="0" result="BackgroundImageFix"/>
<feColorMatrix in="SourceAlpha" type="matrix" values="0 0 0 0 0 0 0 0 0 0 0 0 0 0 0 0 0 0 127 0" result="hardAlpha"/>
<feOffset/>
<feGaussianBlur stdDeviation="11"/>
<feComposite in2="hardAlpha" operator="out"/>
<feColorMatrix type="matrix" values="0 0 0 0 1 0 0 0 0 0 0 0 0 0 0 0 0 0 1 0"/>
<feBlend mode="normal" in2="BackgroundImageFix" result="effect1_dropShadow_4_3082"/>
<feBlend mode="normal" in="SourceGraphic" in2="effect1_dropShadow_4_3082" result="shape"/>
</filter>
</defs>
</svg>
