<svg width="722" height="722" viewBox="0 0 722 722" fill="none" xmlns="http://www.w3.org/2000/svg">
<g filter="url(#filter0_d_4_1037)">
<path d="M177.849 317.272C177.013 315.973 176.143 313.875 175.813 312.988C174.171 308.659 175.082 310.926 174.197 308.07C178.171 305.189 232.097 266.82 240.857 260.418C229.628 252.8 226.727 251.121 226.394 250.026C226.062 248.932 230.681 243.567 235.481 243.012C239.447 242.353 252.669 246.975 257.118 249.14C259.803 247.299 265.896 242.582 271.78 238.233C274.943 240.403 276.966 243.205 277.634 248.38C271.646 254.76 263.77 263.14 255.714 271.698C237.777 290.754 218.946 310.691 218.059 311.383C217.013 312.198 202.333 322.588 191.088 330.531C188.511 332.352 186.114 334.044 184.103 335.463C182.185 330.509 178.25 319.935 177.849 317.272Z" fill="#FF0000" fill-opacity="0.4"/>
<path d="M246.111 262.789C218.843 281.884 194.444 299.358 175.813 312.988M175.813 312.988C176.143 313.875 177.013 315.973 177.849 317.272M175.813 312.988C174.171 308.659 175.082 310.926 174.197 308.07C178.171 305.189 232.097 266.82 240.857 260.418C229.628 252.8 226.727 251.121 226.394 250.026C226.062 248.932 230.681 243.567 235.481 243.012C239.447 242.353 252.669 246.975 257.118 249.14C259.803 247.299 265.896 242.582 271.78 238.233C274.943 240.403 276.966 243.205 277.634 248.38M177.849 317.272C178.25 319.935 182.185 330.509 184.103 335.463C186.114 334.044 188.511 332.352 191.088 330.531M177.849 317.272C178.798 316.586 182.621 313.924 188.256 310.018M277.634 248.38C276.984 248.798 267.959 255.001 255.573 263.534M277.634 248.38C271.646 254.76 263.77 263.14 255.714 271.698M188.256 310.018C188.153 310.83 189.814 325.856 191.088 330.531M188.256 310.018C204.206 298.96 234.674 277.931 255.573 263.534M191.088 330.531C202.333 322.588 217.013 312.198 218.059 311.383C218.946 310.691 237.777 290.754 255.714 271.698M255.573 263.534L255.714 271.698" stroke="#FF0000" stroke-width="2" stroke-linecap="round" stroke-linejoin="round"/>
<path d="M249.904 246.246C249.904 246.246 257.326 248.921 259.348 252.819C260.27 254.596 257.748 255.809 256.271 256.856C254.794 257.903 249.977 260.778 249.977 260.778" stroke="#FF0000" stroke-width="2" stroke-linecap="round" stroke-linejoin="round"/>
<path d="M261.251 259.327C260.008 259.287 256.663 259.575 254.569 259.342C252.564 259.12 250.367 260.513 247.881 262.03C245.395 263.546 244.444 262.66 242.748 261.637C241.052 260.613 228.173 251.924 227.068 250.817C225.963 249.71 226.196 248.56 229.35 246.16C232.503 243.759 234.145 242.759 239.519 243.384C244.165 243.922 253.895 247.676 259.128 249.566C260.471 250.052 261.908 250.212 263.321 250.033L277.354 248.334" stroke="#FF0000" stroke-width="2" stroke-linecap="round" stroke-linejoin="round"/>
</g>
<defs>
<filter id="filter0_d_4_1037" x="143.197" y="207.233" width="165.437" height="159.23" filterUnits="userSpaceOnUse" color-interpolation-filters="sRGB">
<feFlood flood-opacity="0" result="BackgroundImageFix"/>
<feColorMatrix in="SourceAlpha" type="matrix" values="0 0 0 0 0 0 0 0 0 0 0 0 0 0 0 0 0 0 127 0" result="hardAlpha"/>
<feOffset/>
<feGaussianBlur stdDeviation="15"/>
<feComposite in2="hardAlpha" operator="out"/>
<feColorMatrix type="matrix" values="0 0 0 0 1 0 0 0 0 0 0 0 0 0 0 0 0 0 1 0"/>
<feBlend mode="normal" in2="BackgroundImageFix" result="effect1_dropShadow_4_1037"/>
<feBlend mode="normal" in="SourceGraphic" in2="effect1_dropShadow_4_1037" result="shape"/>
</filter>
</defs>
</svg>
