<svg width="722" height="722" viewBox="0 0 722 722" fill="none" xmlns="http://www.w3.org/2000/svg">
<g filter="url(#filter0_d_112_5673)">
<path d="M280 353.82C280.015 339.955 280.036 323.653 280 322.32C279.969 321.188 280 296.82 274.5 271.82L271 271.82C270.793 297.374 270.123 328.275 270 347.82C270.361 348.378 277.279 352.143 280 353.82Z" fill="#FF0000" fill-opacity="0.4" shape-rendering="crispEdges"/>
<path d="M280 353.82C280.015 339.955 280.036 323.653 280 322.32C279.969 321.188 280 296.82 274.5 271.82L271 271.82C270.793 297.374 270.123 328.275 270 347.82C270.361 348.378 277.279 352.143 280 353.82Z" stroke="#FF0000" stroke-width="2" stroke-linecap="round" stroke-linejoin="round" shape-rendering="crispEdges"/>
</g>
<defs>
<filter id="filter0_d_112_5673" x="239" y="240.82" width="72.0199" height="144" filterUnits="userSpaceOnUse" color-interpolation-filters="sRGB">
<feFlood flood-opacity="0" result="BackgroundImageFix"/>
<feColorMatrix in="SourceAlpha" type="matrix" values="0 0 0 0 0 0 0 0 0 0 0 0 0 0 0 0 0 0 127 0" result="hardAlpha"/>
<feOffset/>
<feGaussianBlur stdDeviation="15"/>
<feComposite in2="hardAlpha" operator="out"/>
<feColorMatrix type="matrix" values="0 0 0 0 1 0 0 0 0 0 0 0 0 0 0 0 0 0 1 0"/>
<feBlend mode="normal" in2="BackgroundImageFix" result="effect1_dropShadow_112_5673"/>
<feBlend mode="normal" in="SourceGraphic" in2="effect1_dropShadow_112_5673" result="shape"/>
</filter>
</defs>
</svg>
