<svg width="722" height="722" viewBox="0 0 722 722" fill="none" xmlns="http://www.w3.org/2000/svg">
<g filter="url(#filter0_d_112_6714)">
<path d="M448.02 353.82C448.005 339.955 447.984 323.653 448.02 322.32C448.051 321.188 448.02 296.82 453.52 271.82L457.02 271.82C457.227 297.374 457.897 328.275 458.02 347.82C457.659 348.378 450.741 352.143 448.02 353.82Z" fill="#FF0000" fill-opacity="0.4" shape-rendering="crispEdges"/>
<path d="M448.02 353.82C448.005 339.955 447.984 323.653 448.02 322.32C448.051 321.188 448.02 296.82 453.52 271.82L457.02 271.82C457.227 297.374 457.897 328.275 458.02 347.82C457.659 348.378 450.741 352.143 448.02 353.82Z" stroke="#FF0000" stroke-width="2" stroke-linecap="round" stroke-linejoin="round" shape-rendering="crispEdges"/>
</g>
<defs>
<filter id="filter0_d_112_6714" x="417" y="240.82" width="72.0198" height="144" filterUnits="userSpaceOnUse" color-interpolation-filters="sRGB">
<feFlood flood-opacity="0" result="BackgroundImageFix"/>
<feColorMatrix in="SourceAlpha" type="matrix" values="0 0 0 0 0 0 0 0 0 0 0 0 0 0 0 0 0 0 127 0" result="hardAlpha"/>
<feOffset/>
<feGaussianBlur stdDeviation="15"/>
<feComposite in2="hardAlpha" operator="out"/>
<feColorMatrix type="matrix" values="0 0 0 0 1 0 0 0 0 0 0 0 0 0 0 0 0 0 1 0"/>
<feBlend mode="normal" in2="BackgroundImageFix" result="effect1_dropShadow_112_6714"/>
<feBlend mode="normal" in="SourceGraphic" in2="effect1_dropShadow_112_6714" result="shape"/>
</filter>
</defs>
</svg>
