<svg width="722" height="722" viewBox="0 0 722 722" fill="none" xmlns="http://www.w3.org/2000/svg">
<g filter="url(#filter0_d_4_1446)">
<path d="M552.226 317.272C553.062 315.973 553.932 313.875 554.262 312.988C555.904 308.659 554.992 310.926 555.878 308.07C551.904 305.189 497.978 266.82 489.217 260.418C500.447 252.8 503.348 251.121 503.68 250.026C504.013 248.932 499.394 243.567 494.594 243.012C490.627 242.353 477.406 246.975 472.957 249.14C470.272 247.299 464.179 242.582 458.295 238.233C455.132 240.403 453.109 243.205 452.44 248.38C458.429 254.76 466.305 263.14 474.361 271.698C492.298 290.754 511.129 310.691 512.016 311.383C513.061 312.198 527.742 322.588 538.986 330.531C541.564 332.352 543.961 334.044 545.972 335.463C547.889 330.509 551.825 319.935 552.226 317.272Z" fill="#FF0000" fill-opacity="0.4"/>
<path d="M483.964 262.789C511.232 281.884 535.631 299.358 554.262 312.988M554.262 312.988C553.932 313.875 553.062 315.973 552.226 317.272M554.262 312.988C555.904 308.659 554.992 310.926 555.878 308.07C551.904 305.189 497.978 266.82 489.217 260.418C500.447 252.8 503.348 251.121 503.68 250.026C504.013 248.932 499.394 243.567 494.594 243.012C490.627 242.353 477.406 246.975 472.957 249.14C470.272 247.299 464.179 242.582 458.295 238.233C455.132 240.403 453.109 243.205 452.44 248.38M552.226 317.272C551.825 319.935 547.889 330.509 545.972 335.463C543.961 334.044 541.564 332.352 538.986 330.531M552.226 317.272C551.276 316.586 547.454 313.924 541.819 310.018M452.44 248.38C453.09 248.798 462.115 255.001 474.501 263.534M452.44 248.38C458.429 254.76 466.305 263.14 474.361 271.698M541.819 310.018C541.922 310.83 540.261 325.856 538.986 330.531M541.819 310.018C525.869 298.96 495.401 277.931 474.501 263.534M538.986 330.531C527.742 322.588 513.061 312.198 512.016 311.383C511.129 310.691 492.298 290.754 474.361 271.698M474.501 263.534L474.361 271.698" stroke="#FF0000" stroke-width="2" stroke-linecap="round" stroke-linejoin="round"/>
<path d="M480.171 246.246C480.171 246.246 472.749 248.921 470.726 252.819C469.804 254.596 472.326 255.809 473.803 256.856C475.28 257.903 480.098 260.778 480.098 260.778" stroke="#FF0000" stroke-width="2" stroke-linecap="round" stroke-linejoin="round"/>
<path d="M468.824 259.327C470.066 259.287 473.411 259.575 475.506 259.342C477.51 259.12 479.707 260.513 482.194 262.029C484.68 263.546 485.63 262.66 487.326 261.636C489.023 260.613 501.901 251.924 503.007 250.817C504.112 249.71 503.878 248.56 500.725 246.16C497.572 243.759 495.93 242.759 490.555 243.384C485.909 243.922 476.18 247.676 470.947 249.566C469.603 250.052 468.166 250.212 466.754 250.033L452.72 248.334" stroke="#FF0000" stroke-width="2" stroke-linecap="round" stroke-linejoin="round"/>
</g>
<defs>
<filter id="filter0_d_4_1446" x="421.44" y="207.233" width="165.437" height="159.23" filterUnits="userSpaceOnUse" color-interpolation-filters="sRGB">
<feFlood flood-opacity="0" result="BackgroundImageFix"/>
<feColorMatrix in="SourceAlpha" type="matrix" values="0 0 0 0 0 0 0 0 0 0 0 0 0 0 0 0 0 0 127 0" result="hardAlpha"/>
<feOffset/>
<feGaussianBlur stdDeviation="15"/>
<feComposite in2="hardAlpha" operator="out"/>
<feColorMatrix type="matrix" values="0 0 0 0 1 0 0 0 0 0 0 0 0 0 0 0 0 0 1 0"/>
<feBlend mode="normal" in2="BackgroundImageFix" result="effect1_dropShadow_4_1446"/>
<feBlend mode="normal" in="SourceGraphic" in2="effect1_dropShadow_4_1446" result="shape"/>
</filter>
</defs>
</svg>
