<svg width="722" height="722" viewBox="0 0 722 722" fill="none" xmlns="http://www.w3.org/2000/svg">
<g filter="url(#filter0_d_513_215)">
<path fill-rule="evenodd" clip-rule="evenodd" d="M362.009 602.32C362.015 602.32 362.018 602.32 362.018 602.32V602.32C363.287 602.329 430.547 602.791 435.5 599.82C435.5 613.269 434.443 618.474 429.835 626.666C414.649 630.164 398.952 631.87 362.018 632.819V632.82C362.015 632.82 362.012 632.819 362.009 632.819C362.006 632.819 362.003 632.82 362 632.82V632.819C325.066 631.87 309.369 630.164 294.183 626.666C289.575 618.474 288.518 613.269 288.518 599.82C293.471 602.791 360.731 602.329 362 602.32V602.32C362 602.32 362.003 602.32 362.009 602.32Z" fill="#FF0000" fill-opacity="0.4" shape-rendering="crispEdges"/>
<path d="M362.018 602.32H363.018V601.312L362.011 601.32L362.018 602.32ZM362.009 602.32L362.002 603.32L362.009 603.32L362.016 603.32L362.009 602.32ZM362.018 602.32H361.018V603.313L362.011 603.32L362.018 602.32ZM435.5 599.82H436.5V598.053L434.985 598.962L435.5 599.82ZM429.835 626.666L430.059 627.64L430.49 627.541L430.706 627.156L429.835 626.666ZM362.018 632.819L361.992 631.819L361.018 631.844V632.819H362.018ZM362.018 632.82L361.993 633.819L363.018 633.845V632.82H362.018ZM362.009 632.819L362.034 631.82L362.009 631.819L361.984 631.82L362.009 632.819ZM362 632.82H361V633.845L362.025 633.819L362 632.82ZM362 632.819H363V631.844L362.026 631.819L362 632.819ZM294.183 626.666L293.312 627.156L293.528 627.541L293.959 627.64L294.183 626.666ZM288.518 599.82L289.033 598.962L287.518 598.053L287.518 599.82L288.518 599.82ZM362 602.32L362.007 603.32L363 603.313V602.32H362ZM362 602.32L362.007 601.32L361 601.312V602.32H362ZM362.018 602.32C362.011 601.32 362.011 601.32 362.011 601.32C362.011 601.32 362.011 601.32 362.011 601.32C362.011 601.32 362.011 601.32 362.011 601.32C362.011 601.32 362.011 601.32 362.011 601.32C362.011 601.32 362.01 601.32 362.01 601.32C362.01 601.32 362.009 601.32 362.009 601.32C362.007 601.32 362.005 601.32 362.002 601.32L362.016 603.32C362.019 603.32 362.021 603.32 362.023 603.32C362.024 603.32 362.024 603.32 362.025 603.32C362.025 603.32 362.025 603.32 362.025 603.32C362.025 603.32 362.025 603.32 362.025 603.32C362.025 603.32 362.025 603.32 362.025 603.32L362.025 603.32C362.025 603.32 362.025 603.32 362.018 602.32ZM363.018 602.32V602.32H361.018V602.32H363.018ZM362.011 603.32C362.647 603.324 379.788 603.442 397.392 603.187C406.192 603.06 415.119 602.839 422.161 602.464C425.679 602.276 428.742 602.049 431.089 601.774C432.261 601.636 433.271 601.485 434.077 601.316C434.846 601.156 435.547 600.957 436.014 600.677L434.985 598.962C434.834 599.053 434.429 599.2 433.668 599.359C432.944 599.51 431.999 599.653 430.856 599.787C428.571 600.055 425.557 600.28 422.054 600.467C415.052 600.84 406.155 601.06 397.363 601.188C379.781 601.442 362.657 601.324 362.025 601.32L362.011 603.32ZM434.5 599.82C434.5 606.531 434.235 611.109 433.417 615.009C432.603 618.886 431.234 622.138 428.963 626.175L430.706 627.156C433.043 623.002 434.507 619.556 435.374 615.42C436.236 611.308 436.5 606.558 436.5 599.82H434.5ZM429.61 625.691C414.525 629.166 398.909 630.871 361.992 631.819L362.044 633.819C398.994 632.869 414.773 631.161 430.059 627.64L429.61 625.691ZM363.018 632.82V632.819H361.018V632.82H363.018ZM361.984 633.819C361.985 633.819 361.986 633.819 361.988 633.819C361.989 633.819 361.991 633.819 361.993 633.819L362.043 631.82C362.042 631.82 362.041 631.82 362.039 631.82C362.038 631.82 362.036 631.82 362.034 631.82L361.984 633.819ZM361.984 631.82C361.982 631.82 361.98 631.82 361.979 631.82C361.977 631.82 361.976 631.82 361.975 631.82L362.025 633.819C362.027 633.819 362.029 633.819 362.03 633.819C362.032 633.819 362.033 633.819 362.034 633.819L361.984 631.82ZM363 632.82V632.819H361V632.82H363ZM293.959 627.64C309.245 631.161 325.024 632.869 361.974 633.819L362.026 631.819C325.109 630.871 309.493 629.166 294.408 625.691L293.959 627.64ZM287.518 599.82C287.518 606.558 287.781 611.308 288.644 615.42C289.511 619.556 290.975 623.002 293.312 627.156L295.055 626.175C292.784 622.138 291.415 618.886 290.601 615.009C289.783 611.109 289.518 606.531 289.518 599.82L287.518 599.82ZM361.993 601.32C361.36 601.324 344.237 601.442 326.655 601.188C317.863 601.06 308.966 600.84 301.964 600.467C298.461 600.28 295.447 600.055 293.162 599.787C292.019 599.653 291.074 599.51 290.35 599.359C289.589 599.2 289.184 599.053 289.033 598.962L288.004 600.677C288.471 600.957 289.172 601.156 289.941 601.316C290.747 601.485 291.757 601.636 292.929 601.774C295.276 602.049 298.339 602.276 301.857 602.464C308.899 602.839 317.826 603.06 326.626 603.187C344.23 603.442 361.371 603.324 362.007 603.32L361.993 601.32ZM363 602.32V602.32H361V602.32H363ZM362 602.32C361.993 603.32 361.993 603.32 361.993 603.32C361.993 603.32 361.993 603.32 361.993 603.32H361.993C361.993 603.32 361.993 603.32 361.993 603.32C361.993 603.32 361.993 603.32 361.993 603.32C361.993 603.32 361.993 603.32 361.993 603.32C361.994 603.32 361.994 603.32 361.995 603.32C361.996 603.32 361.999 603.32 362.002 603.32L362.016 601.32C362.013 601.32 362.011 601.32 362.009 601.32C362.009 601.32 362.008 601.32 362.008 601.32C362.008 601.32 362.007 601.32 362.007 601.32C362.007 601.32 362.007 601.32 362.007 601.32C362.007 601.32 362.007 601.32 362.007 601.32C362.007 601.32 362.007 601.32 362 602.32Z" fill="#FF0000"/>
</g>
<defs>
<filter id="filter0_d_513_215" x="265.518" y="576.053" width="192.982" height="79.7917" filterUnits="userSpaceOnUse" color-interpolation-filters="sRGB">
<feFlood flood-opacity="0" result="BackgroundImageFix"/>
<feColorMatrix in="SourceAlpha" type="matrix" values="0 0 0 0 0 0 0 0 0 0 0 0 0 0 0 0 0 0 127 0" result="hardAlpha"/>
<feOffset/>
<feGaussianBlur stdDeviation="11"/>
<feComposite in2="hardAlpha" operator="out"/>
<feColorMatrix type="matrix" values="0 0 0 0 1 0 0 0 0 0 0 0 0 0 0 0 0 0 1 0"/>
<feBlend mode="normal" in2="BackgroundImageFix" result="effect1_dropShadow_513_215"/>
<feBlend mode="normal" in="SourceGraphic" in2="effect1_dropShadow_513_215" result="shape"/>
</filter>
</defs>
</svg>
