<svg width="722" height="722" viewBox="0 0 722 722" fill="none" xmlns="http://www.w3.org/2000/svg">
<g filter="url(#filter0_d_4_2264)">
<path d="M453.856 368.774C452.886 372.921 450.61 381.906 449.269 384.668L457.345 389.867C474.374 400.623 511.854 424.13 525.282 431.933C526.414 432.567 527.407 433.129 528.289 433.632C531.303 435.352 533.018 436.387 534.525 437.248C536.472 438.362 537.184 437.859 541.273 430.796C545.648 423.237 544.088 418.702 540.995 416.526C525.698 405.767 502.439 389.952 456.843 359.13C456.69 360.216 456.269 362.317 455.539 364.6C455.095 365.987 454.537 367.441 453.856 368.774Z" fill="#FF0000" fill-opacity="0.4" shape-rendering="crispEdges"/>
<path d="M453.856 368.774C452.886 372.921 450.61 381.906 449.269 384.668L457.345 389.867M453.856 368.774C454.537 367.441 455.095 365.987 455.539 364.6M453.856 368.774C456.536 370.53 459.859 372.719 463.567 375.176M457.345 389.867C474.374 400.623 511.854 424.13 525.282 431.933M457.345 389.867C458.353 387.885 460.135 384.167 463.567 375.176M525.282 431.933C525.421 431.623 525.72 430.928 527.15 426.767C529.003 420.897 526.782 419.659 510.956 407.738C500.763 400.059 478.886 385.33 463.567 375.176M525.282 431.933C526.414 432.567 527.407 433.129 528.289 433.632M455.539 364.6C456.269 362.317 456.69 360.216 456.843 359.13C502.439 389.952 525.698 405.767 540.995 416.526C544.088 418.702 545.648 423.237 541.273 430.796C537.184 437.859 536.472 438.362 534.525 437.248C533.018 436.387 531.303 435.352 528.289 433.632M455.539 364.6C498.438 392.773 509.3 399.6 523.915 413.564C533.361 422.589 531.93 422.15 528.289 433.632" stroke="#FF0000" stroke-width="2" shape-rendering="crispEdges"/>
</g>
<defs>
<filter id="filter0_d_4_2264" x="417.982" y="327.405" width="156.994" height="141.299" filterUnits="userSpaceOnUse" color-interpolation-filters="sRGB">
<feFlood flood-opacity="0" result="BackgroundImageFix"/>
<feColorMatrix in="SourceAlpha" type="matrix" values="0 0 0 0 0 0 0 0 0 0 0 0 0 0 0 0 0 0 127 0" result="hardAlpha"/>
<feOffset/>
<feGaussianBlur stdDeviation="15"/>
<feComposite in2="hardAlpha" operator="out"/>
<feColorMatrix type="matrix" values="0 0 0 0 1 0 0 0 0 0 0 0 0 0 0 0 0 0 1 0"/>
<feBlend mode="normal" in2="BackgroundImageFix" result="effect1_dropShadow_4_2264"/>
<feBlend mode="normal" in="SourceGraphic" in2="effect1_dropShadow_4_2264" result="shape"/>
</filter>
</defs>
</svg>
