<svg width="722" height="722" viewBox="0 0 722 722" fill="none" xmlns="http://www.w3.org/2000/svg">
<g filter="url(#filter0_d_113_812)">
<path d="M284.535 342.645C284.561 328.878 284.578 310.893 284.518 309.569C284.467 308.445 279.097 281.552 273.929 255.897L267.188 251.289C266.842 276.665 266.371 313.682 266.164 333.09C266.767 333.644 279.985 340.98 284.535 342.645Z" fill="#FF0000" fill-opacity="0.4" shape-rendering="crispEdges"/>
<path d="M284.535 342.645C284.561 328.878 284.578 310.893 284.518 309.569C284.467 308.445 279.097 281.552 273.929 255.897L267.188 251.289C266.842 276.665 266.371 313.682 266.164 333.09C266.767 333.644 279.985 340.98 284.535 342.645Z" stroke="#FF0000" stroke-width="2" stroke-linecap="round" stroke-linejoin="round" shape-rendering="crispEdges"/>
</g>
<g filter="url(#filter1_d_113_812)">
<path d="M438.287 342.645C438.262 328.878 438.244 310.893 438.305 309.569C438.356 308.445 443.726 281.552 448.893 255.897L455.635 251.289C455.98 276.665 456.452 313.682 456.658 333.09C456.055 333.644 442.837 340.98 438.287 342.645Z" fill="#FF0000" fill-opacity="0.4" shape-rendering="crispEdges"/>
<path d="M438.287 342.645C438.262 328.878 438.244 310.893 438.305 309.569C438.356 308.445 443.726 281.552 448.893 255.897L455.635 251.289C455.98 276.665 456.452 313.682 456.658 333.09C456.055 333.644 442.837 340.98 438.287 342.645Z" stroke="#FF0000" stroke-width="2" stroke-linecap="round" stroke-linejoin="round" shape-rendering="crispEdges"/>
</g>
<g filter="url(#filter2_d_113_812)">
<path d="M281.704 439.359C282.411 423.844 282.934 379.605 283.108 359.465C280.896 359.239 276.805 358.725 267.388 356.744C267.633 375.121 268.175 401.489 269.114 414.217C270.572 433.976 270.41 436.514 276.349 438.134C280.622 439.183 281.368 439.308 281.704 439.359Z" fill="#FF0000" fill-opacity="0.4" shape-rendering="crispEdges"/>
<path d="M281.704 439.359C282.411 423.844 282.934 379.605 283.108 359.465C280.896 359.239 276.805 358.725 267.388 356.744C267.633 375.121 268.175 401.489 269.114 414.217C270.572 433.976 270.41 436.514 276.349 438.134C280.622 439.183 281.368 439.308 281.704 439.359Z" stroke="#FF0000" stroke-width="2" shape-rendering="crispEdges"/>
</g>
<g filter="url(#filter3_d_113_812)">
<path d="M442.742 439.359C442.035 423.844 441.512 379.605 441.338 359.465C443.55 359.239 447.641 358.725 457.058 356.744C456.813 375.121 456.271 401.489 455.332 414.217C453.874 433.976 454.036 436.514 448.097 438.134C443.824 439.183 443.078 439.308 442.742 439.359Z" fill="#FF0000" fill-opacity="0.4" shape-rendering="crispEdges"/>
<path d="M442.742 439.359C442.035 423.844 441.512 379.605 441.338 359.465C443.55 359.239 447.641 358.725 457.058 356.744C456.813 375.121 456.271 401.489 455.332 414.217C453.874 433.976 454.036 436.514 448.097 438.134C443.824 439.183 443.078 439.308 442.742 439.359Z" stroke="#FF0000" stroke-width="2" shape-rendering="crispEdges"/>
</g>
<defs>
<filter id="filter0_d_113_812" x="235.164" y="220.289" width="80.3944" height="153.356" filterUnits="userSpaceOnUse" color-interpolation-filters="sRGB">
<feFlood flood-opacity="0" result="BackgroundImageFix"/>
<feColorMatrix in="SourceAlpha" type="matrix" values="0 0 0 0 0 0 0 0 0 0 0 0 0 0 0 0 0 0 127 0" result="hardAlpha"/>
<feOffset/>
<feGaussianBlur stdDeviation="15"/>
<feComposite in2="hardAlpha" operator="out"/>
<feColorMatrix type="matrix" values="0 0 0 0 1 0 0 0 0 0 0 0 0 0 0 0 0 0 1 0"/>
<feBlend mode="normal" in2="BackgroundImageFix" result="effect1_dropShadow_113_812"/>
<feBlend mode="normal" in="SourceGraphic" in2="effect1_dropShadow_113_812" result="shape"/>
</filter>
<filter id="filter1_d_113_812" x="407.264" y="220.289" width="80.3944" height="153.356" filterUnits="userSpaceOnUse" color-interpolation-filters="sRGB">
<feFlood flood-opacity="0" result="BackgroundImageFix"/>
<feColorMatrix in="SourceAlpha" type="matrix" values="0 0 0 0 0 0 0 0 0 0 0 0 0 0 0 0 0 0 127 0" result="hardAlpha"/>
<feOffset/>
<feGaussianBlur stdDeviation="15"/>
<feComposite in2="hardAlpha" operator="out"/>
<feColorMatrix type="matrix" values="0 0 0 0 1 0 0 0 0 0 0 0 0 0 0 0 0 0 1 0"/>
<feBlend mode="normal" in2="BackgroundImageFix" result="effect1_dropShadow_113_812"/>
<feBlend mode="normal" in="SourceGraphic" in2="effect1_dropShadow_113_812" result="shape"/>
</filter>
<filter id="filter2_d_113_812" x="236.371" y="325.509" width="77.7448" height="145.005" filterUnits="userSpaceOnUse" color-interpolation-filters="sRGB">
<feFlood flood-opacity="0" result="BackgroundImageFix"/>
<feColorMatrix in="SourceAlpha" type="matrix" values="0 0 0 0 0 0 0 0 0 0 0 0 0 0 0 0 0 0 127 0" result="hardAlpha"/>
<feOffset/>
<feGaussianBlur stdDeviation="15"/>
<feComposite in2="hardAlpha" operator="out"/>
<feColorMatrix type="matrix" values="0 0 0 0 1 0 0 0 0 0 0 0 0 0 0 0 0 0 1 0"/>
<feBlend mode="normal" in2="BackgroundImageFix" result="effect1_dropShadow_113_812"/>
<feBlend mode="normal" in="SourceGraphic" in2="effect1_dropShadow_113_812" result="shape"/>
</filter>
<filter id="filter3_d_113_812" x="410.33" y="325.509" width="77.7448" height="145.005" filterUnits="userSpaceOnUse" color-interpolation-filters="sRGB">
<feFlood flood-opacity="0" result="BackgroundImageFix"/>
<feColorMatrix in="SourceAlpha" type="matrix" values="0 0 0 0 0 0 0 0 0 0 0 0 0 0 0 0 0 0 127 0" result="hardAlpha"/>
<feOffset/>
<feGaussianBlur stdDeviation="15"/>
<feComposite in2="hardAlpha" operator="out"/>
<feColorMatrix type="matrix" values="0 0 0 0 1 0 0 0 0 0 0 0 0 0 0 0 0 0 1 0"/>
<feBlend mode="normal" in2="BackgroundImageFix" result="effect1_dropShadow_113_812"/>
<feBlend mode="normal" in="SourceGraphic" in2="effect1_dropShadow_113_812" result="shape"/>
</filter>
</defs>
</svg>
