<svg width="722" height="722" viewBox="0 0 722 722" fill="none" xmlns="http://www.w3.org/2000/svg">
<g filter="url(#filter0_d_2_628)">
<path fill-rule="evenodd" clip-rule="evenodd" d="M429.653 72.511C417.029 68.5136 388.985 63.6121 361.343 63.6121C333.699 63.6121 305.667 68.5148 293.035 72.5253C285.981 74.8536 281.404 78.5776 276.022 82.9557C275.543 83.3454 275.057 83.7404 274.563 84.14C274.256 84.3883 273.957 84.63 273.665 84.8659L273.665 84.8659C270.902 87.0966 268.796 88.7966 267.166 90.4234L264.684 190.078C264.62 198.262 266.305 200.722 269.608 205.542L269.609 205.543C270.276 206.516 271.009 207.586 271.806 208.818C272.244 208.272 272.725 207.724 273.254 207.169C277.619 202.594 287.672 192.715 301.777 189.077C315.882 185.439 329.418 184.041 361.343 184.041C393.267 184.041 406.803 185.433 420.908 189.071C435.012 192.709 445.066 202.586 449.432 207.162C449.989 207.746 450.492 208.323 450.947 208.897C450.954 208.897 450.961 208.897 450.968 208.897C451.785 207.631 452.535 206.536 453.217 205.542C456.519 200.722 458.204 198.262 458.14 190.078L455.662 90.5564C454.005 88.8749 451.844 87.1295 448.974 84.8106L448.964 84.8028L448.56 84.4765L448.126 84.1256C447.644 83.7354 447.17 83.3497 446.702 82.9689L446.7 82.9675C441.303 78.5771 436.714 74.844 429.653 72.511Z" fill="#FF0000" fill-opacity="0.4" shape-rendering="crispEdges"/>
<path d="M429.653 72.511L429.966 71.5614L429.954 71.5576L429.653 72.511ZM293.035 72.5253L292.733 71.5722L292.722 71.5757L293.035 72.5253ZM276.022 82.9557L276.653 83.7314H276.653L276.022 82.9557ZM274.563 84.14L273.934 83.3624L273.934 83.3624L274.563 84.14ZM273.665 84.8659L273.036 84.0878L273.025 84.0971L273.014 84.1066L273.665 84.8659ZM273.665 84.8659L274.293 85.6439L274.304 85.6347L274.315 85.6252L273.665 84.8659ZM267.166 90.4234L266.46 89.7155L266.176 89.9983L266.166 90.3985L267.166 90.4234ZM264.684 190.078L263.685 190.053L263.684 190.061L263.684 190.07L264.684 190.078ZM269.608 205.542L270.435 204.98L270.433 204.977L269.608 205.542ZM269.609 205.543L268.782 206.105L268.784 206.108L269.609 205.543ZM271.806 208.818L270.967 209.362L271.72 210.526L272.587 209.444L271.806 208.818ZM273.254 207.169L273.978 207.859H273.978L273.254 207.169ZM301.777 189.077L301.527 188.109L301.777 189.077ZM361.343 184.041V183.041V184.041ZM420.908 189.071L420.658 190.039L420.908 189.071ZM449.432 207.162L450.155 206.472H450.155L449.432 207.162ZM450.947 208.897L450.164 209.518L450.461 209.894L450.941 209.897L450.947 208.897ZM450.968 208.897L450.959 209.897L451.509 209.902L451.808 209.44L450.968 208.897ZM453.217 205.542L452.392 204.977L453.217 205.542ZM458.14 190.078L459.14 190.07L459.14 190.061L459.14 190.053L458.14 190.078ZM455.662 90.5564L456.662 90.5315L456.652 90.1362L456.374 89.8545L455.662 90.5564ZM448.974 84.8106L449.602 84.0327L449.602 84.0322L448.974 84.8106ZM448.964 84.8028L448.336 85.5807L448.336 85.5812L448.964 84.8028ZM448.56 84.4765L447.932 85.2541L447.932 85.2543L448.56 84.4765ZM448.126 84.1256L447.497 84.9031L447.498 84.9033L448.126 84.1256ZM446.702 82.9689L447.333 82.1932L447.33 82.1909L446.702 82.9689ZM446.7 82.9675L446.069 83.7433L446.072 83.7456L446.7 82.9675ZM361.343 64.6121C388.898 64.6121 416.839 69.5022 429.351 73.4643L429.954 71.5576C417.22 67.525 389.072 62.6121 361.343 62.6121V64.6121ZM293.338 73.4784C305.857 69.5034 333.786 64.6121 361.343 64.6121V62.6121C333.612 62.6121 305.476 67.5262 292.733 71.5722L293.338 73.4784ZM276.653 83.7314C282.042 79.3476 286.49 75.7387 293.349 73.4749L292.722 71.5757C285.472 73.9686 280.766 77.8075 275.391 82.1799L276.653 83.7314ZM275.192 84.9176C275.687 84.5169 276.174 84.121 276.653 83.7314L275.391 82.1799C274.912 82.5698 274.427 82.9639 273.934 83.3624L275.192 84.9176ZM274.293 85.6439C274.585 85.4081 274.885 85.1661 275.192 84.9176L273.934 83.3624C273.628 83.6104 273.328 83.852 273.036 84.0878L274.293 85.6439ZM274.315 85.6252L274.315 85.6251L273.014 84.1066L273.014 84.1066L274.315 85.6252ZM267.872 91.1313C269.457 89.5499 271.516 87.8864 274.293 85.6439L273.036 84.0879C270.288 86.3068 268.136 88.0434 266.46 89.7155L267.872 91.1313ZM265.684 190.103L268.166 90.4483L266.166 90.3985L263.685 190.053L265.684 190.103ZM270.433 204.977C268.768 202.547 267.598 200.829 266.822 198.725C266.053 196.639 265.653 194.11 265.684 190.086L263.684 190.07C263.652 194.229 264.062 197.022 264.945 199.417C265.822 201.795 267.145 203.717 268.783 206.107L270.433 204.977ZM270.436 204.981L270.435 204.98L268.781 206.104L268.782 206.105L270.436 204.981ZM272.646 208.275C271.84 207.03 271.1 205.951 270.434 204.978L268.784 206.108C269.451 207.082 270.177 208.142 270.967 209.362L272.646 208.275ZM272.531 206.478C271.983 207.053 271.482 207.623 271.026 208.193L272.587 209.444C273.005 208.922 273.467 208.395 273.978 207.859L272.531 206.478ZM301.527 188.109C287.134 191.822 276.916 201.882 272.531 206.478L273.978 207.859C278.322 203.306 288.21 193.609 302.027 190.046L301.527 188.109ZM361.343 183.041C329.394 183.041 315.756 184.439 301.527 188.109L302.027 190.046C316.008 186.439 329.443 185.041 361.343 185.041V183.041ZM421.157 188.102C406.928 184.432 393.292 183.041 361.343 183.041V185.041C393.243 185.041 406.677 186.433 420.658 190.039L421.157 188.102ZM450.155 206.472C445.768 201.874 435.551 191.815 421.157 188.102L420.658 190.039C434.474 193.603 444.363 203.298 448.708 207.853L450.155 206.472ZM451.731 208.276C451.255 207.676 450.732 207.076 450.155 206.472L448.708 207.853C449.246 208.416 449.729 208.97 450.164 209.518L451.731 208.276ZM450.941 209.897C450.947 209.897 450.953 209.897 450.959 209.897L450.977 207.897C450.969 207.897 450.961 207.897 450.954 207.897L450.941 209.897ZM451.808 209.44C452.617 208.186 453.36 207.102 454.042 206.107L452.392 204.977C451.711 205.97 450.954 207.076 450.128 208.355L451.808 209.44ZM454.042 206.107C455.679 203.717 457.003 201.795 457.879 199.417C458.762 197.022 459.173 194.229 459.14 190.07L457.141 190.086C457.172 194.11 456.772 196.639 456.003 198.725C455.227 200.829 454.056 202.547 452.392 204.977L454.042 206.107ZM459.14 190.053L456.662 90.5315L454.662 90.5813L457.141 190.103L459.14 190.053ZM448.345 85.5885C451.232 87.9202 453.342 89.6262 454.95 91.2582L456.374 89.8545C454.669 88.1237 452.457 86.3387 449.602 84.0327L448.345 85.5885ZM448.336 85.5812L448.346 85.5889L449.602 84.0322L449.592 84.0245L448.336 85.5812ZM447.932 85.2543L448.336 85.5807L449.593 84.025L449.189 83.6986L447.932 85.2543ZM447.498 84.9033L447.932 85.2541L449.189 83.6988L448.755 83.3479L447.498 84.9033ZM446.071 83.7446C446.538 84.1253 447.014 84.5119 447.497 84.9031L448.755 83.3481C448.274 82.9589 447.801 82.5741 447.333 82.1932L446.071 83.7446ZM446.072 83.7456L446.073 83.747L447.33 82.1909L447.328 82.1895L446.072 83.7456ZM429.339 73.4605C436.204 75.7289 440.665 79.347 446.069 83.7433L447.331 82.1918C441.941 77.8072 437.223 73.9591 429.966 71.5615L429.339 73.4605Z" fill="#FF0000"/>
</g>
<defs>
<filter id="filter0_d_2_628" x="241.682" y="40.6121" width="239.46" height="191.914" filterUnits="userSpaceOnUse" color-interpolation-filters="sRGB">
<feFlood flood-opacity="0" result="BackgroundImageFix"/>
<feColorMatrix in="SourceAlpha" type="matrix" values="0 0 0 0 0 0 0 0 0 0 0 0 0 0 0 0 0 0 127 0" result="hardAlpha"/>
<feOffset/>
<feGaussianBlur stdDeviation="11"/>
<feComposite in2="hardAlpha" operator="out"/>
<feColorMatrix type="matrix" values="0 0 0 0 1 0 0 0 0 0 0 0 0 0 0 0 0 0 1 0"/>
<feBlend mode="normal" in2="BackgroundImageFix" result="effect1_dropShadow_2_628"/>
<feBlend mode="normal" in="SourceGraphic" in2="effect1_dropShadow_2_628" result="shape"/>
</filter>
</defs>
</svg>
