<svg width="722" height="722" viewBox="0 0 722 722" fill="none" xmlns="http://www.w3.org/2000/svg">
<g filter="url(#filter0_d_4_1446)">
<path d="M556.546 301.025C557.382 299.725 558.252 297.627 558.582 296.741C560.224 292.411 559.312 294.679 560.198 291.823C556.224 288.941 502.298 250.573 493.537 244.17C504.767 236.552 507.668 234.873 508 233.779C508.333 232.684 503.714 227.319 498.914 226.765C494.947 226.105 481.726 230.727 477.277 232.892C474.592 231.052 468.499 226.334 462.615 221.985C459.452 224.155 457.429 226.958 456.761 232.133C462.749 238.512 470.625 246.892 478.681 255.451C496.618 274.506 515.449 294.443 516.336 295.135C517.381 295.95 532.062 306.34 543.306 314.283C545.884 316.104 548.281 317.796 550.292 319.215C552.209 314.261 556.145 303.688 556.546 301.025Z" fill="#FF0000" fill-opacity="0.4"/>
<path d="M488.284 246.542C515.552 265.637 539.951 283.111 558.582 296.741M558.582 296.741C558.252 297.627 557.382 299.725 556.546 301.025M558.582 296.741C560.224 292.411 559.312 294.679 560.198 291.823C556.224 288.941 502.298 250.573 493.537 244.17C504.767 236.552 507.668 234.873 508 233.779C508.333 232.684 503.714 227.319 498.914 226.765C494.947 226.105 481.726 230.727 477.277 232.892C474.592 231.052 468.499 226.334 462.615 221.985C459.452 224.155 457.429 226.958 456.761 232.133M556.546 301.025C556.145 303.688 552.209 314.261 550.292 319.215C548.281 317.796 545.884 316.104 543.306 314.283M556.546 301.025C555.596 300.339 551.774 297.676 546.139 293.77M456.761 232.133C457.41 232.55 466.435 238.754 478.822 247.286M456.761 232.133C462.749 238.512 470.625 246.892 478.681 255.451M546.139 293.77C546.242 294.583 544.581 309.609 543.306 314.283M546.139 293.77C530.189 282.712 499.721 261.683 478.822 247.286M543.306 314.283C532.062 306.34 517.381 295.95 516.336 295.135C515.449 294.443 496.618 274.506 478.681 255.451M478.822 247.286L478.681 255.451" stroke="#FF0000" stroke-width="2" stroke-linecap="round" stroke-linejoin="round"/>
<path d="M484.491 229.999C484.491 229.999 477.069 232.674 475.047 236.571C474.124 238.348 476.647 239.561 478.123 240.608C479.6 241.656 484.418 244.53 484.418 244.53" stroke="#FF0000" stroke-width="2" stroke-linecap="round" stroke-linejoin="round"/>
<path d="M473.144 243.079C474.386 243.039 477.731 243.327 479.826 243.094C481.83 242.872 484.027 244.265 486.514 245.782C489 247.298 489.95 246.412 491.646 245.389C493.343 244.365 506.221 235.676 507.327 234.569C508.432 233.462 508.198 232.313 505.045 229.912C501.892 227.511 500.25 226.511 494.876 227.137C490.229 227.675 480.5 231.428 475.267 233.318C473.923 233.804 472.486 233.965 471.074 233.786L457.04 232.086" stroke="#FF0000" stroke-width="2" stroke-linecap="round" stroke-linejoin="round"/>
</g>
<defs>
<filter id="filter0_d_4_1446" x="425.76" y="190.985" width="165.437" height="159.23" filterUnits="userSpaceOnUse" color-interpolation-filters="sRGB">
<feFlood flood-opacity="0" result="BackgroundImageFix"/>
<feColorMatrix in="SourceAlpha" type="matrix" values="0 0 0 0 0 0 0 0 0 0 0 0 0 0 0 0 0 0 127 0" result="hardAlpha"/>
<feOffset/>
<feGaussianBlur stdDeviation="15"/>
<feComposite in2="hardAlpha" operator="out"/>
<feColorMatrix type="matrix" values="0 0 0 0 1 0 0 0 0 0 0 0 0 0 0 0 0 0 1 0"/>
<feBlend mode="normal" in2="BackgroundImageFix" result="effect1_dropShadow_4_1446"/>
<feBlend mode="normal" in="SourceGraphic" in2="effect1_dropShadow_4_1446" result="shape"/>
</filter>
</defs>
</svg>
