<svg width="722" height="722" viewBox="0 0 722 722" fill="none" xmlns="http://www.w3.org/2000/svg">
<g filter="url(#filter0_d_4_1855)">
<path d="M260.997 354.955C261.966 359.102 264.242 368.087 265.583 370.849L257.507 376.048C240.478 386.803 202.998 410.31 189.57 418.114C188.438 418.747 187.445 419.309 186.563 419.812C183.549 421.532 181.834 422.568 180.327 423.429C178.38 424.542 177.668 424.04 173.58 416.977C169.204 409.418 170.764 404.882 173.857 402.707C189.154 391.947 212.414 376.132 258.009 345.311C258.162 346.396 258.583 348.498 259.313 350.78C259.757 352.167 260.315 353.621 260.997 354.955Z" fill="#FF0000" fill-opacity="0.4" shape-rendering="crispEdges"/>
<path d="M260.997 354.955C261.966 359.102 264.242 368.087 265.583 370.849L257.507 376.048M260.997 354.955C260.315 353.621 259.757 352.167 259.313 350.78M260.997 354.955C258.316 356.711 254.993 358.9 251.286 361.357M257.507 376.048C240.478 386.803 202.998 410.31 189.57 418.114M257.507 376.048C256.499 374.065 254.717 370.347 251.286 361.357M189.57 418.114C189.431 417.804 189.132 417.109 187.702 412.947C185.849 407.077 188.07 405.84 203.896 393.918C214.089 386.239 235.966 371.51 251.286 361.357M189.57 418.114C188.438 418.747 187.445 419.309 186.563 419.812M259.313 350.78C258.583 348.498 258.162 346.396 258.009 345.311C212.414 376.132 189.154 391.947 173.857 402.707C170.764 404.882 169.204 409.418 173.58 416.977C177.668 424.04 178.38 424.542 180.327 423.429C181.834 422.568 183.549 421.532 186.563 419.812M259.313 350.78C216.414 378.954 205.552 385.78 190.937 399.744C181.491 408.769 182.922 408.33 186.563 419.812" stroke="#FF0000" stroke-width="2" shape-rendering="crispEdges"/>
</g>
<defs>
<filter id="filter0_d_4_1855" x="139.876" y="313.585" width="156.994" height="141.299" filterUnits="userSpaceOnUse" color-interpolation-filters="sRGB">
<feFlood flood-opacity="0" result="BackgroundImageFix"/>
<feColorMatrix in="SourceAlpha" type="matrix" values="0 0 0 0 0 0 0 0 0 0 0 0 0 0 0 0 0 0 127 0" result="hardAlpha"/>
<feOffset/>
<feGaussianBlur stdDeviation="15"/>
<feComposite in2="hardAlpha" operator="out"/>
<feColorMatrix type="matrix" values="0 0 0 0 1 0 0 0 0 0 0 0 0 0 0 0 0 0 1 0"/>
<feBlend mode="normal" in2="BackgroundImageFix" result="effect1_dropShadow_4_1855"/>
<feBlend mode="normal" in="SourceGraphic" in2="effect1_dropShadow_4_1855" result="shape"/>
</filter>
</defs>
</svg>
