<svg width="722" height="722" viewBox="0 0 722 722" fill="none" xmlns="http://www.w3.org/2000/svg">
<g filter="url(#filter0_d_112_3570)">
<path d="M259.19 448.821L256.725 467.928C258.261 469.309 261.353 472.287 261.439 473.155C261.524 474.022 260.171 483.615 259.484 488.303L254.953 486.401C254.859 489.079 254.377 494.595 253.203 495.234C251.734 496.032 231.519 494.413 229.228 494.941C227.394 495.363 222.101 499.85 219.684 502.041L204.401 476.16L207.61 451.285C222.287 455.133 238.495 446.151 259.19 448.821Z" fill="#FF0000" fill-opacity="0.4" shape-rendering="crispEdges"/>
<path d="M256.725 467.928L259.19 448.821C238.495 446.151 222.287 455.133 207.61 451.285L204.401 476.16L219.684 502.041C222.101 499.85 227.394 495.363 229.228 494.941C231.519 494.413 251.734 496.032 253.203 495.234C254.377 494.595 254.859 489.079 254.953 486.401M256.725 467.928C258.261 469.309 261.353 472.287 261.439 473.155C261.524 474.022 260.171 483.615 259.484 488.303L254.953 486.401M256.725 467.928C257.035 465.529 257.326 460.251 256.013 458.335C254.372 455.939 250.772 453.52 248.077 452.138C245.381 450.756 228.301 453.955 224.242 454.236C220.182 454.517 215.153 456.971 213.643 459.765C212.133 462.559 211.334 471.422 211.083 474.263C210.831 477.104 214.023 481.769 215.295 482.602C216.312 483.268 225.866 488.571 230.516 491.139L249.854 492.714L253.905 489.788M256.725 467.928L254.953 486.401M252.005 484.945C251.589 487.284 248.063 487.885 244.288 487.743C240.513 487.601 224.439 482.998 220.799 480.919C217.159 478.84 216.38 471.516 216.984 469.507C217.467 467.899 219.865 468.263 221.003 468.646L222.389 457.905C229.222 457.215 243.429 455.906 245.6 456.187C248.314 456.537 252.836 460.683 253.719 462.751C254.425 464.406 252.871 478.237 252.005 484.945Z" stroke="#FF0000" stroke-width="2" shape-rendering="crispEdges"/>
</g>
<g filter="url(#filter1_d_112_3570)">
<path d="M464.886 448.821L467.351 467.928C465.816 469.309 462.723 472.287 462.638 473.155C462.552 474.022 463.905 483.615 464.592 488.303L469.123 486.401C469.217 489.079 469.699 494.595 470.874 495.234C472.342 496.032 492.557 494.413 494.849 494.941C496.682 495.363 501.975 499.85 504.393 502.041L519.675 476.16L516.466 451.285C501.79 455.133 485.581 446.151 464.886 448.821Z" fill="#FF0000" fill-opacity="0.4" shape-rendering="crispEdges"/>
<path d="M467.351 467.928L464.886 448.821C485.581 446.151 501.79 455.133 516.466 451.285L519.675 476.16L504.393 502.041C501.975 499.85 496.682 495.363 494.849 494.941C492.557 494.413 472.342 496.032 470.874 495.234C469.699 494.595 469.217 489.079 469.123 486.401M467.351 467.928C465.816 469.309 462.723 472.287 462.638 473.155C462.552 474.022 463.905 483.615 464.592 488.303L469.123 486.401M467.351 467.928C467.041 465.529 466.75 460.251 468.063 458.335C469.704 455.939 473.304 453.52 476 452.138C478.695 450.756 495.775 453.955 499.835 454.236C503.894 454.517 508.924 456.971 510.433 459.765C511.943 462.559 512.742 471.422 512.994 474.263C513.245 477.104 510.054 481.769 508.782 482.602C507.764 483.268 498.21 488.571 493.561 491.139L474.223 492.714L470.171 489.788M467.351 467.928L469.123 486.401M472.071 484.945C472.488 487.284 476.014 487.885 479.789 487.743C483.563 487.601 499.637 482.998 503.277 480.919C506.917 478.84 507.696 471.516 507.092 469.507C506.609 467.899 504.211 468.263 503.073 468.646L501.687 457.905C494.855 457.215 480.647 455.906 478.476 456.187C475.763 456.537 471.24 460.683 470.357 462.751C469.651 464.406 471.205 478.237 472.071 484.945Z" stroke="#FF0000" stroke-width="2" shape-rendering="crispEdges"/>
</g>
<defs>
<filter id="filter0_d_112_3570" x="173.365" y="417.317" width="119.077" height="116.288" filterUnits="userSpaceOnUse" color-interpolation-filters="sRGB">
<feFlood flood-opacity="0" result="BackgroundImageFix"/>
<feColorMatrix in="SourceAlpha" type="matrix" values="0 0 0 0 0 0 0 0 0 0 0 0 0 0 0 0 0 0 127 0" result="hardAlpha"/>
<feOffset/>
<feGaussianBlur stdDeviation="15"/>
<feComposite in2="hardAlpha" operator="out"/>
<feColorMatrix type="matrix" values="0 0 0 0 1 0 0 0 0 0 0 0 0 0 0 0 0 0 1 0"/>
<feBlend mode="normal" in2="BackgroundImageFix" result="effect1_dropShadow_112_3570"/>
<feBlend mode="normal" in="SourceGraphic" in2="effect1_dropShadow_112_3570" result="shape"/>
</filter>
<filter id="filter1_d_112_3570" x="431.634" y="417.317" width="119.077" height="116.288" filterUnits="userSpaceOnUse" color-interpolation-filters="sRGB">
<feFlood flood-opacity="0" result="BackgroundImageFix"/>
<feColorMatrix in="SourceAlpha" type="matrix" values="0 0 0 0 0 0 0 0 0 0 0 0 0 0 0 0 0 0 127 0" result="hardAlpha"/>
<feOffset/>
<feGaussianBlur stdDeviation="15"/>
<feComposite in2="hardAlpha" operator="out"/>
<feColorMatrix type="matrix" values="0 0 0 0 1 0 0 0 0 0 0 0 0 0 0 0 0 0 1 0"/>
<feBlend mode="normal" in2="BackgroundImageFix" result="effect1_dropShadow_112_3570"/>
<feBlend mode="normal" in="SourceGraphic" in2="effect1_dropShadow_112_3570" result="shape"/>
</filter>
</defs>
</svg>
