<svg width="722" height="722" viewBox="0 0 722 722" fill="none" xmlns="http://www.w3.org/2000/svg">
<g filter="url(#filter0_d_4_3082)">
<path d="M361.342 63.6136C388.985 63.6136 417.029 68.5151 429.652 72.5124C437.327 75.0481 442.081 79.2375 448.126 84.1271C454.171 89.0167 457.271 91.3943 459.095 95.3904C460.919 99.3865 468.423 113.187 468.605 126.443C468.787 139.7 469.895 178.914 469.895 184.371C469.895 196.128 466.721 217.186 466.605 239.759C468.393 240.978 470.533 242.452 472.658 243.972C472.707 244.009 472.767 244.046 472.828 244.094C475.899 246.158 478.773 248.498 481.414 251.084C485.026 255.117 485.172 257.036 485.026 260.995C484.88 264.955 484.089 265.813 482.557 265.548C481.28 265.33 471.138 261.552 466.626 259.8L466.626 260.138C466.626 260.138 466.48 323.982 466.406 332.736C466.332 341.489 465.471 399.09 465.178 408.048C464.886 417.005 464.607 426.629 464.461 429.853C464.315 433.077 463.598 447.358 464.169 453.456C464.74 459.554 466.772 472.543 467.635 477.276C469.532 485.944 470.454 494.794 470.384 503.664L470.384 560.024C470.507 568.411 469.609 576.782 467.708 584.955C465.763 593.129 458.831 618.024 457.237 624.761C455.958 630.361 454.317 635.874 452.324 641.265C451.242 643.776 445.38 648.654 440.831 650.006C436.282 651.358 408.75 658.831 361.352 658.831C313.954 658.831 286.424 651.369 281.865 650.006C277.305 648.642 271.469 643.776 270.384 641.265C268.379 635.878 266.738 630.364 265.47 624.761C263.869 618.025 256.937 593.125 254.976 584.951C253.082 576.778 252.184 568.409 252.302 560.024L252.302 503.678C252.238 494.809 253.16 485.959 255.051 477.29C255.914 472.557 257.946 459.567 258.517 453.47C259.088 447.374 258.371 433.103 258.225 429.867C258.079 426.632 257.8 417.033 257.508 408.062C257.216 399.091 256.352 341.503 256.28 332.75C256.218 325.493 256.109 280.315 256.06 259.814C251.548 261.566 241.419 265.344 240.138 265.562C238.595 265.824 237.792 264.971 237.658 261.01C237.524 257.049 237.658 255.131 241.282 251.099C243.922 248.513 246.796 246.173 249.868 244.108C249.946 244.047 250.027 243.991 250.111 243.938C252.202 242.441 254.322 240.993 256.083 239.786L256.083 239.774C255.96 217.196 252.793 196.142 252.793 184.385C252.793 178.928 253.888 139.715 254.071 126.458C254.254 113.201 261.757 99.4009 263.581 95.4048C265.404 91.4087 268.518 89.0298 274.563 84.1415C280.608 79.2532 285.353 75.0624 293.035 72.5268C305.666 68.5163 333.698 63.6136 361.342 63.6136Z" fill="#FF0000" fill-opacity="0.4" shape-rendering="crispEdges"/>
<path d="M361.342 63.6136C388.985 63.6136 417.029 68.5151 429.652 72.5124C437.327 75.0481 442.081 79.2375 448.126 84.1271C454.171 89.0167 457.271 91.3943 459.095 95.3904C460.919 99.3865 468.423 113.187 468.605 126.443C468.787 139.7 469.895 178.914 469.895 184.371C469.895 196.128 466.721 217.186 466.605 239.759C468.393 240.978 470.533 242.452 472.658 243.972C472.707 244.009 472.767 244.046 472.828 244.094C475.899 246.158 478.773 248.498 481.414 251.084C485.026 255.117 485.172 257.036 485.026 260.995C484.88 264.955 484.089 265.813 482.557 265.548C481.28 265.33 471.138 261.552 466.626 259.8L466.626 260.138C466.626 260.138 466.48 323.982 466.406 332.736C466.332 341.489 465.471 399.09 465.178 408.048C464.886 417.005 464.607 426.629 464.461 429.853C464.315 433.077 463.598 447.358 464.169 453.456C464.74 459.554 466.772 472.543 467.635 477.276C469.532 485.944 470.454 494.794 470.384 503.664L470.384 560.024C470.507 568.411 469.609 576.782 467.708 584.955C465.763 593.129 458.831 618.024 457.237 624.761C455.958 630.361 454.317 635.874 452.324 641.265C451.242 643.776 445.38 648.654 440.831 650.006C436.282 651.358 408.75 658.831 361.352 658.831C313.954 658.831 286.424 651.369 281.865 650.006C277.305 648.642 271.469 643.776 270.384 641.265C268.379 635.878 266.738 630.364 265.47 624.761C263.869 618.025 256.937 593.125 254.976 584.951C253.082 576.778 252.184 568.409 252.302 560.024L252.302 503.678C252.238 494.809 253.16 485.959 255.051 477.29C255.914 472.557 257.946 459.567 258.517 453.47C259.088 447.374 258.371 433.103 258.225 429.867C258.079 426.632 257.8 417.033 257.508 408.062C257.216 399.091 256.352 341.503 256.28 332.75C256.218 325.493 256.109 280.315 256.06 259.814C251.548 261.566 241.419 265.344 240.138 265.562C238.595 265.824 237.792 264.971 237.658 261.01C237.524 257.049 237.658 255.131 241.282 251.099C243.922 248.513 246.796 246.173 249.868 244.108C249.946 244.047 250.027 243.991 250.111 243.938C252.202 242.441 254.322 240.993 256.083 239.786L256.083 239.774C255.96 217.196 252.793 196.142 252.793 184.385C252.793 178.928 253.888 139.715 254.071 126.458C254.254 113.201 261.757 99.4009 263.581 95.4048C265.404 91.4087 268.518 89.0298 274.563 84.1415C280.608 79.2532 285.353 75.0624 293.035 72.5268C305.666 68.5163 333.698 63.6136 361.342 63.6136Z" stroke="#FF0000" stroke-width="2" stroke-miterlimit="3" shape-rendering="crispEdges"/>
</g>
<defs>
<filter id="filter0_d_4_3082" x="214.625" y="40.6136" width="293.436" height="641.218" filterUnits="userSpaceOnUse" color-interpolation-filters="sRGB">
<feFlood flood-opacity="0" result="BackgroundImageFix"/>
<feColorMatrix in="SourceAlpha" type="matrix" values="0 0 0 0 0 0 0 0 0 0 0 0 0 0 0 0 0 0 127 0" result="hardAlpha"/>
<feOffset/>
<feGaussianBlur stdDeviation="11"/>
<feComposite in2="hardAlpha" operator="out"/>
<feColorMatrix type="matrix" values="0 0 0 0 1 0 0 0 0 0 0 0 0 0 0 0 0 0 1 0"/>
<feBlend mode="normal" in2="BackgroundImageFix" result="effect1_dropShadow_4_3082"/>
<feBlend mode="normal" in="SourceGraphic" in2="effect1_dropShadow_4_3082" result="shape"/>
</filter>
</defs>
</svg>
