<svg width="722" height="722" viewBox="0 0 722 722" fill="none" xmlns="http://www.w3.org/2000/svg">
<path d="M361.343 63.6136C388.985 63.6136 417.029 68.5151 429.653 72.5124C437.327 75.0481 442.081 79.2375 448.126 84.1271C454.171 89.0167 457.271 91.3943 459.095 95.3904C460.919 99.3865 468.424 113.187 468.605 126.443C468.787 139.7 469.895 178.914 469.895 184.371C469.895 196.128 466.721 217.186 466.605 239.759C468.393 240.978 470.533 242.452 472.658 243.972C472.707 244.009 472.767 244.046 472.828 244.094C475.899 246.158 478.773 248.498 481.414 251.084C485.026 255.117 485.172 257.036 485.026 260.995C484.88 264.955 484.089 265.813 482.557 265.548C481.28 265.33 471.138 261.552 466.626 259.8L466.626 260.138C466.626 260.138 466.48 323.982 466.406 332.736C466.333 341.489 465.471 399.09 465.179 408.048C464.886 417.005 464.608 426.629 464.461 429.853C464.315 433.077 463.598 447.358 464.169 453.456C464.74 459.554 466.772 472.543 467.635 477.276C469.532 485.944 470.454 494.794 470.384 503.664L470.384 560.024C470.507 568.411 469.609 576.782 467.708 584.955C465.763 593.129 458.831 618.024 457.237 624.761C455.958 630.361 454.317 635.874 452.324 641.265C451.242 643.776 445.38 648.654 440.831 650.006C436.282 651.358 408.75 658.831 361.352 658.831C313.954 658.831 286.424 651.369 281.865 650.006C277.305 648.642 271.469 643.776 270.384 641.265C268.379 635.878 266.738 630.364 265.47 624.761C263.869 618.025 256.937 593.125 254.976 584.951C253.082 576.778 252.185 568.409 252.302 560.024L252.302 503.678C252.238 494.809 253.16 485.959 255.051 477.29C255.914 472.557 257.946 459.567 258.517 453.47C259.088 447.374 258.371 433.103 258.225 429.867C258.079 426.632 257.8 417.033 257.508 408.062C257.216 399.091 256.353 341.503 256.28 332.75C256.218 325.493 256.109 280.315 256.06 259.814C251.548 261.566 241.419 265.344 240.138 265.562C238.595 265.824 237.792 264.971 237.658 261.01C237.524 257.049 237.658 255.131 241.282 251.099C243.922 248.513 246.797 246.173 249.868 244.108C249.946 244.047 250.027 243.991 250.111 243.938C252.202 242.441 254.322 240.993 256.083 239.786L256.083 239.774C255.96 217.196 252.793 196.142 252.793 184.385C252.793 178.928 253.888 139.715 254.071 126.458C254.254 113.201 261.757 99.4009 263.581 95.4048C265.404 91.4087 268.518 89.0298 274.563 84.1415C280.608 79.2532 285.353 75.0624 293.035 72.5268C305.666 68.5163 333.699 63.6136 361.343 63.6136Z" fill="url(#paint0_linear_112_8817)"/>
<path d="M361.343 63.6136C388.985 63.6136 417.029 68.5151 429.653 72.5124C437.327 75.0481 442.081 79.2375 448.126 84.1271C454.171 89.0167 457.271 91.3943 459.095 95.3904C460.919 99.3865 468.424 113.187 468.605 126.443C468.787 139.7 469.895 178.914 469.895 184.371C469.895 196.128 466.721 217.186 466.605 239.759C468.393 240.978 470.533 242.452 472.658 243.972C472.707 244.009 472.767 244.046 472.828 244.094C475.899 246.158 478.773 248.498 481.414 251.084C485.026 255.117 485.172 257.036 485.026 260.995C484.88 264.955 484.089 265.813 482.557 265.548C481.28 265.33 471.138 261.552 466.626 259.8L466.626 260.138C466.626 260.138 466.48 323.982 466.406 332.736C466.333 341.489 465.471 399.09 465.179 408.048C464.886 417.005 464.608 426.629 464.461 429.853C464.315 433.077 463.598 447.358 464.169 453.456C464.74 459.554 466.772 472.543 467.635 477.276C469.532 485.944 470.454 494.794 470.384 503.664L470.384 560.024C470.507 568.411 469.609 576.782 467.708 584.955C465.763 593.129 458.831 618.024 457.237 624.761C455.958 630.361 454.317 635.874 452.324 641.265C451.242 643.776 445.38 648.654 440.831 650.006C436.282 651.358 408.75 658.831 361.352 658.831C313.954 658.831 286.424 651.369 281.865 650.006C277.305 648.642 271.469 643.776 270.384 641.265C268.379 635.878 266.738 630.364 265.47 624.761C263.869 618.025 256.937 593.125 254.976 584.951C253.082 576.778 252.185 568.409 252.302 560.024L252.302 503.678C252.238 494.809 253.16 485.959 255.051 477.29C255.914 472.557 257.946 459.567 258.517 453.47C259.088 447.374 258.371 433.103 258.225 429.867C258.079 426.632 257.8 417.033 257.508 408.062C257.216 399.091 256.353 341.503 256.28 332.75C256.218 325.493 256.109 280.315 256.06 259.814C251.548 261.566 241.419 265.344 240.138 265.562C238.595 265.824 237.792 264.971 237.658 261.01C237.524 257.049 237.658 255.131 241.282 251.099C243.922 248.513 246.797 246.173 249.868 244.108C249.946 244.047 250.027 243.991 250.111 243.938C252.202 242.441 254.322 240.993 256.083 239.786L256.083 239.774C255.96 217.196 252.793 196.142 252.793 184.385C252.793 178.928 253.888 139.715 254.071 126.458C254.254 113.201 261.757 99.4009 263.581 95.4048C265.404 91.4087 268.518 89.0298 274.563 84.1415C280.608 79.2532 285.353 75.0624 293.035 72.5268C305.666 68.5163 333.699 63.6136 361.343 63.6136Z" fill="url(#paint1_linear_112_8817)"/>
<path d="M361.343 63.6136C388.985 63.6136 417.029 68.5151 429.653 72.5124C437.327 75.0481 442.081 79.2375 448.126 84.1271C454.171 89.0167 457.271 91.3943 459.095 95.3904C460.919 99.3865 468.424 113.187 468.605 126.443C468.787 139.7 469.895 178.914 469.895 184.371C469.895 196.128 466.721 217.186 466.605 239.759C468.393 240.978 470.533 242.452 472.658 243.972C472.707 244.009 472.767 244.046 472.828 244.094C475.899 246.158 478.773 248.498 481.414 251.084C485.026 255.117 485.172 257.036 485.026 260.995C484.88 264.955 484.089 265.813 482.557 265.548C481.28 265.33 471.138 261.552 466.626 259.8L466.626 260.138C466.626 260.138 466.48 323.982 466.406 332.736C466.333 341.489 465.471 399.09 465.179 408.048C464.886 417.005 464.608 426.629 464.461 429.853C464.315 433.077 463.598 447.358 464.169 453.456C464.74 459.554 466.772 472.543 467.635 477.276C469.532 485.944 470.454 494.794 470.384 503.664L470.384 560.024C470.507 568.411 469.609 576.782 467.708 584.955C465.763 593.129 458.831 618.024 457.237 624.761C455.958 630.361 454.317 635.874 452.324 641.265C451.242 643.776 445.38 648.654 440.831 650.006C436.282 651.358 408.75 658.831 361.352 658.831C313.954 658.831 286.424 651.369 281.865 650.006C277.305 648.642 271.469 643.776 270.384 641.265C268.379 635.878 266.738 630.364 265.47 624.761C263.869 618.025 256.937 593.125 254.976 584.951C253.082 576.778 252.185 568.409 252.302 560.024L252.302 503.678C252.238 494.809 253.16 485.959 255.051 477.29C255.914 472.557 257.946 459.567 258.517 453.47C259.088 447.374 258.371 433.103 258.225 429.867C258.079 426.632 257.8 417.033 257.508 408.062C257.216 399.091 256.353 341.503 256.28 332.75C256.218 325.493 256.109 280.315 256.06 259.814C251.548 261.566 241.419 265.344 240.138 265.562C238.595 265.824 237.792 264.971 237.658 261.01C237.524 257.049 237.658 255.131 241.282 251.099C243.922 248.513 246.797 246.173 249.868 244.108C249.946 244.047 250.027 243.991 250.111 243.938C252.202 242.441 254.322 240.993 256.083 239.786L256.083 239.774C255.96 217.196 252.793 196.142 252.793 184.385C252.793 178.928 253.888 139.715 254.071 126.458C254.254 113.201 261.757 99.4009 263.581 95.4048C265.404 91.4087 268.518 89.0298 274.563 84.1415C280.608 79.2532 285.353 75.0624 293.035 72.5268C305.666 68.5163 333.699 63.6136 361.343 63.6136Z" fill="url(#paint2_linear_112_8817)"/>
<path d="M361.343 63.6136C388.985 63.6136 417.029 68.5151 429.653 72.5124C437.327 75.0481 442.081 79.2375 448.126 84.1271C454.171 89.0167 457.271 91.3943 459.095 95.3904C460.919 99.3865 468.424 113.187 468.605 126.443C468.787 139.7 469.895 178.914 469.895 184.371C469.895 196.128 466.721 217.186 466.605 239.759C468.393 240.978 470.533 242.452 472.658 243.972C472.707 244.009 472.767 244.046 472.828 244.094C475.899 246.158 478.773 248.498 481.414 251.084C485.026 255.117 485.172 257.036 485.026 260.995C484.88 264.955 484.089 265.813 482.557 265.548C481.28 265.33 471.138 261.552 466.626 259.8L466.626 260.138C466.626 260.138 466.48 323.982 466.406 332.736C466.333 341.489 465.471 399.09 465.179 408.048C464.886 417.005 464.608 426.629 464.461 429.853C464.315 433.077 463.598 447.358 464.169 453.456C464.74 459.554 466.772 472.543 467.635 477.276C469.532 485.944 470.454 494.794 470.384 503.664L470.384 560.024C470.507 568.411 469.609 576.782 467.708 584.955C465.763 593.129 458.831 618.024 457.237 624.761C455.958 630.361 454.317 635.874 452.324 641.265C451.242 643.776 445.38 648.654 440.831 650.006C436.282 651.358 408.75 658.831 361.352 658.831C313.954 658.831 286.424 651.369 281.865 650.006C277.305 648.642 271.469 643.776 270.384 641.265C268.379 635.878 266.738 630.364 265.47 624.761C263.869 618.025 256.937 593.125 254.976 584.951C253.082 576.778 252.185 568.409 252.302 560.024L252.302 503.678C252.238 494.809 253.16 485.959 255.051 477.29C255.914 472.557 257.946 459.567 258.517 453.47C259.088 447.374 258.371 433.103 258.225 429.867C258.079 426.632 257.8 417.033 257.508 408.062C257.216 399.091 256.353 341.503 256.28 332.75C256.218 325.493 256.109 280.315 256.06 259.814C251.548 261.566 241.419 265.344 240.138 265.562C238.595 265.824 237.792 264.971 237.658 261.01C237.524 257.049 237.658 255.131 241.282 251.099C243.922 248.513 246.797 246.173 249.868 244.108C249.946 244.047 250.027 243.991 250.111 243.938C252.202 242.441 254.322 240.993 256.083 239.786L256.083 239.774C255.96 217.196 252.793 196.142 252.793 184.385C252.793 178.928 253.888 139.715 254.071 126.458C254.254 113.201 261.757 99.4009 263.581 95.4048C265.404 91.4087 268.518 89.0298 274.563 84.1415C280.608 79.2532 285.353 75.0624 293.035 72.5268C305.666 68.5163 333.699 63.6136 361.343 63.6136Z" fill="url(#paint3_linear_112_8817)"/>
<path d="M361.343 184.043C329.418 184.043 315.882 185.441 301.777 189.079C287.672 192.717 277.619 202.595 273.254 207.17C268.889 211.745 267.804 215.915 267.58 221.42C267.356 226.925 266.671 243.236 266.436 263.084C266.202 282.933 266.134 300.251 266.134 300.251C265.978 335.403 266.202 378.88 266.632 393.772C266.976 405.699 267.036 416.586 269.256 430.8C270.15 436.519 271.426 436.368 279.906 438.406C279.906 438.406 281.124 410.816 281.124 400.343C281.124 389.87 281.573 291.977 281.573 286.683C281.573 282.268 284.552 281.338 286.388 280.769C314.99 271.902 360.58 271.775 361.343 271.775C362.106 271.775 407.696 271.906 436.298 280.769C438.14 281.338 441.113 282.268 441.113 286.683C441.113 291.977 441.561 389.87 441.561 400.343C441.561 410.816 442.78 438.406 442.78 438.406C451.259 436.368 452.536 436.519 453.429 430.8C455.649 416.586 455.71 405.699 456.053 393.772C456.483 378.88 456.711 335.403 456.551 300.251C456.551 300.251 456.485 282.937 456.249 263.084C456.014 243.232 455.328 226.933 455.106 221.42C454.883 215.907 453.798 211.74 449.432 207.164C445.066 202.588 435.012 192.71 420.907 189.072C406.802 185.434 393.267 184.043 361.343 184.043Z" fill="url(#paint4_diamond_112_8817)"/>
<path d="M286.764 470.729C286.857 470.934 287.214 472.392 295.513 477.5C304.415 482.986 305.332 483.237 313.121 484.074C320.91 484.912 332.839 485.632 361.343 485.632C389.846 485.632 401.774 484.913 409.564 484.074C417.354 483.236 418.27 482.98 427.172 477.5C435.475 472.389 435.829 470.931 435.921 470.729" stroke="#0C0B05" stroke-width="0.918518" stroke-linecap="round" stroke-linejoin="round"/>
<path fill-rule="evenodd" clip-rule="evenodd" d="M286.856 470.925C287.161 471.477 288.507 473.188 295.513 477.5C304.415 482.986 305.332 483.237 313.121 484.074C320.91 484.912 332.839 485.632 361.343 485.632C389.846 485.632 401.774 484.913 409.564 484.074C417.354 483.236 418.27 482.98 427.172 477.5C434.177 473.188 435.524 471.476 435.83 470.925L447.726 470.925C449.194 470.973 449.526 471.419 449.526 475.295C449.526 479.568 446.253 607.045 444.526 637.058C444.486 641.355 441.744 645.17 437.664 646.606C426.488 650.171 401.032 654.953 361.352 654.953C321.672 654.953 296.216 650.171 285.04 646.606C280.96 645.17 278.218 641.355 278.178 637.058C276.446 607.045 273.178 479.568 273.178 475.295C273.178 471.419 273.511 470.973 274.978 470.925L286.856 470.925Z" fill="#1E1E1E"/>
<path d="M286.856 470.925L287.512 470.562C287.38 470.323 287.128 470.175 286.856 470.175V470.925ZM295.513 477.5L295.907 476.861L295.906 476.861L295.513 477.5ZM313.121 484.074L313.201 483.329H313.201L313.121 484.074ZM361.343 485.632V486.382V485.632ZM409.564 484.074L409.484 483.329L409.564 484.074ZM427.172 477.5L426.779 476.861L426.779 476.861L427.172 477.5ZM435.83 470.925V470.175C435.557 470.175 435.306 470.323 435.173 470.562L435.83 470.925ZM447.726 470.925L447.751 470.175C447.743 470.175 447.735 470.175 447.726 470.175V470.925ZM444.526 637.058L443.777 637.015C443.777 637.027 443.776 637.039 443.776 637.051L444.526 637.058ZM437.664 646.606L437.892 647.32C437.899 647.318 437.906 647.316 437.913 647.313L437.664 646.606ZM285.04 646.606L284.791 647.313C284.798 647.316 284.805 647.318 284.812 647.32L285.04 646.606ZM278.178 637.058L278.928 637.051C278.928 637.039 278.927 637.027 278.927 637.015L278.178 637.058ZM274.978 470.925V470.175C274.97 470.175 274.961 470.175 274.953 470.175L274.978 470.925ZM286.2 471.288C286.418 471.683 286.912 472.319 288.193 473.38C289.481 474.446 291.601 475.972 295.12 478.138L295.906 476.861C292.419 474.715 290.363 473.23 289.15 472.225C287.93 471.214 287.599 470.719 287.512 470.562L286.2 471.288ZM295.12 478.138C299.556 480.872 302.076 482.35 304.475 483.234C306.891 484.125 309.16 484.403 313.041 484.82L313.201 483.329C309.294 482.909 307.209 482.643 304.994 481.827C302.762 481.004 300.372 479.614 295.907 476.861L295.12 478.138ZM313.041 484.82C320.869 485.662 332.831 486.382 361.343 486.382V484.882C332.848 484.882 320.95 484.162 313.201 483.329L313.041 484.82ZM361.343 486.382C389.854 486.382 401.814 485.663 409.645 484.82L409.484 483.329C401.734 484.163 389.837 484.882 361.343 484.882V486.382ZM409.645 484.82C413.527 484.402 415.795 484.122 418.211 483.231C420.609 482.347 423.129 480.869 427.565 478.138L426.779 476.861C422.313 479.61 419.924 481.001 417.692 481.824C415.477 482.641 413.392 482.908 409.484 483.329L409.645 484.82ZM427.565 478.138C431.084 475.973 433.204 474.446 434.492 473.38C435.773 472.319 436.267 471.683 436.486 471.288L435.173 470.562C435.087 470.719 434.755 471.214 433.535 472.225C432.321 473.23 430.265 474.715 426.779 476.861L427.565 478.138ZM447.726 470.175L435.83 470.175V471.675L447.726 471.675V470.175ZM450.276 475.295C450.276 474.32 450.256 473.538 450.198 472.915C450.142 472.302 450.045 471.784 449.862 471.371C449.665 470.925 449.364 470.597 448.94 470.402C448.558 470.226 448.134 470.188 447.751 470.175L447.702 471.675C448.053 471.686 448.22 471.722 448.313 471.765C448.364 471.788 448.422 471.822 448.491 471.978C448.574 472.167 448.653 472.491 448.705 473.052C448.756 473.605 448.776 474.332 448.776 475.295H450.276ZM445.275 637.101C447.002 607.073 450.276 479.582 450.276 475.295H448.776C448.776 479.554 445.503 607.016 443.777 637.015L445.275 637.101ZM437.913 647.313C442.288 645.774 445.233 641.681 445.276 637.065L443.776 637.051C443.739 641.03 441.2 644.566 437.415 645.898L437.913 647.313ZM361.352 655.703C401.081 655.703 426.619 650.916 437.892 647.32L437.436 645.891C426.357 649.425 400.984 654.203 361.352 654.203V655.703ZM284.812 647.32C296.085 650.916 321.623 655.703 361.352 655.703V654.203C321.72 654.203 296.347 649.425 285.268 645.891L284.812 647.32ZM277.428 637.065C277.471 641.681 280.416 645.774 284.791 647.313L285.289 645.898C281.504 644.566 278.965 641.03 278.928 637.051L277.428 637.065ZM272.428 475.295C272.428 479.582 275.697 607.073 277.429 637.101L278.927 637.015C277.196 607.016 273.928 479.554 273.928 475.295H272.428ZM274.953 470.175C274.57 470.188 274.146 470.226 273.764 470.402C273.34 470.597 273.039 470.925 272.842 471.371C272.659 471.784 272.562 472.302 272.506 472.915C272.448 473.538 272.428 474.32 272.428 475.295H273.928C273.928 474.332 273.948 473.605 273.999 473.052C274.051 472.491 274.13 472.167 274.213 471.978C274.282 471.822 274.34 471.788 274.391 471.765C274.484 471.722 274.651 471.686 275.002 471.675L274.953 470.175ZM286.856 470.175L274.978 470.175V471.675L286.856 471.675V470.175Z" fill="#0C0B04"/>
<g opacity="0.4">
<g filter="url(#filter0_i_112_8817)">
<path d="M361.343 489.246L289.693 489.246L290.947 638.505L361.343 638.505L431.738 638.505L432.992 489.246L361.343 489.246Z" fill="url(#paint5_linear_112_8817)"/>
</g>
<path d="M361.343 489.246L289.693 489.246L290.947 638.505L361.343 638.505L431.738 638.505L432.992 489.246L361.343 489.246Z" stroke="url(#paint6_linear_112_8817)" stroke-opacity="0.5" stroke-width="1.5" stroke-linecap="round" stroke-linejoin="round"/>
</g>
<path d="M361.343 489.246L289.693 489.246L290.947 638.505L361.343 638.505L431.738 638.505L432.992 489.246L361.343 489.246Z" stroke="url(#paint7_linear_112_8817)" stroke-width="1.5" stroke-linecap="round" stroke-linejoin="round"/>
<path d="M256.086 239.765C255.966 217.189 252.797 196.133 252.797 184.368C252.797 178.921 253.894 139.698 254.077 126.442C254.26 113.187 261.759 99.3855 263.588 95.3907C265.417 91.3959 268.527 89.0236 274.564 84.1314C280.601 79.2391 285.354 75.0523 293.037 72.5049C305.659 68.5101 333.698 63.6074 361.342 63.6074C388.986 63.6074 417.025 68.5101 429.647 72.5049C437.329 75.0471 442.084 79.2352 448.12 84.1313C454.156 89.0275 457.266 91.3959 459.096 95.3907C460.926 99.3854 468.424 113.186 468.607 126.442C468.79 139.699 469.888 178.921 469.888 184.368C469.888 196.125 466.716 217.189 466.598 239.765" stroke="#0C0B05" stroke-width="0.918518" stroke-miterlimit="10" stroke-linecap="round"/>
<path opacity="0.2" d="M249.611 244.272C249.611 244.272 256.086 239.765 260.435 240.37C262.418 240.645 261.948 243.404 261.948 245.215C261.948 247.025 261.506 252.618 261.506 252.618" stroke="#939381" stroke-width="0.918518" stroke-linecap="round" stroke-linejoin="round"/>
<path opacity="0.3" d="M266.844 242.583C266.093 243.573 264.393 246.468 262.991 248.042C261.651 249.548 261.516 252.146 261.315 255.052C261.114 257.957 259.841 258.219 258.025 259.011C256.209 259.803 241.672 265.282 240.129 265.543C238.587 265.804 237.784 264.948 237.65 260.988C237.516 257.027 237.65 255.109 241.269 251.087C244.395 247.608 253.085 241.843 257.654 238.668C258.828 237.853 259.79 236.774 260.461 235.518L267.538 222.247" stroke="#939381" stroke-width="0.918518" stroke-linecap="round" stroke-linejoin="round"/>
<path opacity="0.2" d="M473.072 244.271C473.072 244.271 466.598 239.764 462.249 240.369C460.265 240.645 460.736 243.404 460.736 245.214C460.736 247.025 461.178 252.617 461.178 252.617" stroke="#939381" stroke-width="0.918518" stroke-linecap="round" stroke-linejoin="round"/>
<path opacity="0.3" d="M455.84 242.582C456.591 243.572 458.291 246.467 459.692 248.041C461.033 249.547 461.168 252.146 461.369 255.051C461.57 257.956 462.843 258.219 464.659 259.01C466.474 259.802 481.012 265.281 482.555 265.542C484.097 265.803 484.899 264.948 485.034 260.987C485.168 257.026 485.034 255.108 481.415 251.086C478.288 247.607 469.598 241.842 465.028 238.667C463.855 237.852 462.893 236.773 462.222 235.517L455.145 222.246" stroke="#939381" stroke-width="0.918518" stroke-linecap="round" stroke-linejoin="round"/>
<path d="M361.343 457.556L357.576 457.556C357.497 441.514 360.813 442.323 361.343 442.323C361.873 442.323 365.189 441.514 365.11 457.556L361.343 457.556Z" fill="#1E1E1E" stroke="#151515" stroke-width="0.918518" stroke-linecap="round" stroke-linejoin="round"/>
<path d="M361.343 457.556L357.576 457.556C357.497 450.215 360.813 450.585 361.343 450.585C361.873 450.585 365.189 450.215 365.11 457.556L361.343 457.556Z" fill="#1E1E1E" stroke="#151515" stroke-width="0.918518" stroke-linecap="round" stroke-linejoin="round"/>
<path opacity="0.3" d="M461.284 448.793C461.21 449.838 460.495 460.124 460.68 464.861C460.943 471.616 461.949 480.42 464.649 487.121C467.433 494.029 470.328 499.648 470.328 499.648" stroke="url(#paint8_linear_112_8817)" stroke-width="0.918518" stroke-miterlimit="10" stroke-linecap="round"/>
<path d="M428.873 489.245L428.873 476.433" stroke="#0C0B05" stroke-width="0.918518" stroke-linecap="round" stroke-linejoin="round"/>
<path d="M361.346 302.755C326.636 302.755 288.936 307.889 288.936 307.889C288.936 307.889 288.968 392.111 288.984 436.501L433.708 436.501C433.724 392.11 433.756 307.889 433.756 307.889C433.756 307.889 396.056 302.755 361.346 302.755Z" fill="url(#paint9_radial_112_8817)"/>
<path opacity="0.3" d="M418.547 436.476C418.547 436.476 417.936 449.567 417.477 455.287C417.018 461.008 414.197 464.902 407.699 466.122C400.486 467.476 380.065 468.242 376.528 468.174C373.923 468.123 373.013 467.506 373.013 464.632L373.013 436.477" stroke="url(#paint10_linear_112_8817)" stroke-width="0.918518" stroke-linecap="round" stroke-linejoin="round"/>
<path opacity="0.3" d="M467.245 221.86C466.903 221.683 466.54 221.538 466.54 221.538C464.911 220.939 463.164 220.726 461.437 220.915C459.263 221.156 457.134 221.702 455.114 222.536" stroke="#939381" stroke-width="0.918518" stroke-linecap="round" stroke-linejoin="round"/>
<path opacity="0.2" d="M466.255 341.827C464.631 342.564 462.934 343.133 461.192 343.525C459.669 343.859 458.122 344.073 456.565 344.164C451.681 346.209 446.601 347.76 441.404 348.795" stroke="#939381" stroke-width="0.918518" stroke-linecap="round" stroke-linejoin="round"/>
<path opacity="0.2" d="M441.371 339.661C446.772 337.658 451.889 334.968 456.594 331.659" stroke="#939381" stroke-width="0.918518" stroke-linecap="round" stroke-linejoin="round"/>
<path opacity="0.5" d="M437.393 76.0851C437.393 76.0851 441.604 161.667 442.371 182.28C442.861 195.5 447.262 202.125 450.864 208.799" stroke="#939381" stroke-width="0.918518" stroke-linecap="round" stroke-linejoin="round"/>
<path opacity="0.4" d="M461.775 256.935C461.972 290.223 461.833 320.234 461.491 343.315C461.03 374.481 461.062 393.479 460.66 400.557C460.071 410.964 460.416 416.938 455.592 434.793C454.653 438.267 453.314 438.75 451.662 439.356C449.056 440.313 445.333 441.211 442.86 441.838" stroke="#939381" stroke-width="0.918518" stroke-linecap="round" stroke-linejoin="round"/>
<path d="M431.738 638.504L437.654 638.504L437.654 645.574L437.654 650.479" stroke="#0C0B05" stroke-width="0.918518" stroke-linecap="round" stroke-linejoin="round"/>
<path d="M449.512 475.275C446.387 475.79 440.236 476.814 437.573 477.326C434.468 477.922 432.968 477.433 432.968 482.4C432.968 482.961 432.977 485.385 432.991 489.245" stroke="#0C0B05" stroke-width="0.918518" stroke-linecap="round" stroke-linejoin="round"/>
<path opacity="0.4" d="M442.78 438.412C442.78 438.412 443.031 447.109 443.232 449.346C443.434 451.582 444.39 451.732 446.101 451.633C448.777 451.519 451.444 451.237 454.084 450.788C458.445 449.934 464.009 450.218 464.009 442.067" stroke="url(#paint11_linear_112_8817)" stroke-width="0.918518" stroke-linecap="round" stroke-linejoin="round"/>
<path opacity="0.3" d="M425.214 638.504L425.214 489.245" stroke="#0C0B05" stroke-width="0.918518" stroke-linecap="round" stroke-linejoin="round"/>
<path opacity="0.2" d="M455.618 90.524C455.618 90.524 457.634 176.906 457.903 184.319C458.186 192.109 458.842 197.337 455.365 202.3L450.833 208.765" stroke="#939381" stroke-width="0.918518" stroke-linecap="round" stroke-linejoin="round"/>
<path opacity="0.2" d="M436.297 280.775L450.864 208.801" stroke="#939381" stroke-width="0.918518" stroke-linecap="round" stroke-linejoin="round"/>
<path opacity="0.3" d="M433.752 307.882C433.401 298.775 434.257 289.661 436.297 280.775" stroke="#939381" stroke-width="0.918518" stroke-linecap="round" stroke-linejoin="round"/>
<path opacity="0.3" d="M411.924 495.334L411.924 629.309" stroke="#424242" stroke-width="0.918518" stroke-linecap="round" stroke-linejoin="round"/>
<path opacity="0.3" d="M394.135 495.334L394.135 629.309" stroke="#424242" stroke-width="0.918518" stroke-linecap="round" stroke-linejoin="round"/>
<path opacity="0.3" d="M376.348 495.334L376.348 629.309" stroke="#424242" stroke-width="0.918518" stroke-linecap="round" stroke-linejoin="round"/>
<path opacity="0.3" d="M361.343 495.335L361.343 629.309" stroke="#424242" stroke-width="0.918518" stroke-linecap="round" stroke-linejoin="round"/>
<path opacity="0.3" d="M455.122 222.536L439.097 303.574C438.573 306.22 438.309 308.911 438.307 311.609C438.299 334.55 438.264 447.155 438.264 461.941C438.264 467.488 440.705 466.657 442.554 466.57C444.402 466.482 450.62 465.877 452.438 465.732C454.257 465.587 455.225 465.646 455.035 472.154C454.87 477.744 449.876 636.505 449.876 636.505C449.71 642.617 445.809 648.012 440.028 650.123" stroke="url(#paint12_linear_112_8817)" stroke-width="0.918518" stroke-linecap="round" stroke-linejoin="round"/>
<path opacity="0.3" d="M261.401 448.791C261.474 449.827 262.191 460.122 262.005 464.859C261.742 471.614 260.737 480.418 258.037 487.119C255.252 494.027 252.357 499.646 252.357 499.646" stroke="url(#paint13_linear_112_8817)" stroke-width="0.918518" stroke-miterlimit="10" stroke-linecap="round"/>
<path d="M293.812 489.246L293.812 476.433" stroke="#0C0B05" stroke-width="0.918518" stroke-linecap="round" stroke-linejoin="round"/>
<path opacity="0.3" d="M304.139 436.477C304.139 436.477 304.749 449.567 305.209 455.288C305.668 461.008 308.489 464.903 314.987 466.123C322.199 467.476 342.62 468.243 346.158 468.175C348.763 468.124 349.672 467.506 349.672 464.632L349.672 436.478" stroke="url(#paint14_linear_112_8817)" stroke-width="0.918518" stroke-linecap="round" stroke-linejoin="round"/>
<path opacity="0.3" d="M255.439 221.86C255.668 221.741 255.904 221.634 256.144 221.539C257.773 220.94 259.52 220.727 261.247 220.916C263.421 221.157 265.55 221.703 267.57 222.537" stroke="#939381" stroke-width="0.918518" stroke-linecap="round" stroke-linejoin="round"/>
<path opacity="0.2" d="M256.423 341.828C258.048 342.565 259.745 343.134 261.488 343.526C263.01 343.86 264.558 344.074 266.114 344.165C270.999 346.209 276.078 347.761 281.276 348.796" stroke="#939381" stroke-width="0.918518" stroke-linecap="round" stroke-linejoin="round"/>
<path opacity="0.2" d="M266.183 355.952C271.125 357.227 276.18 358.026 281.277 358.336" stroke="#939381" stroke-width="0.918518" stroke-linecap="round" stroke-linejoin="round"/>
<path opacity="0.2" d="M456.501 355.951C451.558 357.227 446.504 358.025 441.406 358.336" stroke="#939381" stroke-width="0.918518" stroke-linecap="round" stroke-linejoin="round"/>
<path opacity="0.2" d="M281.313 339.662C275.911 337.659 270.794 334.969 266.089 331.659" stroke="#939381" stroke-width="0.918518" stroke-linecap="round" stroke-linejoin="round"/>
<path d="M284.262 507.585L284.262 518.427H284.257L284.257 527.795C284.256 529.028 283.248 530.027 282.006 530.027C280.763 530.027 279.756 529.028 279.754 527.795V518.427C279.754 518.378 279.756 518.33 279.759 518.281L279.759 507.585C279.761 506.351 280.768 505.352 282.011 505.352C283.253 505.352 284.26 506.351 284.262 507.585Z" fill="url(#paint15_linear_112_8817)" stroke="url(#paint16_linear_112_8817)" stroke-width="0.918518" stroke-linecap="round" stroke-linejoin="round"/>
<path d="M284.257 523.11L279.754 523.11" stroke="url(#paint17_linear_112_8817)" stroke-width="0.918518" stroke-linecap="round" stroke-linejoin="round"/>
<path d="M279.759 512.264L284.262 512.264" stroke="url(#paint18_linear_112_8817)" stroke-width="0.918518" stroke-linecap="round" stroke-linejoin="round"/>
<path d="M285.815 610.501L285.815 621.344H285.81L285.81 630.711C285.808 631.945 284.801 632.943 283.559 632.943C282.316 632.943 281.309 631.945 281.307 630.711V621.343C281.307 621.295 281.309 621.246 281.312 621.198L281.312 610.501C281.314 609.268 282.321 608.269 283.563 608.269C284.806 608.269 285.813 609.268 285.815 610.501Z" fill="url(#paint19_linear_112_8817)" stroke="url(#paint20_linear_112_8817)" stroke-width="0.918518" stroke-linecap="round" stroke-linejoin="round"/>
<path d="M285.81 626.027L281.307 626.027" stroke="url(#paint21_linear_112_8817)" stroke-width="0.918518" stroke-linecap="round" stroke-linejoin="round"/>
<path d="M281.312 615.18L285.815 615.18" stroke="url(#paint22_linear_112_8817)" stroke-width="0.918518" stroke-linecap="round" stroke-linejoin="round"/>
<path d="M441.378 610.501L441.378 621.344H441.374L441.374 630.711C441.372 631.945 440.364 632.943 439.122 632.943C437.88 632.943 436.872 631.945 436.871 630.711V621.343C436.871 621.295 436.872 621.246 436.875 621.198L436.875 610.501C436.877 609.268 437.885 608.269 439.127 608.269C440.369 608.269 441.377 609.268 441.378 610.501Z" fill="url(#paint23_linear_112_8817)" stroke="url(#paint24_linear_112_8817)" stroke-width="0.918518" stroke-linecap="round" stroke-linejoin="round"/>
<path d="M441.374 626.027L436.871 626.027" stroke="url(#paint25_linear_112_8817)" stroke-width="0.918518" stroke-linecap="round" stroke-linejoin="round"/>
<path d="M436.875 615.18L441.378 615.18" stroke="url(#paint26_linear_112_8817)" stroke-width="0.918518" stroke-linecap="round" stroke-linejoin="round"/>
<path d="M441.338 507.585L441.338 518.427H441.333L441.333 527.795C441.331 529.028 440.324 530.027 439.081 530.027C437.839 530.027 436.832 529.028 436.83 527.795V518.427C436.83 518.378 436.832 518.33 436.835 518.281L436.835 507.585C436.836 506.351 437.844 505.352 439.086 505.352C440.329 505.352 441.336 506.351 441.338 507.585Z" fill="url(#paint27_linear_112_8817)" stroke="url(#paint28_linear_112_8817)" stroke-width="0.918518" stroke-linecap="round" stroke-linejoin="round"/>
<path d="M441.333 523.11L436.83 523.11" stroke="url(#paint29_linear_112_8817)" stroke-width="0.918518" stroke-linecap="round" stroke-linejoin="round"/>
<path d="M436.835 512.264L441.338 512.264" stroke="url(#paint30_linear_112_8817)" stroke-width="0.918518" stroke-linecap="round" stroke-linejoin="round"/>
<g opacity="0.5">
<path d="M308.463 80.8001C306.177 109.945 306.659 146.612 307.016 162.369C307.07 164.394 307.953 166.309 309.461 167.673C310.969 169.038 312.971 169.733 315.007 169.6C324.251 169.027 341.138 168.206 361.342 168.206C381.546 168.206 398.432 169.027 407.676 169.6C409.712 169.733 411.715 169.038 413.222 167.673C414.73 166.309 415.613 164.394 415.668 162.369C416.024 146.612 416.506 109.945 414.22 80.8001" fill="url(#paint31_diamond_112_8817)"/>
<path d="M308.463 80.8001C306.177 109.945 306.659 146.612 307.016 162.369C307.07 164.394 307.953 166.309 309.461 167.673C310.969 169.038 312.971 169.733 315.007 169.6C324.251 169.027 341.138 168.206 361.342 168.206C381.546 168.206 398.432 169.027 407.676 169.6C409.712 169.733 411.715 169.038 413.222 167.673C414.73 166.309 415.613 164.394 415.668 162.369C416.024 146.612 416.506 109.945 414.22 80.8001" fill="url(#paint32_diamond_112_8817)"/>
<path d="M308.463 80.8001C306.177 109.945 306.659 146.612 307.016 162.369C307.07 164.394 307.953 166.309 309.461 167.673C310.969 169.038 312.971 169.733 315.007 169.6C324.251 169.027 341.138 168.206 361.342 168.206C381.546 168.206 398.432 169.027 407.676 169.6C409.712 169.733 411.715 169.038 413.222 167.673C414.73 166.309 415.613 164.394 415.668 162.369C416.024 146.612 416.506 109.945 414.22 80.8001" stroke="url(#paint33_linear_112_8817)" stroke-width="0.918518" stroke-linecap="round" stroke-linejoin="round"/>
</g>
<path opacity="0.5" d="M285.291 76.0854C285.291 76.0854 281.08 161.668 280.313 182.281C279.823 195.501 275.452 202.087 271.85 208.763" stroke="#939381" stroke-width="0.918518" stroke-linecap="round" stroke-linejoin="round"/>
<path opacity="0.4" d="M260.911 256.936C260.713 290.224 260.853 320.234 261.194 343.316C261.655 374.482 261.624 393.48 262.024 400.557C262.615 410.965 262.27 416.939 267.094 434.794C268.032 438.268 269.372 438.751 271.022 439.357C273.63 440.313 277.353 441.212 279.824 441.839" stroke="#939381" stroke-width="0.918518" stroke-linecap="round" stroke-linejoin="round"/>
<path d="M290.947 638.505L285.031 638.505L285.031 645.575L285.031 650.48" stroke="#0C0B05" stroke-width="0.918518" stroke-linecap="round" stroke-linejoin="round"/>
<path d="M273.173 475.276C276.299 475.791 282.449 476.815 285.112 477.327C288.218 477.923 289.718 477.434 289.718 482.401C289.718 482.961 289.709 485.386 289.694 489.246" stroke="#0C0B05" stroke-width="0.918518" stroke-linecap="round" stroke-linejoin="round"/>
<path opacity="0.4" d="M279.906 438.412C279.906 438.412 279.654 447.11 279.453 449.347C279.252 451.583 278.295 451.733 276.584 451.634C273.907 451.52 271.24 451.237 268.6 450.789C264.24 449.934 258.68 450.219 258.68 442.068" stroke="url(#paint34_linear_112_8817)" stroke-width="0.918518" stroke-linecap="round" stroke-linejoin="round"/>
<path opacity="0.4" d="M297.472 638.505L297.472 489.246" stroke="#424242" stroke-width="0.918518" stroke-linecap="round" stroke-linejoin="round"/>
<path opacity="0.2" d="M267.066 90.5246C267.066 90.5246 265.049 176.906 264.78 184.32C264.499 192.11 263.842 197.338 267.32 202.3L271.85 208.766" stroke="#939381" stroke-width="0.918518" stroke-linecap="round" stroke-linejoin="round"/>
<path opacity="0.2" d="M286.387 280.776L271.852 208.764" stroke="#939381" stroke-width="0.918518" stroke-linecap="round" stroke-linejoin="round"/>
<path opacity="0.3" d="M288.932 307.883C289.282 298.776 288.427 289.662 286.387 280.776" stroke="#939381" stroke-width="0.918518" stroke-linecap="round" stroke-linejoin="round"/>
<path opacity="0.4" d="M310.762 495.335L310.762 629.309" stroke="#424242" stroke-width="0.918518" stroke-linecap="round" stroke-linejoin="round"/>
<path opacity="0.3" d="M328.55 495.335L328.55 629.309" stroke="#424242" stroke-width="0.918518" stroke-linecap="round" stroke-linejoin="round"/>
<path opacity="0.3" d="M346.338 495.335L346.338 629.309" stroke="#424242" stroke-width="0.918518" stroke-linecap="round" stroke-linejoin="round"/>
<path opacity="0.3" d="M297.472 537.384L317.047 530.819C320.182 529.863 323.433 529.333 326.712 529.244L395.974 529.244C399.253 529.333 402.504 529.863 405.639 530.819L425.214 537.384" stroke="#424242" stroke-width="0.918518" stroke-linecap="round" stroke-linejoin="round"/>
<path opacity="0.3" d="M425.214 621.17L405.639 627.734C402.504 628.69 399.253 629.22 395.974 629.309L326.712 629.309C323.433 629.22 320.182 628.69 317.046 627.734L297.471 621.17" stroke="#424242" stroke-width="0.918518" stroke-linecap="round" stroke-linejoin="round"/>
<path d="M288.932 436.477L361.342 436.477L433.753 436.477" stroke="#0C0B05" stroke-width="0.918518" stroke-linecap="round" stroke-linejoin="round"/>
<path opacity="0.3" d="M267.57 222.537L283.595 303.574C284.118 306.221 284.383 308.912 284.385 311.61C284.392 334.55 284.428 447.156 284.428 461.942C284.428 467.489 281.986 466.658 280.138 466.571C278.291 466.483 272.072 465.878 270.253 465.733C268.435 465.588 267.466 465.647 267.657 472.155C267.822 477.745 272.815 636.506 272.815 636.506C272.982 642.618 276.882 648.012 282.662 650.123" stroke="url(#paint35_linear_112_8817)" stroke-width="0.918518" stroke-linecap="round" stroke-linejoin="round"/>
<path d="M360.07 66.7386L360.057 66.7486L355.967 70.0075C355.674 70.2224 355.5 70.5636 355.5 70.928C355.5 71.2924 355.674 71.6336 355.967 71.8485L360.057 75.1074L360.07 75.1173C360.637 75.5398 361.416 75.5398 361.983 75.1174L361.996 75.1074L366.085 71.8489C366.378 71.6343 366.553 71.2928 366.553 70.928C366.553 70.5632 366.378 70.2217 366.085 70.0071L361.996 66.7486L361.983 66.7386C361.416 66.3162 360.637 66.3162 360.07 66.7386Z" fill="url(#paint36_linear_112_8817)" stroke="#2D2D2D" stroke-linecap="round" stroke-linejoin="round"/>
<path d="M356.27 71.4505L360.369 74.7164C360.758 75.0068 361.295 75.0068 361.684 74.7164L365.782 71.4505M356.27 70.4055L360.369 67.1396C360.758 66.8492 361.295 66.8492 361.684 67.1396L365.782 70.4055" stroke="url(#paint37_linear_112_8817)" stroke-width="0.918518" stroke-linecap="round" stroke-linejoin="round"/>
<path d="M360.211 69.0622L358.268 70.733C358.188 70.7949 358.14 70.8943 358.14 71.0003C358.14 71.1062 358.188 71.2057 358.268 71.2676L359.239 72.103L360.211 72.9384" stroke="url(#paint38_linear_112_8817)" stroke-width="1.3" stroke-linecap="round" stroke-linejoin="round"/>
<path d="M361.852 69.0622L363.795 70.733C363.875 70.7949 363.923 70.8943 363.923 71.0003C363.923 71.1062 363.875 71.2057 363.795 71.2676L362.824 72.103L361.852 72.9384" stroke="url(#paint39_linear_112_8817)" stroke-width="1.3" stroke-linecap="round" stroke-linejoin="round"/>
<path opacity="0.2" d="M448.875 254.087L456.015 249.519" stroke="#939381" stroke-width="0.918518" stroke-linecap="round" stroke-linejoin="round"/>
<path opacity="0.2" d="M273.809 254.088L266.67 249.52" stroke="#939381" stroke-width="0.918518" stroke-linecap="round" stroke-linejoin="round"/>
<path d="M361.343 63.6136C388.985 63.6136 417.029 68.515 429.653 72.5124C437.327 75.048 442.081 79.2375 448.126 84.1271C454.171 89.0167 457.271 91.3943 459.095 95.3904C460.919 99.3865 468.424 113.187 468.605 126.443C468.787 139.7 469.895 178.914 469.895 184.371C469.895 196.128 466.721 217.186 466.605 239.759C468.393 240.978 470.533 242.452 472.658 243.972C472.707 244.009 472.767 244.046 472.828 244.094C475.899 246.158 478.773 248.498 481.414 251.084C485.026 255.117 485.172 257.036 485.026 260.995C484.88 264.955 484.089 265.813 482.557 265.548C481.28 265.33 471.138 261.552 466.626 259.8L466.626 260.138C466.626 260.138 466.48 323.982 466.406 332.736C466.333 341.49 465.471 399.09 465.179 408.048C464.886 417.005 464.608 426.629 464.461 429.853C464.315 433.077 463.598 447.358 464.169 453.456C464.74 459.554 466.772 472.543 467.635 477.276C469.532 485.944 470.454 494.794 470.384 503.664L470.384 560.024C470.507 568.411 469.609 576.782 467.708 584.955C465.763 593.129 458.831 618.024 457.237 624.761C455.958 630.361 454.317 635.874 452.324 641.265C451.242 643.776 445.38 648.654 440.831 650.006C436.282 651.358 408.75 658.831 361.352 658.831C313.954 658.831 286.424 651.369 281.865 650.006C277.305 648.642 271.469 643.776 270.384 641.265C268.379 635.878 266.738 630.364 265.47 624.761C263.869 618.025 256.937 593.125 254.976 584.951C253.082 576.778 252.185 568.409 252.302 560.024L252.302 503.678C252.238 494.809 253.16 485.959 255.051 477.29C255.914 472.557 257.946 459.567 258.517 453.47C259.088 447.374 258.371 433.103 258.225 429.867C258.079 426.632 257.8 417.033 257.508 408.062C257.216 399.091 256.353 341.503 256.28 332.75C256.218 325.493 256.109 280.315 256.06 259.814C251.548 261.566 241.419 265.344 240.138 265.562C238.595 265.824 237.792 264.971 237.658 261.01C237.524 257.049 237.658 255.131 241.282 251.099C243.922 248.513 246.797 246.173 249.868 244.108C249.946 244.047 250.027 243.991 250.111 243.938C252.202 242.441 254.322 240.993 256.083 239.786L256.083 239.774C255.96 217.196 252.793 196.142 252.793 184.385C252.793 178.928 253.888 139.715 254.071 126.458C254.254 113.201 261.757 99.4009 263.581 95.4048C265.404 91.4087 268.518 89.0298 274.563 84.1415C280.608 79.2532 285.353 75.0624 293.035 72.5268C305.666 68.5163 333.699 63.6136 361.343 63.6136Z" stroke="url(#paint40_linear_112_8817)" stroke-width="1.5" stroke-miterlimit="3"/>
<path opacity="0.3" d="M361.343 184.043C329.418 184.043 315.882 185.44 301.777 189.079C287.672 192.717 277.619 202.595 273.254 207.17C268.889 211.745 267.804 215.915 267.58 221.42C267.356 226.925 266.671 243.236 266.436 263.084C266.202 282.933 266.134 300.251 266.134 300.251C265.979 335.403 266.202 378.88 266.633 393.772C266.976 405.699 267.036 416.586 269.256 430.8C270.15 436.519 271.426 436.368 279.906 438.406C279.906 438.406 281.124 410.816 281.124 400.343C281.124 389.87 281.573 291.977 281.573 286.683C281.573 282.268 284.552 281.338 286.388 280.769C314.99 271.902 360.58 271.775 361.343 271.775C362.106 271.775 407.696 271.906 436.298 280.769C438.14 281.338 441.113 282.268 441.113 286.683C441.113 291.977 441.562 389.87 441.562 400.343C441.562 410.816 442.78 438.406 442.78 438.406C451.26 436.368 452.536 436.519 453.429 430.8C455.649 416.586 455.71 405.699 456.053 393.772C456.484 378.88 456.711 335.403 456.551 300.251C456.551 300.251 456.485 282.937 456.249 263.084C456.014 243.232 455.328 226.933 455.106 221.42C454.883 215.907 453.798 211.74 449.432 207.164C445.066 202.588 435.012 192.71 420.907 189.072C406.803 185.434 393.267 184.043 361.343 184.043Z" stroke="url(#paint41_linear_112_8817)" stroke-width="0.918518" stroke-linecap="round" stroke-linejoin="round"/>
<path opacity="0.3" d="M274.977 470.924C275.127 470.924 275.289 470.924 275.465 470.924C280.091 470.924 283.591 470.974 285.281 470.974C286.97 470.974 288.993 470.727 288.993 462.842C288.993 454.957 288.936 307.889 288.936 307.889C288.936 307.889 326.636 302.755 361.346 302.755C396.056 302.755 433.756 307.889 433.756 307.889C433.756 307.889 433.7 454.956 433.7 462.842C433.7 470.729 435.721 470.974 437.412 470.974C439.103 470.974 442.6 470.924 447.227 470.924C447.402 470.924 447.565 470.924 447.715 470.924" stroke="url(#paint42_linear_112_8817)" stroke-width="0.918518" stroke-linecap="round" stroke-linejoin="round"/>
<path d="M286.856 470.925L287.512 470.562C287.38 470.323 287.128 470.175 286.856 470.175V470.925ZM295.513 477.5L295.907 476.861L295.906 476.861L295.513 477.5ZM313.121 484.074L313.201 483.329H313.201L313.121 484.074ZM361.343 485.632V486.382V485.632ZM409.564 484.074L409.484 483.329L409.564 484.074ZM427.172 477.5L426.779 476.861L426.779 476.861L427.172 477.5ZM435.83 470.925V470.175C435.557 470.175 435.306 470.323 435.173 470.562L435.83 470.925ZM447.726 470.925L447.751 470.175C447.743 470.175 447.735 470.175 447.726 470.175V470.925ZM444.526 637.058L443.777 637.015C443.777 637.027 443.776 637.039 443.776 637.051L444.526 637.058ZM437.664 646.606L437.892 647.32C437.899 647.318 437.906 647.316 437.913 647.313L437.664 646.606ZM285.04 646.606L284.791 647.313C284.798 647.316 284.805 647.318 284.812 647.32L285.04 646.606ZM278.178 637.058L278.928 637.051C278.928 637.039 278.927 637.027 278.927 637.015L278.178 637.058ZM274.978 470.925V470.175C274.97 470.175 274.961 470.175 274.953 470.175L274.978 470.925ZM286.2 471.288C286.418 471.683 286.912 472.319 288.193 473.38C289.481 474.446 291.601 475.972 295.12 478.138L295.906 476.861C292.419 474.715 290.363 473.23 289.15 472.225C287.93 471.214 287.599 470.719 287.512 470.562L286.2 471.288ZM295.12 478.138C299.556 480.872 302.076 482.35 304.475 483.234C306.891 484.125 309.16 484.403 313.041 484.82L313.201 483.329C309.294 482.909 307.209 482.643 304.994 481.827C302.762 481.004 300.372 479.614 295.907 476.861L295.12 478.138ZM313.041 484.82C320.869 485.662 332.831 486.382 361.343 486.382V484.882C332.848 484.882 320.95 484.162 313.201 483.329L313.041 484.82ZM361.343 486.382C389.854 486.382 401.814 485.663 409.645 484.82L409.484 483.329C401.734 484.163 389.837 484.882 361.343 484.882V486.382ZM409.645 484.82C413.527 484.402 415.795 484.122 418.211 483.231C420.609 482.347 423.129 480.869 427.565 478.138L426.779 476.861C422.313 479.61 419.924 481.001 417.692 481.824C415.477 482.641 413.392 482.908 409.484 483.329L409.645 484.82ZM427.565 478.138C431.084 475.973 433.204 474.446 434.492 473.38C435.773 472.319 436.267 471.683 436.486 471.288L435.173 470.562C435.087 470.719 434.755 471.214 433.535 472.225C432.321 473.23 430.265 474.715 426.779 476.861L427.565 478.138ZM447.726 470.175L435.83 470.175V471.675L447.726 471.675V470.175ZM450.276 475.295C450.276 474.32 450.256 473.538 450.198 472.915C450.142 472.302 450.045 471.784 449.862 471.371C449.665 470.925 449.364 470.597 448.94 470.402C448.558 470.226 448.134 470.188 447.751 470.175L447.702 471.675C448.053 471.686 448.22 471.722 448.313 471.765C448.364 471.788 448.422 471.822 448.491 471.978C448.574 472.167 448.653 472.491 448.705 473.052C448.756 473.605 448.776 474.332 448.776 475.295H450.276ZM445.275 637.101C447.002 607.073 450.276 479.582 450.276 475.295H448.776C448.776 479.554 445.503 607.016 443.777 637.015L445.275 637.101ZM437.913 647.313C442.288 645.774 445.233 641.681 445.276 637.065L443.776 637.051C443.739 641.03 441.2 644.566 437.415 645.898L437.913 647.313ZM361.352 655.703C401.081 655.703 426.619 650.916 437.892 647.32L437.436 645.891C426.357 649.425 400.984 654.203 361.352 654.203V655.703ZM284.812 647.32C296.085 650.916 321.623 655.703 361.352 655.703V654.203C321.72 654.203 296.347 649.425 285.268 645.891L284.812 647.32ZM277.428 637.065C277.471 641.681 280.416 645.774 284.791 647.313L285.289 645.898C281.504 644.566 278.965 641.03 278.928 637.051L277.428 637.065ZM272.428 475.295C272.428 479.582 275.697 607.073 277.429 637.101L278.927 637.015C277.196 607.016 273.928 479.554 273.928 475.295H272.428ZM274.953 470.175C274.57 470.188 274.146 470.226 273.764 470.402C273.34 470.597 273.039 470.925 272.842 471.371C272.659 471.784 272.562 472.302 272.506 472.915C272.448 473.538 272.428 474.32 272.428 475.295H273.928C273.928 474.332 273.948 473.605 273.999 473.052C274.051 472.491 274.13 472.167 274.213 471.978C274.282 471.822 274.34 471.788 274.391 471.765C274.484 471.722 274.651 471.686 275.002 471.675L274.953 470.175ZM286.856 470.175L274.978 470.175V471.675L286.856 471.675V470.175Z" fill="url(#paint43_linear_112_8817)"/>
<path d="M361.343 427.18L308.519 427.18C305.258 427.18 302.612 424.558 302.606 421.32C302.568 401.174 302.445 335.13 302.423 319.413C302.413 316.48 304.591 313.991 307.518 313.59C325.348 311.112 343.334 309.901 361.338 309.963C379.341 309.901 397.327 311.112 415.157 313.59C418.085 313.991 420.262 316.48 420.252 319.413C420.23 335.13 420.107 401.174 420.069 421.32C420.063 424.558 417.417 427.18 414.156 427.18L361.343 427.18Z" fill="url(#paint44_radial_112_8817)" stroke="#2E2E2E" stroke-width="0.918518" stroke-linecap="round" stroke-linejoin="round"/>
<path d="M361.343 427.18L308.519 427.18C305.258 427.18 302.612 424.558 302.606 421.32C302.568 401.174 302.445 335.13 302.423 319.413C302.413 316.48 304.591 313.991 307.518 313.59C325.348 311.112 343.334 309.901 361.338 309.963C379.341 309.901 397.327 311.112 415.157 313.59C418.085 313.991 420.262 316.48 420.252 319.413C420.23 335.13 420.107 401.174 420.069 421.32C420.063 424.558 417.417 427.18 414.156 427.18L361.343 427.18Z" fill="url(#paint45_radial_112_8817)" stroke="#2E2E2E" stroke-width="0.918518" stroke-linecap="round" stroke-linejoin="round"/>
<path d="M292.407 316.337L292.407 312.852C292.409 311.618 293.417 310.62 294.659 310.62C295.901 310.62 296.909 311.618 296.91 312.852L296.91 322.218C296.909 323.452 295.901 324.451 294.659 324.451C293.417 324.451 292.409 323.452 292.407 322.218L292.407 316.34L292.407 316.337Z" fill="url(#paint46_linear_112_8817)" stroke="url(#paint47_linear_112_8817)" stroke-width="0.918518" stroke-linecap="round" stroke-linejoin="round"/>
<path d="M292.407 317.535L296.91 317.535" stroke="url(#paint48_linear_112_8817)" stroke-width="0.918518" stroke-linecap="round" stroke-linejoin="round"/>
<path d="M292.407 416.768L292.407 413.283C292.409 412.05 293.417 411.051 294.659 411.051C295.901 411.051 296.909 412.05 296.91 413.283L296.91 422.65C296.909 423.883 295.901 424.882 294.659 424.882C293.417 424.882 292.409 423.883 292.407 422.65L292.407 416.771L292.407 416.768Z" fill="url(#paint49_linear_112_8817)" stroke="url(#paint50_linear_112_8817)" stroke-width="0.918518" stroke-linecap="round" stroke-linejoin="round"/>
<path d="M292.407 417.966L296.91 417.966" stroke="url(#paint51_linear_112_8817)" stroke-width="0.918518" stroke-linecap="round" stroke-linejoin="round"/>
<path d="M425.781 316.337L425.781 312.852C425.783 311.619 426.79 310.62 428.032 310.62C429.275 310.62 430.282 311.619 430.284 312.852L430.284 322.218C430.282 323.452 429.275 324.451 428.032 324.451C426.79 324.451 425.783 323.452 425.781 322.218L425.781 316.34L425.781 316.337Z" fill="url(#paint52_linear_112_8817)" stroke="url(#paint53_linear_112_8817)" stroke-width="0.918518" stroke-linecap="round" stroke-linejoin="round"/>
<path d="M425.781 317.535L430.284 317.535" stroke="url(#paint54_linear_112_8817)" stroke-width="0.918518" stroke-linecap="round" stroke-linejoin="round"/>
<path d="M425.781 416.768L425.781 413.283C425.783 412.05 426.79 411.051 428.032 411.051C429.275 411.051 430.282 412.05 430.284 413.283L430.284 422.65C430.282 423.883 429.275 424.882 428.032 424.882C426.79 424.882 425.783 423.883 425.781 422.65L425.781 416.771L425.781 416.768Z" fill="url(#paint55_linear_112_8817)" stroke="url(#paint56_linear_112_8817)" stroke-width="0.918518" stroke-linecap="round" stroke-linejoin="round"/>
<path d="M425.781 417.966L430.284 417.966" stroke="url(#paint57_linear_112_8817)" stroke-width="0.918518" stroke-linecap="round" stroke-linejoin="round"/>
<path d="M361.346 302.755C326.636 302.755 288.936 307.889 288.936 307.889C288.936 307.889 288.968 392.111 288.984 436.501L433.708 436.501C433.724 392.11 433.756 307.889 433.756 307.889C433.756 307.889 396.056 302.755 361.346 302.755Z" stroke="#0C0B05" stroke-width="0.918518" stroke-linecap="round" stroke-linejoin="round"/>
<g filter="url(#filter1_d_112_8817)">
<path d="M361.343 489.246L289.693 489.246L290.947 638.505L361.343 638.505L431.738 638.505L432.992 489.246L361.343 489.246Z" fill="#FF0000" fill-opacity="0.4" shape-rendering="crispEdges"/>
<path d="M361.343 489.246L289.693 489.246L290.947 638.505L361.343 638.505L431.738 638.505L432.992 489.246L361.343 489.246Z" stroke="#FF0000" stroke-width="2" stroke-linecap="round" stroke-linejoin="round" shape-rendering="crispEdges"/>
</g>
<g filter="url(#filter2_d_112_8817)">
<path d="M166.138 301.024C165.302 299.725 164.432 297.627 164.102 296.74C162.46 292.411 163.371 294.679 162.486 291.823C166.46 288.941 220.386 250.573 229.146 244.17C217.917 236.552 215.016 234.873 214.683 233.779C214.351 232.684 218.97 227.319 223.77 226.765C227.736 226.105 240.958 230.727 245.407 232.892C248.092 231.052 254.185 226.334 260.069 221.985C263.232 224.155 265.255 226.958 265.923 232.132C259.935 238.512 252.059 246.892 244.003 255.451C226.066 274.506 207.235 294.443 206.348 295.135C205.302 295.95 190.622 306.34 179.378 314.283C176.8 316.104 174.403 317.796 172.392 319.215C170.475 314.261 166.539 303.688 166.138 301.024Z" fill="#FF0000" fill-opacity="0.4"/>
<path d="M234.4 246.542C207.132 265.637 182.733 283.11 164.102 296.74M164.102 296.74C164.432 297.627 165.302 299.725 166.138 301.024M164.102 296.74C162.46 292.411 163.371 294.679 162.486 291.823C166.46 288.941 220.386 250.573 229.146 244.17C217.917 236.552 215.016 234.873 214.683 233.779C214.351 232.684 218.97 227.319 223.77 226.765C227.736 226.105 240.958 230.727 245.407 232.892C248.092 231.052 254.185 226.334 260.069 221.985C263.232 224.155 265.255 226.958 265.923 232.132M166.138 301.024C166.539 303.688 170.475 314.261 172.392 319.215C174.403 317.796 176.8 316.104 179.378 314.283M166.138 301.024C167.087 300.338 170.91 297.676 176.545 293.77M265.923 232.132C265.273 232.55 256.248 238.754 243.862 247.286M265.923 232.132C259.935 238.512 252.059 246.892 244.003 255.451M176.545 293.77C176.442 294.582 178.103 309.609 179.378 314.283M176.545 293.77C192.495 282.712 222.963 261.683 243.862 247.286M179.378 314.283C190.622 306.34 205.302 295.95 206.348 295.135C207.235 294.443 226.066 274.506 244.003 255.451M243.862 247.286L244.003 255.451" stroke="#FF0000" stroke-width="2" stroke-linecap="round" stroke-linejoin="round"/>
<path d="M238.193 229.999C238.193 229.999 245.615 232.674 247.637 236.571C248.559 238.348 246.037 239.561 244.56 240.608C243.083 241.656 238.266 244.53 238.266 244.53" stroke="#FF0000" stroke-width="2" stroke-linecap="round" stroke-linejoin="round"/>
<path d="M249.54 243.079C248.297 243.039 244.952 243.327 242.858 243.094C240.853 242.872 238.656 244.265 236.17 245.782C233.684 247.298 232.733 246.412 231.037 245.389C229.341 244.365 216.462 235.676 215.357 234.569C214.252 233.462 214.486 232.313 217.639 229.912C220.792 227.511 222.434 226.511 227.808 227.137C232.454 227.675 242.184 231.428 247.417 233.318C248.76 233.804 250.197 233.965 251.61 233.786L265.644 232.086" stroke="#FF0000" stroke-width="2" stroke-linecap="round" stroke-linejoin="round"/>
</g>
<g filter="url(#filter3_d_112_8817)">
<path d="M556.546 301.025C557.382 299.725 558.252 297.627 558.582 296.741C560.224 292.411 559.312 294.679 560.198 291.823C556.224 288.941 502.298 250.573 493.537 244.17C504.767 236.552 507.668 234.873 508 233.779C508.333 232.685 503.714 227.319 498.914 226.765C494.947 226.105 481.726 230.727 477.277 232.892C474.592 231.052 468.499 226.334 462.615 221.985C459.452 224.155 457.429 226.958 456.761 232.133C462.749 238.512 470.625 246.892 478.681 255.451C496.618 274.506 515.449 294.444 516.336 295.135C517.381 295.95 532.062 306.34 543.306 314.283C545.884 316.104 548.281 317.796 550.292 319.215C552.209 314.261 556.145 303.688 556.546 301.025Z" fill="#FF0000" fill-opacity="0.4"/>
<path d="M488.284 246.542C515.552 265.637 539.951 283.111 558.582 296.741M558.582 296.741C558.252 297.627 557.382 299.725 556.546 301.025M558.582 296.741C560.224 292.411 559.312 294.679 560.198 291.823C556.224 288.941 502.298 250.573 493.537 244.17C504.767 236.552 507.668 234.873 508 233.779C508.333 232.685 503.714 227.319 498.914 226.765C494.947 226.105 481.726 230.727 477.277 232.892C474.592 231.052 468.499 226.334 462.615 221.985C459.452 224.155 457.429 226.958 456.761 232.133M556.546 301.025C556.145 303.688 552.209 314.261 550.292 319.215C548.281 317.796 545.884 316.104 543.306 314.283M556.546 301.025C555.596 300.339 551.774 297.676 546.139 293.77M456.761 232.133C457.41 232.55 466.435 238.754 478.822 247.286M456.761 232.133C462.749 238.512 470.625 246.892 478.681 255.451M546.139 293.77C546.242 294.583 544.581 309.609 543.306 314.283M546.139 293.77C530.189 282.712 499.721 261.683 478.822 247.286M543.306 314.283C532.062 306.34 517.381 295.95 516.336 295.135C515.449 294.444 496.618 274.506 478.681 255.451M478.822 247.286L478.681 255.451" stroke="#FF0000" stroke-width="2" stroke-linecap="round" stroke-linejoin="round"/>
<path d="M484.491 229.999C484.491 229.999 477.069 232.674 475.047 236.571C474.124 238.348 476.647 239.561 478.123 240.608C479.6 241.656 484.418 244.53 484.418 244.53" stroke="#FF0000" stroke-width="2" stroke-linecap="round" stroke-linejoin="round"/>
<path d="M473.144 243.079C474.386 243.039 477.731 243.327 479.826 243.094C481.83 242.872 484.027 244.265 486.514 245.782C489 247.298 489.95 246.412 491.646 245.389C493.343 244.365 506.221 235.676 507.327 234.569C508.432 233.462 508.198 232.313 505.045 229.912C501.892 227.511 500.25 226.511 494.876 227.137C490.229 227.675 480.5 231.428 475.267 233.318C473.923 233.804 472.486 233.965 471.074 233.786L457.04 232.086" stroke="#FF0000" stroke-width="2" stroke-linecap="round" stroke-linejoin="round"/>
</g>
<g filter="url(#filter4_d_112_8817)">
<path d="M284.535 342.645C284.561 328.878 284.578 310.893 284.518 309.568C284.467 308.445 279.097 281.551 273.929 255.897L267.188 251.289C266.842 276.665 266.371 313.682 266.164 333.09C266.767 333.644 279.985 340.98 284.535 342.645Z" fill="#FF0000" fill-opacity="0.4" shape-rendering="crispEdges"/>
<path d="M284.535 342.645C284.561 328.878 284.578 310.893 284.518 309.568C284.467 308.445 279.097 281.551 273.929 255.897L267.188 251.289C266.842 276.665 266.371 313.682 266.164 333.09C266.767 333.644 279.985 340.98 284.535 342.645Z" stroke="#FF0000" stroke-width="2" stroke-linecap="round" stroke-linejoin="round" shape-rendering="crispEdges"/>
</g>
<g filter="url(#filter5_d_112_8817)">
<path d="M438.287 342.645C438.262 328.878 438.244 310.893 438.305 309.568C438.356 308.445 443.726 281.551 448.893 255.897L455.635 251.289C455.98 276.665 456.452 313.682 456.658 333.09C456.055 333.644 442.837 340.98 438.287 342.645Z" fill="#FF0000" fill-opacity="0.4" shape-rendering="crispEdges"/>
<path d="M438.287 342.645C438.262 328.878 438.244 310.893 438.305 309.568C438.356 308.445 443.726 281.551 448.893 255.897L455.635 251.289C455.98 276.665 456.452 313.682 456.658 333.09C456.055 333.644 442.837 340.98 438.287 342.645Z" stroke="#FF0000" stroke-width="2" stroke-linecap="round" stroke-linejoin="round" shape-rendering="crispEdges"/>
</g>
<g filter="url(#filter6_d_112_8817)">
<path d="M260.997 354.955C261.966 359.102 264.242 368.087 265.583 370.849L257.507 376.048C240.478 386.803 202.998 410.31 189.57 418.114C188.438 418.747 187.445 419.309 186.563 419.812C183.549 421.532 181.834 422.568 180.327 423.429C178.38 424.542 177.668 424.04 173.58 416.977C169.204 409.418 170.764 404.882 173.857 402.707C189.154 391.947 212.414 376.132 258.009 345.311C258.162 346.396 258.583 348.498 259.313 350.78C259.757 352.167 260.315 353.621 260.997 354.955Z" fill="#FF0000" fill-opacity="0.4" shape-rendering="crispEdges"/>
<path d="M260.997 354.955C261.966 359.102 264.242 368.087 265.583 370.849L257.507 376.048M260.997 354.955C260.315 353.621 259.757 352.167 259.313 350.78M260.997 354.955C258.316 356.711 254.993 358.9 251.286 361.357M257.507 376.048C240.478 386.803 202.998 410.31 189.57 418.114M257.507 376.048C256.499 374.065 254.717 370.347 251.286 361.357M189.57 418.114C189.431 417.804 189.132 417.109 187.702 412.947C185.849 407.077 188.07 405.84 203.896 393.918C214.089 386.239 235.966 371.51 251.286 361.357M189.57 418.114C188.438 418.747 187.445 419.309 186.563 419.812M259.313 350.78C258.583 348.498 258.162 346.396 258.009 345.311C212.414 376.132 189.154 391.947 173.857 402.707C170.764 404.882 169.204 409.418 173.58 416.977C177.668 424.04 178.38 424.542 180.327 423.429C181.834 422.568 183.549 421.532 186.563 419.812M259.313 350.78C216.414 378.954 205.552 385.78 190.937 399.744C181.491 408.769 182.922 408.33 186.563 419.812" stroke="#FF0000" stroke-width="2" shape-rendering="crispEdges"/>
</g>
<g filter="url(#filter7_d_112_8817)">
<path d="M281.704 439.359C282.411 423.844 282.934 379.605 283.108 359.465C280.896 359.239 276.805 358.725 267.388 356.744C267.632 375.121 268.175 401.489 269.114 414.217C270.572 433.976 270.41 436.514 276.349 438.134C280.622 439.183 281.368 439.308 281.704 439.359Z" fill="#FF0000" fill-opacity="0.4" shape-rendering="crispEdges"/>
<path d="M281.704 439.359C282.411 423.844 282.934 379.605 283.108 359.465C280.896 359.239 276.805 358.725 267.388 356.744C267.632 375.121 268.175 401.489 269.114 414.217C270.572 433.976 270.41 436.514 276.349 438.134C280.622 439.183 281.368 439.308 281.704 439.359Z" stroke="#FF0000" stroke-width="2" shape-rendering="crispEdges"/>
</g>
<g filter="url(#filter8_d_112_8817)">
<path d="M442.742 439.359C442.035 423.844 441.512 379.605 441.338 359.465C443.55 359.239 447.641 358.725 457.058 356.744C456.814 375.121 456.271 401.489 455.332 414.217C453.874 433.976 454.036 436.514 448.097 438.134C443.824 439.183 443.078 439.308 442.742 439.359Z" fill="#FF0000" fill-opacity="0.4" shape-rendering="crispEdges"/>
<path d="M442.742 439.359C442.035 423.844 441.512 379.605 441.338 359.465C443.55 359.239 447.641 358.725 457.058 356.744C456.814 375.121 456.271 401.489 455.332 414.217C453.874 433.976 454.036 436.514 448.097 438.134C443.824 439.183 443.078 439.308 442.742 439.359Z" stroke="#FF0000" stroke-width="2" shape-rendering="crispEdges"/>
</g>
<g filter="url(#filter9_d_112_8817)">
<path d="M462.502 354.955C461.532 359.102 459.256 368.087 457.915 370.849L465.991 376.048C483.02 386.803 520.5 410.31 533.928 418.114C535.06 418.747 536.053 419.309 536.935 419.812C539.949 421.532 541.664 422.568 543.171 423.429C545.118 424.542 545.83 424.04 549.919 416.977C554.294 409.418 552.734 404.882 549.641 402.707C534.344 391.947 511.085 376.132 465.489 345.311C465.336 346.396 464.915 348.498 464.185 350.78C463.741 352.167 463.183 353.621 462.502 354.955Z" fill="#FF0000" fill-opacity="0.4" shape-rendering="crispEdges"/>
<path d="M462.502 354.955C461.532 359.102 459.256 368.087 457.915 370.849L465.991 376.048M462.502 354.955C463.183 353.621 463.741 352.167 464.185 350.78M462.502 354.955C465.182 356.711 468.505 358.9 472.213 361.357M465.991 376.048C483.02 386.803 520.5 410.31 533.928 418.114M465.991 376.048C466.999 374.065 468.781 370.347 472.213 361.357M533.928 418.114C534.067 417.804 534.366 417.109 535.796 412.947C537.649 407.077 535.428 405.84 519.602 393.918C509.409 386.239 487.532 371.51 472.213 361.357M533.928 418.114C535.06 418.747 536.053 419.309 536.935 419.812M464.185 350.78C464.915 348.498 465.336 346.396 465.489 345.311C511.085 376.132 534.344 391.947 549.641 402.707C552.734 404.882 554.294 409.418 549.919 416.977C545.83 424.04 545.118 424.542 543.171 423.429C541.664 422.568 539.949 421.532 536.935 419.812M464.185 350.78C507.084 378.954 517.946 385.78 532.561 399.744C542.007 408.769 540.576 408.33 536.935 419.812" stroke="#FF0000" stroke-width="2" shape-rendering="crispEdges"/>
</g>
<g filter="url(#filter10_d_112_8817)">
<path d="M259.19 448.821L256.725 467.928C258.261 469.309 261.353 472.287 261.439 473.155C261.524 474.022 260.171 483.615 259.484 488.303L254.953 486.401C254.859 489.079 254.377 494.595 253.203 495.234C251.734 496.032 231.519 494.413 229.228 494.941C227.394 495.363 222.101 499.85 219.684 502.041L204.401 476.16L207.61 451.285C222.287 455.133 238.495 446.151 259.19 448.821Z" fill="#FF0000" fill-opacity="0.4" shape-rendering="crispEdges"/>
<path d="M256.725 467.928L259.19 448.821C238.495 446.151 222.287 455.133 207.61 451.285L204.401 476.16L219.684 502.041C222.101 499.85 227.394 495.363 229.228 494.941C231.519 494.413 251.734 496.032 253.203 495.234C254.377 494.595 254.859 489.079 254.953 486.401M256.725 467.928C258.261 469.309 261.353 472.287 261.439 473.155C261.524 474.022 260.171 483.615 259.484 488.303L254.953 486.401M256.725 467.928C257.035 465.529 257.326 460.251 256.013 458.335C254.372 455.939 250.772 453.52 248.077 452.138C245.381 450.756 228.301 453.955 224.242 454.236C220.182 454.517 215.153 456.971 213.643 459.765C212.133 462.559 211.334 471.422 211.083 474.263C210.831 477.104 214.023 481.769 215.295 482.602C216.312 483.268 225.866 488.571 230.516 491.139L249.854 492.714L253.905 489.788M256.725 467.928L254.953 486.401M252.005 484.945C251.589 487.284 248.063 487.885 244.288 487.743C240.513 487.601 224.439 482.998 220.799 480.919C217.159 478.84 216.38 471.516 216.984 469.507C217.467 467.899 219.865 468.263 221.003 468.646L222.389 457.905C229.222 457.215 243.429 455.906 245.6 456.187C248.314 456.537 252.836 460.684 253.719 462.752C254.425 464.406 252.871 478.237 252.005 484.945Z" stroke="#FF0000" stroke-width="2" shape-rendering="crispEdges"/>
</g>
<g filter="url(#filter11_d_112_8817)">
<path d="M464.886 448.821L467.351 467.928C465.816 469.309 462.723 472.287 462.638 473.155C462.552 474.022 463.905 483.615 464.592 488.303L469.123 486.401C469.217 489.079 469.699 494.595 470.874 495.234C472.342 496.032 492.557 494.413 494.849 494.941C496.682 495.363 501.975 499.85 504.393 502.041L519.675 476.16L516.466 451.285C501.79 455.133 485.581 446.151 464.886 448.821Z" fill="#FF0000" fill-opacity="0.4" shape-rendering="crispEdges"/>
<path d="M467.351 467.928L464.886 448.821C485.581 446.151 501.79 455.133 516.466 451.285L519.675 476.16L504.393 502.041C501.975 499.85 496.682 495.363 494.849 494.941C492.557 494.413 472.342 496.032 470.874 495.234C469.699 494.595 469.217 489.079 469.123 486.401M467.351 467.928C465.816 469.309 462.723 472.287 462.638 473.155C462.552 474.022 463.905 483.615 464.592 488.303L469.123 486.401M467.351 467.928C467.041 465.529 466.75 460.251 468.063 458.335C469.704 455.939 473.304 453.52 476 452.138C478.695 450.756 495.775 453.955 499.835 454.236C503.894 454.517 508.924 456.971 510.433 459.765C511.943 462.559 512.742 471.422 512.994 474.263C513.245 477.104 510.054 481.769 508.782 482.602C507.764 483.268 498.21 488.571 493.561 491.139L474.223 492.714L470.171 489.788M467.351 467.928L469.123 486.401M472.071 484.945C472.488 487.284 476.014 487.885 479.789 487.743C483.563 487.601 499.637 482.998 503.277 480.919C506.917 478.84 507.696 471.516 507.092 469.507C506.609 467.899 504.211 468.263 503.073 468.646L501.687 457.905C494.855 457.215 480.647 455.906 478.476 456.187C475.763 456.537 471.24 460.684 470.357 462.752C469.651 464.406 471.205 478.237 472.071 484.945Z" stroke="#FF0000" stroke-width="2" shape-rendering="crispEdges"/>
</g>
<g filter="url(#filter12_d_112_8817)">
<path d="M292.242 634.115L290.927 633.678V635.064V661.885V662.885H291.927H430.739H431.739V661.885V635.73V634.366L430.438 634.776L405.068 642.762C402.064 643.546 398.947 643.981 395.804 644.056H327.538C324.397 643.981 321.284 643.546 318.282 642.764L292.242 634.115Z" fill="#FF0000" fill-opacity="0.4" stroke="#FF0000" stroke-width="2"/>
<mask id="path-118-inside-1_112_8817" fill="white">
<path fill-rule="evenodd" clip-rule="evenodd" d="M291.927 652.765H285.235C284.683 652.765 284.235 653.213 284.235 653.765V681.598C284.235 682.151 284.683 682.598 285.235 682.598H436.765C437.317 682.598 437.765 682.151 437.765 681.598V653.765C437.765 653.213 437.317 652.765 436.765 652.765H430.739V661.885H291.927V652.765Z"/>
</mask>
<path fill-rule="evenodd" clip-rule="evenodd" d="M291.927 652.765H285.235C284.683 652.765 284.235 653.213 284.235 653.765V681.598C284.235 682.151 284.683 682.598 285.235 682.598H436.765C437.317 682.598 437.765 682.151 437.765 681.598V653.765C437.765 653.213 437.317 652.765 436.765 652.765H430.739V661.885H291.927V652.765Z" fill="#FF0000" fill-opacity="0.4"/>
<path d="M291.927 652.765H293.927V650.765H291.927V652.765ZM430.739 652.765V650.765H428.739V652.765H430.739ZM430.739 661.885V663.885H432.739V661.885H430.739ZM291.927 661.885H289.927V663.885H291.927V661.885ZM285.235 654.765H291.927V650.765H285.235V654.765ZM286.235 653.765C286.235 654.317 285.787 654.765 285.235 654.765V650.765C283.578 650.765 282.235 652.108 282.235 653.765H286.235ZM286.235 681.598V653.765H282.235V681.598H286.235ZM285.235 680.598C285.787 680.598 286.235 681.046 286.235 681.598H282.235C282.235 683.255 283.578 684.598 285.235 684.598V680.598ZM436.765 680.598H285.235V684.598H436.765V680.598ZM435.765 681.598C435.765 681.046 436.213 680.598 436.765 680.598V684.598C438.422 684.598 439.765 683.255 439.765 681.598H435.765ZM435.765 653.765V681.598H439.765V653.765H435.765ZM436.765 654.765C436.213 654.765 435.765 654.317 435.765 653.765H439.765C439.765 652.108 438.422 650.765 436.765 650.765V654.765ZM430.739 654.765H436.765V650.765H430.739V654.765ZM428.739 652.765V661.885H432.739V652.765H428.739ZM430.739 659.885H291.927V663.885H430.739V659.885ZM293.927 661.885V652.765H289.927V661.885H293.927Z" fill="#FF0000" mask="url(#path-118-inside-1_112_8817)"/>
</g>
<g filter="url(#filter13_d_112_8817)">
<path d="M361.342 63.6136C388.985 63.6136 417.029 68.5151 429.652 72.5124C437.327 75.0481 442.081 79.2375 448.126 84.1271C454.171 89.0167 457.271 91.3943 459.095 95.3904C460.919 99.3865 468.423 113.187 468.605 126.443C468.787 139.7 469.895 178.914 469.895 184.371C469.895 196.128 466.721 217.186 466.605 239.759C468.393 240.978 470.533 242.452 472.658 243.972C472.707 244.009 472.767 244.046 472.828 244.094C475.899 246.158 478.773 248.498 481.414 251.084C485.026 255.117 485.172 257.036 485.026 260.995C484.88 264.955 484.089 265.813 482.557 265.548C481.28 265.33 471.138 261.552 466.626 259.8L466.626 260.138C466.626 260.138 466.48 323.982 466.406 332.736C466.332 341.489 465.471 399.09 465.178 408.048C464.886 417.005 464.607 426.629 464.461 429.853C464.315 433.077 463.598 447.358 464.169 453.456C464.74 459.554 466.772 472.543 467.635 477.276C469.532 485.944 470.454 494.794 470.384 503.664L470.384 560.024C470.507 568.411 469.609 576.782 467.708 584.955C465.763 593.129 458.831 618.024 457.237 624.761C455.958 630.361 454.317 635.874 452.324 641.265C451.242 643.776 445.38 648.654 440.831 650.006C436.282 651.358 408.75 658.831 361.352 658.831C313.954 658.831 286.424 651.369 281.865 650.006C277.305 648.642 271.469 643.776 270.384 641.265C268.379 635.878 266.738 630.364 265.47 624.761C263.869 618.025 256.937 593.125 254.976 584.951C253.082 576.778 252.184 568.409 252.302 560.024L252.302 503.678C252.238 494.809 253.16 485.959 255.051 477.29C255.914 472.557 257.946 459.567 258.517 453.47C259.088 447.374 258.371 433.103 258.225 429.867C258.079 426.632 257.8 417.033 257.508 408.062C257.216 399.091 256.352 341.503 256.28 332.75C256.218 325.493 256.109 280.315 256.06 259.814C251.548 261.566 241.419 265.344 240.138 265.562C238.595 265.824 237.792 264.971 237.658 261.01C237.524 257.049 237.658 255.131 241.282 251.099C243.922 248.513 246.796 246.173 249.868 244.108C249.946 244.047 250.027 243.991 250.111 243.938C252.202 242.441 254.322 240.993 256.083 239.786L256.083 239.774C255.96 217.196 252.793 196.142 252.793 184.385C252.793 178.928 253.888 139.715 254.071 126.458C254.254 113.201 261.757 99.4009 263.581 95.4048C265.404 91.4087 268.518 89.0298 274.563 84.1415C280.608 79.2532 285.353 75.0624 293.035 72.5268C305.666 68.5163 333.698 63.6136 361.342 63.6136Z" fill="#FF0000" fill-opacity="0.4" shape-rendering="crispEdges"/>
<path d="M361.342 63.6136C388.985 63.6136 417.029 68.5151 429.652 72.5124C437.327 75.0481 442.081 79.2375 448.126 84.1271C454.171 89.0167 457.271 91.3943 459.095 95.3904C460.919 99.3865 468.423 113.187 468.605 126.443C468.787 139.7 469.895 178.914 469.895 184.371C469.895 196.128 466.721 217.186 466.605 239.759C468.393 240.978 470.533 242.452 472.658 243.972C472.707 244.009 472.767 244.046 472.828 244.094C475.899 246.158 478.773 248.498 481.414 251.084C485.026 255.117 485.172 257.036 485.026 260.995C484.88 264.955 484.089 265.813 482.557 265.548C481.28 265.33 471.138 261.552 466.626 259.8L466.626 260.138C466.626 260.138 466.48 323.982 466.406 332.736C466.332 341.489 465.471 399.09 465.178 408.048C464.886 417.005 464.607 426.629 464.461 429.853C464.315 433.077 463.598 447.358 464.169 453.456C464.74 459.554 466.772 472.543 467.635 477.276C469.532 485.944 470.454 494.794 470.384 503.664L470.384 560.024C470.507 568.411 469.609 576.782 467.708 584.955C465.763 593.129 458.831 618.024 457.237 624.761C455.958 630.361 454.317 635.874 452.324 641.265C451.242 643.776 445.38 648.654 440.831 650.006C436.282 651.358 408.75 658.831 361.352 658.831C313.954 658.831 286.424 651.369 281.865 650.006C277.305 648.642 271.469 643.776 270.384 641.265C268.379 635.878 266.738 630.364 265.47 624.761C263.869 618.025 256.937 593.125 254.976 584.951C253.082 576.778 252.184 568.409 252.302 560.024L252.302 503.678C252.238 494.809 253.16 485.959 255.051 477.29C255.914 472.557 257.946 459.567 258.517 453.47C259.088 447.374 258.371 433.103 258.225 429.867C258.079 426.632 257.8 417.033 257.508 408.062C257.216 399.091 256.352 341.503 256.28 332.75C256.218 325.493 256.109 280.315 256.06 259.814C251.548 261.566 241.419 265.344 240.138 265.562C238.595 265.824 237.792 264.971 237.658 261.01C237.524 257.049 237.658 255.131 241.282 251.099C243.922 248.513 246.796 246.173 249.868 244.108C249.946 244.047 250.027 243.991 250.111 243.938C252.202 242.441 254.322 240.993 256.083 239.786L256.083 239.774C255.96 217.196 252.793 196.142 252.793 184.385C252.793 178.928 253.888 139.715 254.071 126.458C254.254 113.201 261.757 99.4009 263.581 95.4048C265.404 91.4087 268.518 89.0298 274.563 84.1415C280.608 79.2532 285.353 75.0624 293.035 72.5268C305.666 68.5163 333.698 63.6136 361.342 63.6136Z" stroke="#FF0000" stroke-width="2" stroke-miterlimit="3" shape-rendering="crispEdges"/>
</g>
<defs>
<filter id="filter0_i_112_8817" x="285.943" y="488.496" width="147.799" height="159.759" filterUnits="userSpaceOnUse" color-interpolation-filters="sRGB">
<feFlood flood-opacity="0" result="BackgroundImageFix"/>
<feBlend mode="normal" in="SourceGraphic" in2="BackgroundImageFix" result="shape"/>
<feColorMatrix in="SourceAlpha" type="matrix" values="0 0 0 0 0 0 0 0 0 0 0 0 0 0 0 0 0 0 127 0" result="hardAlpha"/>
<feOffset dx="-3" dy="12"/>
<feGaussianBlur stdDeviation="4.5"/>
<feComposite in2="hardAlpha" operator="arithmetic" k2="-1" k3="1"/>
<feColorMatrix type="matrix" values="0 0 0 0 0 0 0 0 0 0 0 0 0 0 0 0 0 0 0.25 0"/>
<feBlend mode="normal" in2="shape" result="effect1_innerShadow_112_8817"/>
</filter>
<filter id="filter1_d_112_8817" x="258.693" y="458.246" width="205.299" height="211.259" filterUnits="userSpaceOnUse" color-interpolation-filters="sRGB">
<feFlood flood-opacity="0" result="BackgroundImageFix"/>
<feColorMatrix in="SourceAlpha" type="matrix" values="0 0 0 0 0 0 0 0 0 0 0 0 0 0 0 0 0 0 127 0" result="hardAlpha"/>
<feOffset/>
<feGaussianBlur stdDeviation="15"/>
<feComposite in2="hardAlpha" operator="out"/>
<feColorMatrix type="matrix" values="0 0 0 0 1 0 0 0 0 0 0 0 0 0 0 0 0 0 1 0"/>
<feBlend mode="normal" in2="BackgroundImageFix" result="effect1_dropShadow_112_8817"/>
<feBlend mode="normal" in="SourceGraphic" in2="effect1_dropShadow_112_8817" result="shape"/>
</filter>
<filter id="filter2_d_112_8817" x="131.486" y="190.985" width="165.437" height="159.23" filterUnits="userSpaceOnUse" color-interpolation-filters="sRGB">
<feFlood flood-opacity="0" result="BackgroundImageFix"/>
<feColorMatrix in="SourceAlpha" type="matrix" values="0 0 0 0 0 0 0 0 0 0 0 0 0 0 0 0 0 0 127 0" result="hardAlpha"/>
<feOffset/>
<feGaussianBlur stdDeviation="15"/>
<feComposite in2="hardAlpha" operator="out"/>
<feColorMatrix type="matrix" values="0 0 0 0 1 0 0 0 0 0 0 0 0 0 0 0 0 0 1 0"/>
<feBlend mode="normal" in2="BackgroundImageFix" result="effect1_dropShadow_112_8817"/>
<feBlend mode="normal" in="SourceGraphic" in2="effect1_dropShadow_112_8817" result="shape"/>
</filter>
<filter id="filter3_d_112_8817" x="425.76" y="190.985" width="165.437" height="159.23" filterUnits="userSpaceOnUse" color-interpolation-filters="sRGB">
<feFlood flood-opacity="0" result="BackgroundImageFix"/>
<feColorMatrix in="SourceAlpha" type="matrix" values="0 0 0 0 0 0 0 0 0 0 0 0 0 0 0 0 0 0 127 0" result="hardAlpha"/>
<feOffset/>
<feGaussianBlur stdDeviation="15"/>
<feComposite in2="hardAlpha" operator="out"/>
<feColorMatrix type="matrix" values="0 0 0 0 1 0 0 0 0 0 0 0 0 0 0 0 0 0 1 0"/>
<feBlend mode="normal" in2="BackgroundImageFix" result="effect1_dropShadow_112_8817"/>
<feBlend mode="normal" in="SourceGraphic" in2="effect1_dropShadow_112_8817" result="shape"/>
</filter>
<filter id="filter4_d_112_8817" x="235.164" y="220.289" width="80.3944" height="153.356" filterUnits="userSpaceOnUse" color-interpolation-filters="sRGB">
<feFlood flood-opacity="0" result="BackgroundImageFix"/>
<feColorMatrix in="SourceAlpha" type="matrix" values="0 0 0 0 0 0 0 0 0 0 0 0 0 0 0 0 0 0 127 0" result="hardAlpha"/>
<feOffset/>
<feGaussianBlur stdDeviation="15"/>
<feComposite in2="hardAlpha" operator="out"/>
<feColorMatrix type="matrix" values="0 0 0 0 1 0 0 0 0 0 0 0 0 0 0 0 0 0 1 0"/>
<feBlend mode="normal" in2="BackgroundImageFix" result="effect1_dropShadow_112_8817"/>
<feBlend mode="normal" in="SourceGraphic" in2="effect1_dropShadow_112_8817" result="shape"/>
</filter>
<filter id="filter5_d_112_8817" x="407.264" y="220.289" width="80.3944" height="153.356" filterUnits="userSpaceOnUse" color-interpolation-filters="sRGB">
<feFlood flood-opacity="0" result="BackgroundImageFix"/>
<feColorMatrix in="SourceAlpha" type="matrix" values="0 0 0 0 0 0 0 0 0 0 0 0 0 0 0 0 0 0 127 0" result="hardAlpha"/>
<feOffset/>
<feGaussianBlur stdDeviation="15"/>
<feComposite in2="hardAlpha" operator="out"/>
<feColorMatrix type="matrix" values="0 0 0 0 1 0 0 0 0 0 0 0 0 0 0 0 0 0 1 0"/>
<feBlend mode="normal" in2="BackgroundImageFix" result="effect1_dropShadow_112_8817"/>
<feBlend mode="normal" in="SourceGraphic" in2="effect1_dropShadow_112_8817" result="shape"/>
</filter>
<filter id="filter6_d_112_8817" x="139.876" y="313.585" width="156.994" height="141.299" filterUnits="userSpaceOnUse" color-interpolation-filters="sRGB">
<feFlood flood-opacity="0" result="BackgroundImageFix"/>
<feColorMatrix in="SourceAlpha" type="matrix" values="0 0 0 0 0 0 0 0 0 0 0 0 0 0 0 0 0 0 127 0" result="hardAlpha"/>
<feOffset/>
<feGaussianBlur stdDeviation="15"/>
<feComposite in2="hardAlpha" operator="out"/>
<feColorMatrix type="matrix" values="0 0 0 0 1 0 0 0 0 0 0 0 0 0 0 0 0 0 1 0"/>
<feBlend mode="normal" in2="BackgroundImageFix" result="effect1_dropShadow_112_8817"/>
<feBlend mode="normal" in="SourceGraphic" in2="effect1_dropShadow_112_8817" result="shape"/>
</filter>
<filter id="filter7_d_112_8817" x="236.371" y="325.509" width="77.7448" height="145.005" filterUnits="userSpaceOnUse" color-interpolation-filters="sRGB">
<feFlood flood-opacity="0" result="BackgroundImageFix"/>
<feColorMatrix in="SourceAlpha" type="matrix" values="0 0 0 0 0 0 0 0 0 0 0 0 0 0 0 0 0 0 127 0" result="hardAlpha"/>
<feOffset/>
<feGaussianBlur stdDeviation="15"/>
<feComposite in2="hardAlpha" operator="out"/>
<feColorMatrix type="matrix" values="0 0 0 0 1 0 0 0 0 0 0 0 0 0 0 0 0 0 1 0"/>
<feBlend mode="normal" in2="BackgroundImageFix" result="effect1_dropShadow_112_8817"/>
<feBlend mode="normal" in="SourceGraphic" in2="effect1_dropShadow_112_8817" result="shape"/>
</filter>
<filter id="filter8_d_112_8817" x="410.33" y="325.509" width="77.7448" height="145.005" filterUnits="userSpaceOnUse" color-interpolation-filters="sRGB">
<feFlood flood-opacity="0" result="BackgroundImageFix"/>
<feColorMatrix in="SourceAlpha" type="matrix" values="0 0 0 0 0 0 0 0 0 0 0 0 0 0 0 0 0 0 127 0" result="hardAlpha"/>
<feOffset/>
<feGaussianBlur stdDeviation="15"/>
<feComposite in2="hardAlpha" operator="out"/>
<feColorMatrix type="matrix" values="0 0 0 0 1 0 0 0 0 0 0 0 0 0 0 0 0 0 1 0"/>
<feBlend mode="normal" in2="BackgroundImageFix" result="effect1_dropShadow_112_8817"/>
<feBlend mode="normal" in="SourceGraphic" in2="effect1_dropShadow_112_8817" result="shape"/>
</filter>
<filter id="filter9_d_112_8817" x="426.628" y="313.585" width="156.994" height="141.299" filterUnits="userSpaceOnUse" color-interpolation-filters="sRGB">
<feFlood flood-opacity="0" result="BackgroundImageFix"/>
<feColorMatrix in="SourceAlpha" type="matrix" values="0 0 0 0 0 0 0 0 0 0 0 0 0 0 0 0 0 0 127 0" result="hardAlpha"/>
<feOffset/>
<feGaussianBlur stdDeviation="15"/>
<feComposite in2="hardAlpha" operator="out"/>
<feColorMatrix type="matrix" values="0 0 0 0 1 0 0 0 0 0 0 0 0 0 0 0 0 0 1 0"/>
<feBlend mode="normal" in2="BackgroundImageFix" result="effect1_dropShadow_112_8817"/>
<feBlend mode="normal" in="SourceGraphic" in2="effect1_dropShadow_112_8817" result="shape"/>
</filter>
<filter id="filter10_d_112_8817" x="173.365" y="417.317" width="119.077" height="116.289" filterUnits="userSpaceOnUse" color-interpolation-filters="sRGB">
<feFlood flood-opacity="0" result="BackgroundImageFix"/>
<feColorMatrix in="SourceAlpha" type="matrix" values="0 0 0 0 0 0 0 0 0 0 0 0 0 0 0 0 0 0 127 0" result="hardAlpha"/>
<feOffset/>
<feGaussianBlur stdDeviation="15"/>
<feComposite in2="hardAlpha" operator="out"/>
<feColorMatrix type="matrix" values="0 0 0 0 1 0 0 0 0 0 0 0 0 0 0 0 0 0 1 0"/>
<feBlend mode="normal" in2="BackgroundImageFix" result="effect1_dropShadow_112_8817"/>
<feBlend mode="normal" in="SourceGraphic" in2="effect1_dropShadow_112_8817" result="shape"/>
</filter>
<filter id="filter11_d_112_8817" x="431.634" y="417.317" width="119.077" height="116.289" filterUnits="userSpaceOnUse" color-interpolation-filters="sRGB">
<feFlood flood-opacity="0" result="BackgroundImageFix"/>
<feColorMatrix in="SourceAlpha" type="matrix" values="0 0 0 0 0 0 0 0 0 0 0 0 0 0 0 0 0 0 127 0" result="hardAlpha"/>
<feOffset/>
<feGaussianBlur stdDeviation="15"/>
<feComposite in2="hardAlpha" operator="out"/>
<feColorMatrix type="matrix" values="0 0 0 0 1 0 0 0 0 0 0 0 0 0 0 0 0 0 1 0"/>
<feBlend mode="normal" in2="BackgroundImageFix" result="effect1_dropShadow_112_8817"/>
<feBlend mode="normal" in="SourceGraphic" in2="effect1_dropShadow_112_8817" result="shape"/>
</filter>
<filter id="filter12_d_112_8817" x="254.235" y="602.292" width="213.53" height="110.306" filterUnits="userSpaceOnUse" color-interpolation-filters="sRGB">
<feFlood flood-opacity="0" result="BackgroundImageFix"/>
<feColorMatrix in="SourceAlpha" type="matrix" values="0 0 0 0 0 0 0 0 0 0 0 0 0 0 0 0 0 0 127 0" result="hardAlpha"/>
<feOffset/>
<feGaussianBlur stdDeviation="15"/>
<feComposite in2="hardAlpha" operator="out"/>
<feColorMatrix type="matrix" values="0 0 0 0 1 0 0 0 0 0 0 0 0 0 0 0 0 0 1 0"/>
<feBlend mode="normal" in2="BackgroundImageFix" result="effect1_dropShadow_112_8817"/>
<feBlend mode="normal" in="SourceGraphic" in2="effect1_dropShadow_112_8817" result="shape"/>
</filter>
<filter id="filter13_d_112_8817" x="214.626" y="40.6135" width="293.436" height="641.218" filterUnits="userSpaceOnUse" color-interpolation-filters="sRGB">
<feFlood flood-opacity="0" result="BackgroundImageFix"/>
<feColorMatrix in="SourceAlpha" type="matrix" values="0 0 0 0 0 0 0 0 0 0 0 0 0 0 0 0 0 0 127 0" result="hardAlpha"/>
<feOffset/>
<feGaussianBlur stdDeviation="11"/>
<feComposite in2="hardAlpha" operator="out"/>
<feColorMatrix type="matrix" values="0 0 0 0 1 0 0 0 0 0 0 0 0 0 0 0 0 0 1 0"/>
<feBlend mode="normal" in2="BackgroundImageFix" result="effect1_dropShadow_112_8817"/>
<feBlend mode="normal" in="SourceGraphic" in2="effect1_dropShadow_112_8817" result="shape"/>
</filter>
<linearGradient id="paint0_linear_112_8817" x1="229" y1="64.0015" x2="520" y2="668.501" gradientUnits="userSpaceOnUse">
<stop stop-color="#38392B"/>
<stop offset="0.296875" stop-color="#5E5E4A"/>
<stop offset="0.53125" stop-color="#38392B"/>
<stop offset="0.786458" stop-color="#505040"/>
<stop offset="1" stop-color="#38392B"/>
</linearGradient>
<linearGradient id="paint1_linear_112_8817" x1="361" y1="58.5014" x2="361" y2="92.5015" gradientUnits="userSpaceOnUse">
<stop stop-opacity="0.23"/>
<stop offset="1" stop-opacity="0"/>
</linearGradient>
<linearGradient id="paint2_linear_112_8817" x1="250.797" y1="545.113" x2="313.61" y2="543.856" gradientUnits="userSpaceOnUse">
<stop stop-opacity="0.23"/>
<stop offset="1" stop-opacity="0"/>
</linearGradient>
<linearGradient id="paint3_linear_112_8817" x1="478.182" y1="543.228" x2="452.428" y2="543.228" gradientUnits="userSpaceOnUse">
<stop stop-opacity="0.23"/>
<stop offset="1" stop-opacity="0"/>
</linearGradient>
<radialGradient id="paint4_diamond_112_8817" cx="0" cy="0" r="1" gradientUnits="userSpaceOnUse" gradientTransform="translate(455.5 234.001) rotate(157.27) scale(401.155 535.587)">
<stop stop-color="#0F0F0F"/>
<stop offset="0.208333" stop-color="#232323"/>
<stop offset="0.380208" stop-color="#101010"/>
<stop offset="0.588542" stop-color="#0C0B05"/>
<stop offset="0.760417" stop-color="#2D2D2D" stop-opacity="0.92"/>
<stop offset="1" stop-color="#040402" stop-opacity="0.92"/>
</radialGradient>
<linearGradient id="paint5_linear_112_8817" x1="468.279" y1="347.225" x2="331.5" y2="647.501" gradientUnits="userSpaceOnUse">
<stop/>
<stop offset="1" stop-color="#181818"/>
</linearGradient>
<linearGradient id="paint6_linear_112_8817" x1="355.5" y1="475.001" x2="358.5" y2="647.001" gradientUnits="userSpaceOnUse">
<stop stop-color="#0C0B05"/>
<stop offset="1" stop-color="#0C0B05"/>
</linearGradient>
<linearGradient id="paint7_linear_112_8817" x1="287.5" y1="478.501" x2="437" y2="642.501" gradientUnits="userSpaceOnUse">
<stop stop-color="#0C0B05"/>
<stop offset="0.494792" stop-color="#14130B"/>
<stop offset="1" stop-color="#0C0B05"/>
</linearGradient>
<linearGradient id="paint8_linear_112_8817" x1="460.65" y1="474.221" x2="470.328" y2="474.221" gradientUnits="userSpaceOnUse">
<stop stop-color="#939381"/>
<stop offset="0.494792" stop-color="#939381" stop-opacity="0.33"/>
<stop offset="1" stop-color="#939381"/>
</linearGradient>
<radialGradient id="paint9_radial_112_8817" cx="0" cy="0" r="1" gradientUnits="userSpaceOnUse" gradientTransform="translate(502.5 266.001) rotate(148.152) scale(405.557 417.664)">
<stop stop-color="#0F0F0F"/>
<stop offset="0.208333" stop-color="#232323"/>
<stop offset="0.380208" stop-color="#101010"/>
<stop offset="0.588542" stop-color="#0C0B05"/>
<stop offset="0.760417" stop-color="#2D2D2D" stop-opacity="0.92"/>
<stop offset="1" stop-color="#040402" stop-opacity="0.92"/>
</radialGradient>
<linearGradient id="paint10_linear_112_8817" x1="360" y1="409.501" x2="419" y2="463.001" gradientUnits="userSpaceOnUse">
<stop stop-color="#939381"/>
<stop offset="0.494792" stop-color="#939381" stop-opacity="0.33"/>
<stop offset="1" stop-color="#939381"/>
</linearGradient>
<linearGradient id="paint11_linear_112_8817" x1="442.78" y1="445.034" x2="464.009" y2="445.034" gradientUnits="userSpaceOnUse">
<stop stop-color="#939381"/>
<stop offset="0.494792" stop-color="#939381" stop-opacity="0.33"/>
<stop offset="1" stop-color="#939381"/>
</linearGradient>
<linearGradient id="paint12_linear_112_8817" x1="438.264" y1="436.329" x2="455.122" y2="436.329" gradientUnits="userSpaceOnUse">
<stop stop-color="#939381"/>
<stop offset="0.494792" stop-color="#939381" stop-opacity="0.33"/>
<stop offset="1" stop-color="#939381"/>
</linearGradient>
<linearGradient id="paint13_linear_112_8817" x1="252.357" y1="474.218" x2="262.036" y2="474.218" gradientUnits="userSpaceOnUse">
<stop stop-color="#939381"/>
<stop offset="0.494792" stop-color="#939381" stop-opacity="0.33"/>
<stop offset="1" stop-color="#939381"/>
</linearGradient>
<linearGradient id="paint14_linear_112_8817" x1="297.5" y1="422.001" x2="353" y2="482.001" gradientUnits="userSpaceOnUse">
<stop stop-color="#939381"/>
<stop offset="0.494792" stop-color="#939381" stop-opacity="0.33"/>
<stop offset="1" stop-color="#939381"/>
</linearGradient>
<linearGradient id="paint15_linear_112_8817" x1="276.95" y1="507.026" x2="288.947" y2="521.023" gradientUnits="userSpaceOnUse">
<stop stop-color="#757575"/>
<stop offset="0.276042" stop-color="#9F9F9F"/>
<stop offset="0.489583" stop-color="#676767"/>
<stop offset="0.75" stop-color="#919191"/>
<stop offset="1" stop-color="#5F5F5F"/>
</linearGradient>
<linearGradient id="paint16_linear_112_8817" x1="274.974" y1="505.352" x2="288.483" y2="524.121" gradientUnits="userSpaceOnUse">
<stop stop-color="#A2A2A2"/>
<stop offset="0.484375" stop-color="#434343"/>
<stop offset="1" stop-color="#8E8E8E"/>
</linearGradient>
<linearGradient id="paint17_linear_112_8817" x1="280.582" y1="519.837" x2="285.184" y2="524.399" gradientUnits="userSpaceOnUse">
<stop stop-color="#A2A2A2"/>
<stop offset="0.479167" stop-color="#434343"/>
<stop offset="1" stop-color="#8E8E8E"/>
</linearGradient>
<linearGradient id="paint18_linear_112_8817" x1="279.759" y1="508.873" x2="285.264" y2="512.754" gradientUnits="userSpaceOnUse">
<stop stop-color="#A2A2A2"/>
<stop offset="0.520833" stop-color="#434343"/>
<stop offset="1" stop-color="#8E8E8E"/>
</linearGradient>
<linearGradient id="paint19_linear_112_8817" x1="278.503" y1="609.942" x2="290.5" y2="623.94" gradientUnits="userSpaceOnUse">
<stop stop-color="#757575"/>
<stop offset="0.276042" stop-color="#9F9F9F"/>
<stop offset="0.489583" stop-color="#676767"/>
<stop offset="0.75" stop-color="#919191"/>
<stop offset="1" stop-color="#5F5F5F"/>
</linearGradient>
<linearGradient id="paint20_linear_112_8817" x1="276.527" y1="608.269" x2="290.036" y2="627.037" gradientUnits="userSpaceOnUse">
<stop stop-color="#A2A2A2"/>
<stop offset="0.484375" stop-color="#434343"/>
<stop offset="1" stop-color="#8E8E8E"/>
</linearGradient>
<linearGradient id="paint21_linear_112_8817" x1="282.135" y1="622.754" x2="286.737" y2="627.316" gradientUnits="userSpaceOnUse">
<stop stop-color="#A2A2A2"/>
<stop offset="0.479167" stop-color="#434343"/>
<stop offset="1" stop-color="#8E8E8E"/>
</linearGradient>
<linearGradient id="paint22_linear_112_8817" x1="281.312" y1="611.789" x2="286.817" y2="615.671" gradientUnits="userSpaceOnUse">
<stop stop-color="#A2A2A2"/>
<stop offset="0.520833" stop-color="#434343"/>
<stop offset="1" stop-color="#8E8E8E"/>
</linearGradient>
<linearGradient id="paint23_linear_112_8817" x1="434.066" y1="609.942" x2="446.064" y2="623.94" gradientUnits="userSpaceOnUse">
<stop stop-color="#757575"/>
<stop offset="0.276042" stop-color="#9F9F9F"/>
<stop offset="0.489583" stop-color="#676767"/>
<stop offset="0.75" stop-color="#919191"/>
<stop offset="1" stop-color="#5F5F5F"/>
</linearGradient>
<linearGradient id="paint24_linear_112_8817" x1="432.09" y1="608.269" x2="445.6" y2="627.037" gradientUnits="userSpaceOnUse">
<stop stop-color="#A2A2A2"/>
<stop offset="0.484375" stop-color="#434343"/>
<stop offset="1" stop-color="#8E8E8E"/>
</linearGradient>
<linearGradient id="paint25_linear_112_8817" x1="437.698" y1="622.754" x2="442.3" y2="627.316" gradientUnits="userSpaceOnUse">
<stop stop-color="#A2A2A2"/>
<stop offset="0.479167" stop-color="#434343"/>
<stop offset="1" stop-color="#8E8E8E"/>
</linearGradient>
<linearGradient id="paint26_linear_112_8817" x1="436.875" y1="611.789" x2="442.38" y2="615.671" gradientUnits="userSpaceOnUse">
<stop stop-color="#A2A2A2"/>
<stop offset="0.520833" stop-color="#434343"/>
<stop offset="1" stop-color="#8E8E8E"/>
</linearGradient>
<linearGradient id="paint27_linear_112_8817" x1="434.026" y1="507.026" x2="446.023" y2="521.023" gradientUnits="userSpaceOnUse">
<stop stop-color="#757575"/>
<stop offset="0.276042" stop-color="#9F9F9F"/>
<stop offset="0.489583" stop-color="#676767"/>
<stop offset="0.75" stop-color="#919191"/>
<stop offset="1" stop-color="#5F5F5F"/>
</linearGradient>
<linearGradient id="paint28_linear_112_8817" x1="432.05" y1="505.352" x2="445.559" y2="524.121" gradientUnits="userSpaceOnUse">
<stop stop-color="#A2A2A2"/>
<stop offset="0.484375" stop-color="#434343"/>
<stop offset="1" stop-color="#8E8E8E"/>
</linearGradient>
<linearGradient id="paint29_linear_112_8817" x1="437.658" y1="519.837" x2="442.26" y2="524.399" gradientUnits="userSpaceOnUse">
<stop stop-color="#A2A2A2"/>
<stop offset="0.479167" stop-color="#434343"/>
<stop offset="1" stop-color="#8E8E8E"/>
</linearGradient>
<linearGradient id="paint30_linear_112_8817" x1="436.835" y1="508.873" x2="442.34" y2="512.754" gradientUnits="userSpaceOnUse">
<stop stop-color="#A2A2A2"/>
<stop offset="0.520833" stop-color="#434343"/>
<stop offset="1" stop-color="#8E8E8E"/>
</linearGradient>
<radialGradient id="paint31_diamond_112_8817" cx="0" cy="0" r="1" gradientUnits="userSpaceOnUse" gradientTransform="translate(416 168) rotate(-90) scale(79.5 64.6258)">
<stop stop-opacity="0.46"/>
<stop offset="1" stop-opacity="0"/>
</radialGradient>
<radialGradient id="paint32_diamond_112_8817" cx="0" cy="0" r="1" gradientUnits="userSpaceOnUse" gradientTransform="translate(305 173) rotate(-88.6361) scale(84.0238 68.3032)">
<stop stop-color="#939381" stop-opacity="0.44"/>
<stop offset="1" stop-color="#939381" stop-opacity="0"/>
</radialGradient>
<linearGradient id="paint33_linear_112_8817" x1="415" y1="170" x2="414" y2="78" gradientUnits="userSpaceOnUse">
<stop stop-color="#939381"/>
<stop offset="0.505208" stop-color="#B1B182" stop-opacity="0.494792"/>
<stop offset="1" stop-color="#939381" stop-opacity="0"/>
</linearGradient>
<linearGradient id="paint34_linear_112_8817" x1="258.68" y1="445.034" x2="279.906" y2="445.034" gradientUnits="userSpaceOnUse">
<stop stop-color="#939381"/>
<stop offset="0.494792" stop-color="#939381" stop-opacity="0.33"/>
<stop offset="1" stop-color="#939381"/>
</linearGradient>
<linearGradient id="paint35_linear_112_8817" x1="267.57" y1="436.33" x2="284.428" y2="436.33" gradientUnits="userSpaceOnUse">
<stop stop-color="#939381"/>
<stop offset="0.494792" stop-color="#939381" stop-opacity="0.33"/>
<stop offset="1" stop-color="#939381"/>
</linearGradient>
<linearGradient id="paint36_linear_112_8817" x1="357.209" y1="67.0003" x2="367.209" y2="74.5003" gradientUnits="userSpaceOnUse">
<stop stop-color="#707070"/>
<stop offset="0.489583" stop-color="#BFBFBF"/>
<stop offset="1" stop-color="#969696"/>
</linearGradient>
<linearGradient id="paint37_linear_112_8817" x1="355.709" y1="69.0003" x2="364.709" y2="74.5003" gradientUnits="userSpaceOnUse">
<stop stop-color="#9F7F4E"/>
<stop offset="0.270833" stop-color="#6C2F1C"/>
<stop offset="0.484375" stop-color="#E78831"/>
<stop offset="0.729167" stop-color="#824712"/>
<stop offset="1" stop-color="#9F6F10"/>
</linearGradient>
<linearGradient id="paint38_linear_112_8817" x1="358.002" y1="70.0141" x2="362.439" y2="72.5261" gradientUnits="userSpaceOnUse">
<stop stop-color="#B38C53"/>
<stop offset="0.270833" stop-color="#8E3E25"/>
<stop offset="0.484375" stop-color="#967942"/>
<stop offset="0.729167" stop-color="#9A4A1D"/>
<stop offset="1" stop-color="#AC865A"/>
</linearGradient>
<linearGradient id="paint39_linear_112_8817" x1="364.061" y1="70.0141" x2="359.625" y2="72.5261" gradientUnits="userSpaceOnUse">
<stop stop-color="#B38C53"/>
<stop offset="0.270833" stop-color="#8E3E25"/>
<stop offset="0.484375" stop-color="#967942"/>
<stop offset="0.729167" stop-color="#9A4A1D"/>
<stop offset="1" stop-color="#AC865A"/>
</linearGradient>
<linearGradient id="paint40_linear_112_8817" x1="247.16" y1="33.9735" x2="506.212" y2="687.915" gradientUnits="userSpaceOnUse">
<stop stop-color="#38392B"/>
<stop offset="0.270833" stop-color="#939381"/>
<stop offset="0.557292" stop-color="#64644C"/>
<stop offset="0.807292" stop-color="#939381"/>
<stop offset="1" stop-color="#38392B"/>
</linearGradient>
<linearGradient id="paint41_linear_112_8817" x1="464" y1="464.501" x2="311" y2="176.501" gradientUnits="userSpaceOnUse">
<stop stop-color="#C1C1C1"/>
<stop offset="0.276042" stop-color="#676767"/>
<stop offset="0.536458" stop-color="#9A9A9A"/>
<stop offset="0.807292" stop-color="#5B5B5B"/>
<stop offset="1" stop-color="#AEAEAE"/>
</linearGradient>
<linearGradient id="paint42_linear_112_8817" x1="274.977" y1="386.865" x2="447.715" y2="386.865" gradientUnits="userSpaceOnUse">
<stop stop-color="#939381"/>
<stop offset="0.494792" stop-color="#939381" stop-opacity="0.33"/>
<stop offset="1" stop-color="#939381"/>
</linearGradient>
<linearGradient id="paint43_linear_112_8817" x1="289.5" y1="461.001" x2="430" y2="635.501" gradientUnits="userSpaceOnUse">
<stop stop-color="#0D0D0D"/>
<stop offset="0.25" stop-color="#1B1B1B"/>
<stop offset="0.46875" stop-color="#0D0D0D"/>
<stop offset="0.786458" stop-color="#282828"/>
<stop offset="1" stop-color="#101010"/>
</linearGradient>
<radialGradient id="paint44_radial_112_8817" cx="0" cy="0" r="1" gradientUnits="userSpaceOnUse" gradientTransform="translate(498.5 260.501) rotate(147.701) scale(434.181 462.655)">
<stop stop-color="#0F0F0F"/>
<stop offset="0.208333" stop-color="#232323"/>
<stop offset="0.380208" stop-color="#101010"/>
<stop offset="0.588542" stop-color="#0C0B05"/>
<stop offset="0.760417" stop-color="#2D2D2D" stop-opacity="0.92"/>
<stop offset="1" stop-color="#040402" stop-opacity="0.92"/>
</radialGradient>
<radialGradient id="paint45_radial_112_8817" cx="0" cy="0" r="1" gradientUnits="userSpaceOnUse" gradientTransform="translate(498.5 260.501) rotate(147.701) scale(434.181 462.655)">
<stop stop-color="#0F0F0F"/>
<stop offset="0.208333" stop-color="#232323"/>
<stop offset="0.380208" stop-color="#101010"/>
<stop offset="0.588542" stop-color="#0C0B05"/>
<stop offset="0.760417" stop-color="#2D2D2D" stop-opacity="0.92"/>
<stop offset="1" stop-color="#040402" stop-opacity="0.92"/>
</radialGradient>
<linearGradient id="paint46_linear_112_8817" x1="288.972" y1="312.364" x2="299.736" y2="322.936" gradientUnits="userSpaceOnUse">
<stop stop-color="#848484"/>
<stop offset="0.489583" stop-color="#A8A8A8"/>
<stop offset="1" stop-color="#737373"/>
</linearGradient>
<linearGradient id="paint47_linear_112_8817" x1="290.125" y1="310.62" x2="298.775" y2="324.451" gradientUnits="userSpaceOnUse">
<stop stop-color="#767676"/>
<stop offset="0.296875" stop-color="#8D8D8D"/>
<stop offset="0.526042" stop-color="#6A6A6A"/>
<stop offset="0.807292" stop-color="#8D8D8D"/>
<stop offset="1" stop-color="#4D4D4D"/>
</linearGradient>
<linearGradient id="paint48_linear_112_8817" x1="293.775" y1="315.194" x2="296.91" y2="318.863" gradientUnits="userSpaceOnUse">
<stop stop-color="#595959"/>
<stop offset="0.505208" stop-color="#8D8D8D"/>
<stop offset="1" stop-color="#595959"/>
</linearGradient>
<linearGradient id="paint49_linear_112_8817" x1="288.972" y1="412.795" x2="299.736" y2="423.368" gradientUnits="userSpaceOnUse">
<stop stop-color="#848484"/>
<stop offset="0.489583" stop-color="#A8A8A8"/>
<stop offset="1" stop-color="#737373"/>
</linearGradient>
<linearGradient id="paint50_linear_112_8817" x1="290.125" y1="411.051" x2="298.775" y2="424.882" gradientUnits="userSpaceOnUse">
<stop stop-color="#767676"/>
<stop offset="0.296875" stop-color="#8D8D8D"/>
<stop offset="0.526042" stop-color="#6A6A6A"/>
<stop offset="0.807292" stop-color="#8D8D8D"/>
<stop offset="1" stop-color="#4D4D4D"/>
</linearGradient>
<linearGradient id="paint51_linear_112_8817" x1="293.775" y1="415.625" x2="296.91" y2="419.294" gradientUnits="userSpaceOnUse">
<stop stop-color="#595959"/>
<stop offset="0.505208" stop-color="#8D8D8D"/>
<stop offset="1" stop-color="#595959"/>
</linearGradient>
<linearGradient id="paint52_linear_112_8817" x1="422.345" y1="312.364" x2="433.11" y2="322.937" gradientUnits="userSpaceOnUse">
<stop stop-color="#848484"/>
<stop offset="0.489583" stop-color="#A8A8A8"/>
<stop offset="1" stop-color="#737373"/>
</linearGradient>
<linearGradient id="paint53_linear_112_8817" x1="423.499" y1="310.62" x2="432.149" y2="324.451" gradientUnits="userSpaceOnUse">
<stop stop-color="#767676"/>
<stop offset="0.296875" stop-color="#8D8D8D"/>
<stop offset="0.526042" stop-color="#6A6A6A"/>
<stop offset="0.807292" stop-color="#8D8D8D"/>
<stop offset="1" stop-color="#4D4D4D"/>
</linearGradient>
<linearGradient id="paint54_linear_112_8817" x1="427.149" y1="315.194" x2="430.284" y2="318.863" gradientUnits="userSpaceOnUse">
<stop stop-color="#595959"/>
<stop offset="0.505208" stop-color="#8D8D8D"/>
<stop offset="1" stop-color="#595959"/>
</linearGradient>
<linearGradient id="paint55_linear_112_8817" x1="422.345" y1="412.795" x2="433.11" y2="423.368" gradientUnits="userSpaceOnUse">
<stop stop-color="#848484"/>
<stop offset="0.489583" stop-color="#A8A8A8"/>
<stop offset="1" stop-color="#737373"/>
</linearGradient>
<linearGradient id="paint56_linear_112_8817" x1="423.499" y1="411.051" x2="432.149" y2="424.882" gradientUnits="userSpaceOnUse">
<stop stop-color="#767676"/>
<stop offset="0.296875" stop-color="#8D8D8D"/>
<stop offset="0.526042" stop-color="#6A6A6A"/>
<stop offset="0.807292" stop-color="#8D8D8D"/>
<stop offset="1" stop-color="#4D4D4D"/>
</linearGradient>
<linearGradient id="paint57_linear_112_8817" x1="427.149" y1="415.625" x2="430.284" y2="419.294" gradientUnits="userSpaceOnUse">
<stop stop-color="#595959"/>
<stop offset="0.505208" stop-color="#8D8D8D"/>
<stop offset="1" stop-color="#595959"/>
</linearGradient>
</defs>
</svg>
