<svg width="722" height="722" viewBox="0 0 722 722" fill="none" xmlns="http://www.w3.org/2000/svg">
<g filter="url(#filter0_d_4_2264)">
<path d="M462.502 354.955C461.532 359.102 459.256 368.087 457.915 370.849L465.991 376.048C483.02 386.803 520.5 410.31 533.928 418.114C535.06 418.747 536.053 419.309 536.935 419.812C539.949 421.532 541.664 422.568 543.171 423.429C545.118 424.542 545.83 424.04 549.919 416.977C554.294 409.418 552.734 404.882 549.641 402.707C534.344 391.947 511.085 376.132 465.489 345.311C465.336 346.396 464.915 348.498 464.185 350.78C463.741 352.167 463.183 353.621 462.502 354.955Z" fill="#FF0000" fill-opacity="0.4" shape-rendering="crispEdges"/>
<path d="M462.502 354.955C461.532 359.102 459.256 368.087 457.915 370.849L465.991 376.048M462.502 354.955C463.183 353.621 463.741 352.167 464.185 350.78M462.502 354.955C465.182 356.711 468.505 358.9 472.213 361.357M465.991 376.048C483.02 386.803 520.5 410.31 533.928 418.114M465.991 376.048C466.999 374.065 468.781 370.347 472.213 361.357M533.928 418.114C534.067 417.804 534.366 417.109 535.796 412.947C537.649 407.077 535.428 405.84 519.602 393.918C509.409 386.239 487.532 371.51 472.213 361.357M533.928 418.114C535.06 418.747 536.053 419.309 536.935 419.812M464.185 350.78C464.915 348.498 465.336 346.396 465.489 345.311C511.085 376.132 534.344 391.947 549.641 402.707C552.734 404.882 554.294 409.418 549.919 416.977C545.83 424.04 545.118 424.542 543.171 423.429C541.664 422.568 539.949 421.532 536.935 419.812M464.185 350.78C507.084 378.954 517.946 385.78 532.561 399.744C542.007 408.769 540.576 408.33 536.935 419.812" stroke="#FF0000" stroke-width="2" shape-rendering="crispEdges"/>
</g>
<defs>
<filter id="filter0_d_4_2264" x="426.628" y="313.585" width="156.994" height="141.299" filterUnits="userSpaceOnUse" color-interpolation-filters="sRGB">
<feFlood flood-opacity="0" result="BackgroundImageFix"/>
<feColorMatrix in="SourceAlpha" type="matrix" values="0 0 0 0 0 0 0 0 0 0 0 0 0 0 0 0 0 0 127 0" result="hardAlpha"/>
<feOffset/>
<feGaussianBlur stdDeviation="15"/>
<feComposite in2="hardAlpha" operator="out"/>
<feColorMatrix type="matrix" values="0 0 0 0 1 0 0 0 0 0 0 0 0 0 0 0 0 0 1 0"/>
<feBlend mode="normal" in2="BackgroundImageFix" result="effect1_dropShadow_4_2264"/>
<feBlend mode="normal" in="SourceGraphic" in2="effect1_dropShadow_4_2264" result="shape"/>
</filter>
</defs>
</svg>
