<svg width="722" height="722" viewBox="0 0 722 722" fill="none" xmlns="http://www.w3.org/2000/svg">
<g filter="url(#filter0_d_4_1037)">
<path d="M166.138 301.024C165.302 299.725 164.432 297.627 164.102 296.74C162.46 292.411 163.371 294.679 162.486 291.823C166.46 288.941 220.386 250.573 229.146 244.17C217.917 236.552 215.016 234.873 214.683 233.779C214.351 232.684 218.97 227.319 223.77 226.765C227.736 226.105 240.958 230.727 245.407 232.892C248.092 231.052 254.185 226.334 260.069 221.985C263.232 224.155 265.255 226.958 265.923 232.132C259.935 238.512 252.059 246.892 244.003 255.451C226.066 274.506 207.235 294.443 206.348 295.135C205.302 295.95 190.622 306.34 179.378 314.283C176.8 316.104 174.403 317.796 172.392 319.215C170.475 314.261 166.539 303.688 166.138 301.024Z" fill="#FF0000" fill-opacity="0.4"/>
<path d="M234.4 246.542C207.132 265.637 182.733 283.11 164.102 296.74M164.102 296.74C164.432 297.627 165.302 299.725 166.138 301.024M164.102 296.74C162.46 292.411 163.371 294.679 162.486 291.823C166.46 288.941 220.386 250.573 229.146 244.17C217.917 236.552 215.016 234.873 214.683 233.779C214.351 232.684 218.97 227.319 223.77 226.765C227.736 226.105 240.958 230.727 245.407 232.892C248.092 231.052 254.185 226.334 260.069 221.985C263.232 224.155 265.255 226.958 265.923 232.132M166.138 301.024C166.539 303.688 170.475 314.261 172.392 319.215C174.403 317.796 176.8 316.104 179.378 314.283M166.138 301.024C167.087 300.338 170.91 297.676 176.545 293.77M265.923 232.132C265.273 232.55 256.248 238.754 243.862 247.286M265.923 232.132C259.935 238.512 252.059 246.892 244.003 255.451M176.545 293.77C176.442 294.582 178.103 309.609 179.378 314.283M176.545 293.77C192.495 282.712 222.963 261.683 243.862 247.286M179.378 314.283C190.622 306.34 205.302 295.95 206.348 295.135C207.235 294.443 226.066 274.506 244.003 255.451M243.862 247.286L244.003 255.451" stroke="#FF0000" stroke-width="2" stroke-linecap="round" stroke-linejoin="round"/>
<path d="M238.193 229.999C238.193 229.999 245.615 232.674 247.637 236.571C248.559 238.348 246.037 239.561 244.56 240.608C243.083 241.656 238.266 244.53 238.266 244.53" stroke="#FF0000" stroke-width="2" stroke-linecap="round" stroke-linejoin="round"/>
<path d="M249.54 243.079C248.297 243.039 244.952 243.327 242.858 243.094C240.853 242.872 238.656 244.265 236.17 245.782C233.684 247.298 232.733 246.412 231.037 245.389C229.341 244.365 216.462 235.676 215.357 234.569C214.252 233.462 214.486 232.313 217.639 229.912C220.792 227.511 222.434 226.511 227.808 227.137C232.454 227.675 242.184 231.428 247.417 233.318C248.76 233.804 250.197 233.965 251.61 233.786L265.644 232.086" stroke="#FF0000" stroke-width="2" stroke-linecap="round" stroke-linejoin="round"/>
</g>
<defs>
<filter id="filter0_d_4_1037" x="131.486" y="190.985" width="165.437" height="159.23" filterUnits="userSpaceOnUse" color-interpolation-filters="sRGB">
<feFlood flood-opacity="0" result="BackgroundImageFix"/>
<feColorMatrix in="SourceAlpha" type="matrix" values="0 0 0 0 0 0 0 0 0 0 0 0 0 0 0 0 0 0 127 0" result="hardAlpha"/>
<feOffset/>
<feGaussianBlur stdDeviation="15"/>
<feComposite in2="hardAlpha" operator="out"/>
<feColorMatrix type="matrix" values="0 0 0 0 1 0 0 0 0 0 0 0 0 0 0 0 0 0 1 0"/>
<feBlend mode="normal" in2="BackgroundImageFix" result="effect1_dropShadow_4_1037"/>
<feBlend mode="normal" in="SourceGraphic" in2="effect1_dropShadow_4_1037" result="shape"/>
</filter>
</defs>
</svg>
