<svg width="722" height="722" viewBox="0 0 722 722" fill="none" xmlns="http://www.w3.org/2000/svg">
<g filter="url(#filter0_d_304_1801)">
<path d="M255.508 111.857L258.74 113.195L256.288 117.206L253.037 115.923C251.654 116.678 250.116 119.692 249.157 124.338C248.265 124.301 247.001 124.338 243.64 129.8C242.82 121.72 247.906 104.192 256.288 100.714C256.288 101.865 256.155 104.748 258.74 107.957L257.737 109.629H255.508V111.857Z" fill="#D91D1D" fill-opacity="0.4" shape-rendering="crispEdges"/>
<path d="M255.508 111.857L258.74 113.195L256.288 117.206L253.037 115.923M255.508 111.857V109.629H257.737L258.74 107.957C256.155 104.748 256.288 101.865 256.288 100.714C247.906 104.192 242.82 121.72 243.64 129.8C247.001 124.338 248.265 124.301 249.157 124.338C250.116 119.692 251.654 116.678 253.037 115.923M255.508 111.857C251.912 111.601 253.037 115.923 253.037 115.923" stroke="#FF0000" stroke-width="2" shape-rendering="crispEdges"/>
</g>
<defs>
<filter id="filter0_d_304_1801" x="220.554" y="77.2166" width="61.6489" height="77.6243" filterUnits="userSpaceOnUse" color-interpolation-filters="sRGB">
<feFlood flood-opacity="0" result="BackgroundImageFix"/>
<feColorMatrix in="SourceAlpha" type="matrix" values="0 0 0 0 0 0 0 0 0 0 0 0 0 0 0 0 0 0 127 0" result="hardAlpha"/>
<feOffset/>
<feGaussianBlur stdDeviation="11"/>
<feComposite in2="hardAlpha" operator="out"/>
<feColorMatrix type="matrix" values="0 0 0 0 1 0 0 0 0 0 0 0 0 0 0 0 0 0 1 0"/>
<feBlend mode="normal" in2="BackgroundImageFix" result="effect1_dropShadow_304_1801"/>
<feBlend mode="normal" in="SourceGraphic" in2="effect1_dropShadow_304_1801" result="shape"/>
</filter>
</defs>
</svg>
