<svg width="722" height="722" viewBox="0 0 722 722" fill="none" xmlns="http://www.w3.org/2000/svg">
<g filter="url(#filter0_d_112_5142)">
<path d="M292.242 634.115L290.927 633.678V635.064V661.885V662.885H291.927H430.739H431.739V661.885V635.73V634.366L430.438 634.776L405.068 642.762C402.064 643.546 398.947 643.981 395.804 644.056H327.538C324.397 643.981 321.284 643.546 318.282 642.764L292.242 634.115Z" fill="#FF0000" fill-opacity="0.4" stroke="#FF0000" stroke-width="2"/>
<mask id="path-2-inside-1_112_5142" fill="white">
<path fill-rule="evenodd" clip-rule="evenodd" d="M291.927 652.765H285.235C284.683 652.765 284.235 653.213 284.235 653.765V681.598C284.235 682.151 284.683 682.598 285.235 682.598H436.765C437.317 682.598 437.765 682.151 437.765 681.598V653.765C437.765 653.213 437.317 652.765 436.765 652.765H430.739V661.885H291.927V652.765Z"/>
</mask>
<path fill-rule="evenodd" clip-rule="evenodd" d="M291.927 652.765H285.235C284.683 652.765 284.235 653.213 284.235 653.765V681.598C284.235 682.151 284.683 682.598 285.235 682.598H436.765C437.317 682.598 437.765 682.151 437.765 681.598V653.765C437.765 653.213 437.317 652.765 436.765 652.765H430.739V661.885H291.927V652.765Z" fill="#FF0000" fill-opacity="0.4"/>
<path d="M291.927 652.765H293.927V650.765H291.927V652.765ZM430.739 652.765V650.765H428.739V652.765H430.739ZM430.739 661.885V663.885H432.739V661.885H430.739ZM291.927 661.885H289.927V663.885H291.927V661.885ZM285.235 654.765H291.927V650.765H285.235V654.765ZM286.235 653.765C286.235 654.317 285.787 654.765 285.235 654.765V650.765C283.578 650.765 282.235 652.108 282.235 653.765H286.235ZM286.235 681.598V653.765H282.235V681.598H286.235ZM285.235 680.598C285.787 680.598 286.235 681.046 286.235 681.598H282.235C282.235 683.255 283.578 684.598 285.235 684.598V680.598ZM436.765 680.598H285.235V684.598H436.765V680.598ZM435.765 681.598C435.765 681.046 436.213 680.598 436.765 680.598V684.598C438.422 684.598 439.765 683.255 439.765 681.598H435.765ZM435.765 653.765V681.598H439.765V653.765H435.765ZM436.765 654.765C436.213 654.765 435.765 654.317 435.765 653.765H439.765C439.765 652.108 438.422 650.765 436.765 650.765V654.765ZM430.739 654.765H436.765V650.765H430.739V654.765ZM428.739 652.765V661.885H432.739V652.765H428.739ZM430.739 659.885H291.927V663.885H430.739V659.885ZM293.927 661.885V652.765H289.927V661.885H293.927Z" fill="#FF0000" mask="url(#path-2-inside-1_112_5142)"/>
</g>
<defs>
<filter id="filter0_d_112_5142" x="254.235" y="602.292" width="213.53" height="110.306" filterUnits="userSpaceOnUse" color-interpolation-filters="sRGB">
<feFlood flood-opacity="0" result="BackgroundImageFix"/>
<feColorMatrix in="SourceAlpha" type="matrix" values="0 0 0 0 0 0 0 0 0 0 0 0 0 0 0 0 0 0 127 0" result="hardAlpha"/>
<feOffset/>
<feGaussianBlur stdDeviation="15"/>
<feComposite in2="hardAlpha" operator="out"/>
<feColorMatrix type="matrix" values="0 0 0 0 1 0 0 0 0 0 0 0 0 0 0 0 0 0 1 0"/>
<feBlend mode="normal" in2="BackgroundImageFix" result="effect1_dropShadow_112_5142"/>
<feBlend mode="normal" in="SourceGraphic" in2="effect1_dropShadow_112_5142" result="shape"/>
</filter>
</defs>
</svg>
