<svg width="722" height="722" viewBox="0 0 722 722" fill="none" xmlns="http://www.w3.org/2000/svg">
<g filter="url(#filter0_d_112_7245)">
<path d="M281.704 439.359C282.411 423.844 282.934 379.605 283.108 359.465C280.896 359.239 276.805 358.725 267.388 356.744C267.633 375.121 268.175 401.489 269.114 414.217C270.572 433.976 270.41 436.514 276.349 438.134C280.622 439.183 281.368 439.308 281.704 439.359Z" fill="#FF0000" fill-opacity="0.4" shape-rendering="crispEdges"/>
<path d="M281.704 439.359C282.411 423.844 282.934 379.605 283.108 359.465C280.896 359.239 276.805 358.725 267.388 356.744C267.633 375.121 268.175 401.489 269.114 414.217C270.572 433.976 270.41 436.514 276.349 438.134C280.622 439.183 281.368 439.308 281.704 439.359Z" stroke="#FF0000" stroke-width="2" shape-rendering="crispEdges"/>
</g>
<defs>
<filter id="filter0_d_112_7245" x="236.371" y="325.509" width="77.7449" height="145.005" filterUnits="userSpaceOnUse" color-interpolation-filters="sRGB">
<feFlood flood-opacity="0" result="BackgroundImageFix"/>
<feColorMatrix in="SourceAlpha" type="matrix" values="0 0 0 0 0 0 0 0 0 0 0 0 0 0 0 0 0 0 127 0" result="hardAlpha"/>
<feOffset/>
<feGaussianBlur stdDeviation="15"/>
<feComposite in2="hardAlpha" operator="out"/>
<feColorMatrix type="matrix" values="0 0 0 0 1 0 0 0 0 0 0 0 0 0 0 0 0 0 1 0"/>
<feBlend mode="normal" in2="BackgroundImageFix" result="effect1_dropShadow_112_7245"/>
<feBlend mode="normal" in="SourceGraphic" in2="effect1_dropShadow_112_7245" result="shape"/>
</filter>
</defs>
</svg>
